<?xml version="1.0" standalone="no"?><!-- Generator: Gravit.io --><svg xmlns="http://www.w3.org/2000/svg" xmlns:xlink="http://www.w3.org/1999/xlink" style="isolation:isolate" viewBox="16 16 480 480.004" width="480" height="480.004"><g style="isolation:isolate" id="distributed-illustration"><rect x="16" y="16" width="480" height="480" transform="matrix(1,0,0,1,0,0)" fill="none"/><g id="Ground"><line x1="117.682" y1="494.504" x2="261.157" y2="494.504" vector-effect="non-scaling-stroke" stroke-width="2.985" stroke="rgb(29,41,47)" stroke-linejoin="round" stroke-linecap="round" stroke-miterlimit="3"/><line x1="261.157" y1="494.504" x2="372.321" y2="494.504" vector-effect="non-scaling-stroke" stroke-width="2.985" stroke="rgb(29,41,47)" stroke-linejoin="round" stroke-linecap="round" stroke-miterlimit="3"/><line x1="379.792" y1="494.504" x2="405.318" y2="494.504" vector-effect="non-scaling-stroke" stroke-width="2.985" stroke="rgb(29,41,47)" stroke-linejoin="round" stroke-linecap="round" stroke-miterlimit="3"/><line x1="106.682" y1="494.504" x2="110.682" y2="494.504" vector-effect="non-scaling-stroke" stroke-width="3" stroke="rgb(29,41,47)" stroke-linejoin="round" stroke-linecap="round" stroke-miterlimit="3"/></g><g id="Icon"><g id="Lines"><line x1="418.106" y1="361.259" x2="421.891" y2="363.424" vector-effect="non-scaling-stroke" stroke-width="2" stroke="rgb(29,41,47)" stroke-linejoin="miter" stroke-linecap="square" stroke-miterlimit="3"/><line x1="90.126" y1="173.584" x2="261.157" y2="271.451" vector-effect="non-scaling-stroke" stroke-width="2" stroke="rgb(29,41,47)" stroke-linejoin="miter" stroke-linecap="square" stroke-miterlimit="3"/><line x1="261.157" y1="271.451" x2="418.106" y2="361.259" vector-effect="non-scaling-stroke" stroke-width="2" stroke="rgb(29,41,47)" stroke-linejoin="miter" stroke-linecap="square" stroke-miterlimit="3"/><line x1="256.008" y1="361.259" x2="256.008" y2="458.344" vector-effect="non-scaling-stroke" stroke-width="2" stroke="rgb(29,41,47)" stroke-linejoin="miter" stroke-linecap="square" stroke-miterlimit="3"/><line x1="256.008" y1="78.665" x2="256.008" y2="361.259" vector-effect="non-scaling-stroke" stroke-width="2" stroke="rgb(29,41,47)" stroke-linejoin="miter" stroke-linecap="square" stroke-miterlimit="3"/><line x1="90.126" y1="363.424" x2="261.157" y2="265.558" vector-effect="non-scaling-stroke" stroke-width="2" stroke="rgb(29,41,47)" stroke-linejoin="miter" stroke-linecap="square" stroke-miterlimit="3"/><line x1="261.157" y1="265.558" x2="421.891" y2="173.584" vector-effect="non-scaling-stroke" stroke-width="2" stroke="rgb(29,41,47)" stroke-linejoin="miter" stroke-linecap="square" stroke-miterlimit="3"/><line x1="420.629" y1="361.259" x2="421.891" y2="363.424" vector-effect="non-scaling-stroke" stroke-width="2" stroke="rgb(29,41,47)" stroke-linejoin="miter" stroke-linecap="square" stroke-miterlimit="3"/><line x1="256.008" y1="78.665" x2="420.629" y2="361.259" vector-effect="non-scaling-stroke" stroke-width="2" stroke="rgb(29,41,47)" stroke-linejoin="miter" stroke-linecap="square" stroke-miterlimit="3"/><line x1="261.157" y1="449.506" x2="256.008" y2="458.344" vector-effect="non-scaling-stroke" stroke-width="2" stroke="rgb(29,41,47)" stroke-linejoin="miter" stroke-linecap="square" stroke-miterlimit="3"/><line x1="312.564" y1="361.259" x2="261.157" y2="449.506" vector-effect="non-scaling-stroke" stroke-width="2" stroke="rgb(29,41,47)" stroke-linejoin="miter" stroke-linecap="square" stroke-miterlimit="3"/><line x1="421.891" y1="173.584" x2="312.564" y2="361.259" vector-effect="non-scaling-stroke" stroke-width="2" stroke="rgb(29,41,47)" stroke-linejoin="miter" stroke-linecap="square" stroke-miterlimit="3"/><line x1="256.008" y1="458.344" x2="199.453" y2="361.259" vector-effect="non-scaling-stroke" stroke-width="2" stroke="rgb(29,41,47)" stroke-linejoin="miter" stroke-linecap="square" stroke-miterlimit="3"/><line x1="199.453" y1="361.259" x2="90.126" y2="173.584" vector-effect="non-scaling-stroke" stroke-width="2" stroke="rgb(29,41,47)" stroke-linejoin="miter" stroke-linecap="square" stroke-miterlimit="3"/><line x1="90.126" y1="173.584" x2="421.891" y2="173.584" vector-effect="non-scaling-stroke" stroke-width="2" stroke="rgb(29,41,47)" stroke-linejoin="miter" stroke-linecap="square" stroke-miterlimit="3"/><line x1="91.301" y1="363.424" x2="420.75" y2="363.424" vector-effect="non-scaling-stroke" stroke-width="2" stroke="rgb(29,41,47)" stroke-linejoin="miter" stroke-linecap="square" stroke-miterlimit="3"/><line x1="256.008" y1="78.665" x2="90.126" y2="363.424" vector-effect="non-scaling-stroke" stroke-width="2" stroke="rgb(29,41,47)" stroke-linejoin="miter" stroke-linecap="square" stroke-miterlimit="3"/><line x1="255.305" y1="173.908" x2="172.086" y2="316.605" vector-effect="non-scaling-stroke" stroke-width="2" stroke="rgb(29,41,47)" stroke-linejoin="miter" stroke-linecap="square" stroke-miterlimit="3"/><line x1="172.086" y1="316.605" x2="261.157" y2="316.296" vector-effect="non-scaling-stroke" stroke-width="2" stroke="rgb(29,41,47)" stroke-linejoin="miter" stroke-linecap="square" stroke-miterlimit="3"/><line x1="261.157" y1="316.296" x2="339.702" y2="316.024" vector-effect="non-scaling-stroke" stroke-width="2" stroke="rgb(29,41,47)" stroke-linejoin="miter" stroke-linecap="square" stroke-miterlimit="3"/><line x1="255.305" y1="173.908" x2="339.702" y2="316.024" vector-effect="non-scaling-stroke" stroke-width="2" stroke="rgb(29,41,47)" stroke-linejoin="miter" stroke-linecap="square" stroke-miterlimit="3"/></g><g id="Nodes"><g id="Big nodes"><linearGradient id="_lgradient_56" x1="49.09393381421649%" y1="-25.35852729706891%" x2="49.66518522041243%" y2="122.54964331698079%"><stop offset="1.7391304347826086%" stop-opacity="1" style="stop-color:rgb(86,110,242)"/><stop offset="98.69565217391305%" stop-opacity="1" style="stop-color:rgb(64,76,147)"/></linearGradient><path d=" M 221.882 78.66 C 221.882 59.804 237.17 44.496 256 44.496 C 274.83 44.496 290.118 59.804 290.118 78.66 C 290.118 97.516 274.83 112.825 256 112.825 C 237.17 112.825 221.882 97.516 221.882 78.66 Z " fill="url(#_lgradient_56)" vector-effect="non-scaling-stroke" stroke-width="2" stroke="rgb(29,41,47)" stroke-linejoin="miter" stroke-linecap="square" stroke-miterlimit="3"/><clipPath id="_clipPath_yxTjozIwdX9IdPqUZvQZyG2AE43e5ejf"><linearGradient id="_lgradient_56" x1="49.09393381421649%" y1="-25.35852729706891%" x2="49.66518522041243%" y2="122.54964331698079%"><stop offset="1.7391304347826086%" stop-opacity="1" style="stop-color:rgb(86,110,242)"/><stop offset="98.69565217391305%" stop-opacity="1" style="stop-color:rgb(64,76,147)"/></linearGradient><path d=" M 221.882 78.66 C 221.882 59.804 237.17 44.496 256 44.496 C 274.83 44.496 290.118 59.804 290.118 78.66 C 290.118 97.516 274.83 112.825 256 112.825 C 237.17 112.825 221.882 97.516 221.882 78.66 Z " fill="url(#_lgradient_56)" vector-effect="non-scaling-stroke" stroke-width="2" stroke="rgb(29,41,47)" stroke-linejoin="miter" stroke-linecap="square" stroke-miterlimit="3"/></clipPath><g clip-path="url(#_clipPath_yxTjozIwdX9IdPqUZvQZyG2AE43e5ejf)"><path d=" M 231.873 76.689 C 233.104 68.583 237.881 61.098 245.526 56.684 C 250.229 53.969 255.397 52.775 260.456 52.952" fill="none" vector-effect="non-scaling-stroke" stroke-width="2.985" stroke="rgb(255,255,255)" stroke-opacity="0.26" stroke-linejoin="round" stroke-linecap="round" stroke-miterlimit="3"/></g><linearGradient id="_lgradient_57" x1="49.09393381421649%" y1="-25.35852729706891%" x2="49.66518522041243%" y2="122.54964331698079%"><stop offset="1.7391304347826086%" stop-opacity="1" style="stop-color:rgb(86,110,242)"/><stop offset="98.69565217391305%" stop-opacity="1" style="stop-color:rgb(64,76,147)"/></linearGradient><path d=" M 56 173.58 C 56 154.724 71.288 139.416 90.118 139.416 C 108.948 139.416 124.235 154.724 124.235 173.58 C 124.235 192.436 108.948 207.745 90.118 207.745 C 71.288 207.745 56 192.436 56 173.58 Z " fill="url(#_lgradient_57)" vector-effect="non-scaling-stroke" stroke-width="2" stroke="rgb(29,41,47)" stroke-linejoin="miter" stroke-linecap="square" stroke-miterlimit="3"/><clipPath id="_clipPath_t8U2uX81pqxXsB8tWbMNILpcwqH9jG8z"><linearGradient id="_lgradient_57" x1="49.09393381421649%" y1="-25.35852729706891%" x2="49.66518522041243%" y2="122.54964331698079%"><stop offset="1.7391304347826086%" stop-opacity="1" style="stop-color:rgb(86,110,242)"/><stop offset="98.69565217391305%" stop-opacity="1" style="stop-color:rgb(64,76,147)"/></linearGradient><path d=" M 56 173.58 C 56 154.724 71.288 139.416 90.118 139.416 C 108.948 139.416 124.235 154.724 124.235 173.58 C 124.235 192.436 108.948 207.745 90.118 207.745 C 71.288 207.745 56 192.436 56 173.58 Z " fill="url(#_lgradient_57)" vector-effect="non-scaling-stroke" stroke-width="2" stroke="rgb(29,41,47)" stroke-linejoin="miter" stroke-linecap="square" stroke-miterlimit="3"/></clipPath><g clip-path="url(#_clipPath_t8U2uX81pqxXsB8tWbMNILpcwqH9jG8z)"><path d=" M 65.025 172.03 C 66.256 163.925 71.033 156.44 78.678 152.026 C 83.381 149.31 88.549 148.117 93.608 148.294" fill="none" vector-effect="non-scaling-stroke" stroke-width="2.985" stroke="rgb(255,255,255)" stroke-opacity="0.26" stroke-linejoin="round" stroke-linecap="round" stroke-miterlimit="3"/></g><path d=" M 231.873 459.056 C 233.104 450.951 237.881 443.466 245.526 439.052 C 249.642 436.675 254.113 435.464 258.557 435.296" fill="none" vector-effect="non-scaling-stroke" stroke-width="2.985" stroke="rgb(255,255,255)" stroke-opacity="0.26" stroke-linejoin="round" stroke-linecap="round" stroke-miterlimit="3"/><linearGradient id="_lgradient_58" x1="49.09393381421649%" y1="-25.35852729706891%" x2="49.66518522041243%" y2="122.54964331698079%"><stop offset="1.7391304347826086%" stop-opacity="1" style="stop-color:rgb(86,110,242)"/><stop offset="98.69565217391305%" stop-opacity="1" style="stop-color:rgb(64,76,147)"/></linearGradient><path d=" M 387.765 173.58 C 387.765 154.724 403.052 139.416 421.882 139.416 C 440.712 139.416 456 154.724 456 173.58 C 456 192.436 440.712 207.745 421.882 207.745 C 403.052 207.745 387.765 192.436 387.765 173.58 Z " fill="url(#_lgradient_58)" vector-effect="non-scaling-stroke" stroke-width="2" stroke="rgb(29,41,47)" stroke-linejoin="miter" stroke-linecap="square" stroke-miterlimit="3"/><clipPath id="_clipPath_SsWM8W3GwALBvh0pXRm7iZa2H8HftcxM"><linearGradient id="_lgradient_58" x1="49.09393381421649%" y1="-25.35852729706891%" x2="49.66518522041243%" y2="122.54964331698079%"><stop offset="1.7391304347826086%" stop-opacity="1" style="stop-color:rgb(86,110,242)"/><stop offset="98.69565217391305%" stop-opacity="1" style="stop-color:rgb(64,76,147)"/></linearGradient><path d=" M 387.765 173.58 C 387.765 154.724 403.052 139.416 421.882 139.416 C 440.712 139.416 456 154.724 456 173.58 C 456 192.436 440.712 207.745 421.882 207.745 C 403.052 207.745 387.765 192.436 387.765 173.58 Z " fill="url(#_lgradient_58)" vector-effect="non-scaling-stroke" stroke-width="2" stroke="rgb(29,41,47)" stroke-linejoin="miter" stroke-linecap="square" stroke-miterlimit="3"/></clipPath><g clip-path="url(#_clipPath_SsWM8W3GwALBvh0pXRm7iZa2H8HftcxM)"><path d=" M 398.721 172.03 C 399.953 163.925 404.729 156.44 412.374 152.026 C 417.078 149.31 422.245 148.117 427.305 148.294" fill="none" vector-effect="non-scaling-stroke" stroke-width="2.985" stroke="rgb(255,255,255)" stroke-opacity="0.26" stroke-linejoin="round" stroke-linecap="round" stroke-miterlimit="3"/></g><linearGradient id="_lgradient_59" x1="49.09393381421649%" y1="-25.35852729706891%" x2="49.66518522041243%" y2="122.54964331698079%"><stop offset="1.7391304347826086%" stop-opacity="1" style="stop-color:rgb(86,110,242)"/><stop offset="98.69565217391305%" stop-opacity="1" style="stop-color:rgb(64,76,147)"/></linearGradient><path d=" M 221.743 458.517 C 221.743 439.661 237.031 424.353 255.861 424.353 C 274.691 424.353 289.979 439.661 289.979 458.517 C 289.979 477.373 274.691 492.682 255.861 492.682 C 237.031 492.682 221.743 477.373 221.743 458.517 Z " fill="url(#_lgradient_59)" vector-effect="non-scaling-stroke" stroke-width="2" stroke="rgb(29,41,47)" stroke-linejoin="miter" stroke-linecap="square" stroke-miterlimit="3"/><clipPath id="_clipPath_qny6P2ilz0NjsYrPuVGtEYgs60eRvYKU"><linearGradient id="_lgradient_59" x1="49.09393381421649%" y1="-25.35852729706891%" x2="49.66518522041243%" y2="122.54964331698079%"><stop offset="1.7391304347826086%" stop-opacity="1" style="stop-color:rgb(86,110,242)"/><stop offset="98.69565217391305%" stop-opacity="1" style="stop-color:rgb(64,76,147)"/></linearGradient><path d=" M 221.743 458.517 C 221.743 439.661 237.031 424.353 255.861 424.353 C 274.691 424.353 289.979 439.661 289.979 458.517 C 289.979 477.373 274.691 492.682 255.861 492.682 C 237.031 492.682 221.743 477.373 221.743 458.517 Z " fill="url(#_lgradient_59)" vector-effect="non-scaling-stroke" stroke-width="2" stroke="rgb(29,41,47)" stroke-linejoin="miter" stroke-linecap="square" stroke-miterlimit="3"/></clipPath><g clip-path="url(#_clipPath_qny6P2ilz0NjsYrPuVGtEYgs60eRvYKU)"><path d=" M 232.7 456.968 C 233.931 448.862 238.708 441.377 246.353 436.963 C 251.057 434.248 256.224 433.054 261.283 433.231" fill="none" vector-effect="non-scaling-stroke" stroke-width="2.985" stroke="rgb(255,255,255)" stroke-opacity="0.26" stroke-linejoin="round" stroke-linecap="round" stroke-miterlimit="3"/></g><linearGradient id="_lgradient_60" x1="49.09393381421649%" y1="-25.35852729706891%" x2="49.66518522041243%" y2="122.54964331698079%"><stop offset="1.7391304347826086%" stop-opacity="1" style="stop-color:rgb(86,110,242)"/><stop offset="98.69565217391305%" stop-opacity="1" style="stop-color:rgb(64,76,147)"/></linearGradient><path d=" M 56 363.42 C 56 344.564 71.288 329.255 90.118 329.255 C 108.948 329.255 124.235 344.564 124.235 363.42 C 124.235 382.276 108.948 397.584 90.118 397.584 C 71.288 397.584 56 382.276 56 363.42 Z " fill="url(#_lgradient_60)" vector-effect="non-scaling-stroke" stroke-width="2" stroke="rgb(29,41,47)" stroke-linejoin="miter" stroke-linecap="square" stroke-miterlimit="3"/><clipPath id="_clipPath_oJdf8GAywys4sraeZsn083DckJ18TXs6"><linearGradient id="_lgradient_60" x1="49.09393381421649%" y1="-25.35852729706891%" x2="49.66518522041243%" y2="122.54964331698079%"><stop offset="1.7391304347826086%" stop-opacity="1" style="stop-color:rgb(86,110,242)"/><stop offset="98.69565217391305%" stop-opacity="1" style="stop-color:rgb(64,76,147)"/></linearGradient><path d=" M 56 363.42 C 56 344.564 71.288 329.255 90.118 329.255 C 108.948 329.255 124.235 344.564 124.235 363.42 C 124.235 382.276 108.948 397.584 90.118 397.584 C 71.288 397.584 56 382.276 56 363.42 Z " fill="url(#_lgradient_60)" vector-effect="non-scaling-stroke" stroke-width="2" stroke="rgb(29,41,47)" stroke-linejoin="miter" stroke-linecap="square" stroke-miterlimit="3"/></clipPath><g clip-path="url(#_clipPath_oJdf8GAywys4sraeZsn083DckJ18TXs6)"><path d=" M 65.025 362.714 C 66.256 354.609 71.033 347.124 78.678 342.71 C 83.381 339.994 88.549 338.8 93.608 338.978" fill="none" vector-effect="non-scaling-stroke" stroke-width="2.985" stroke="rgb(255,255,255)" stroke-opacity="0.26" stroke-linejoin="round" stroke-linecap="round" stroke-miterlimit="3"/></g><linearGradient id="_lgradient_61" x1="49.09393381421649%" y1="-25.35852729706891%" x2="49.66518522041243%" y2="122.54964331698079%"><stop offset="1.7391304347826086%" stop-opacity="1" style="stop-color:rgb(86,110,242)"/><stop offset="98.69565217391305%" stop-opacity="1" style="stop-color:rgb(64,76,147)"/></linearGradient><path d=" M 387.351 363.654 C 387.351 344.798 402.639 329.489 421.469 329.489 C 440.299 329.489 455.587 344.798 455.587 363.654 C 455.587 382.51 440.299 397.818 421.469 397.818 C 402.639 397.818 387.351 382.51 387.351 363.654 Z " fill="url(#_lgradient_61)" vector-effect="non-scaling-stroke" stroke-width="2" stroke="rgb(29,41,47)" stroke-linejoin="miter" stroke-linecap="square" stroke-miterlimit="3"/><clipPath id="_clipPath_Am81wNE9B9vVzxC0grVkQNqzYeXX63QK"><linearGradient id="_lgradient_61" x1="49.09393381421649%" y1="-25.35852729706891%" x2="49.66518522041243%" y2="122.54964331698079%"><stop offset="1.7391304347826086%" stop-opacity="1" style="stop-color:rgb(86,110,242)"/><stop offset="98.69565217391305%" stop-opacity="1" style="stop-color:rgb(64,76,147)"/></linearGradient><path d=" M 387.351 363.654 C 387.351 344.798 402.639 329.489 421.469 329.489 C 440.299 329.489 455.587 344.798 455.587 363.654 C 455.587 382.51 440.299 397.818 421.469 397.818 C 402.639 397.818 387.351 382.51 387.351 363.654 Z " fill="url(#_lgradient_61)" vector-effect="non-scaling-stroke" stroke-width="2" stroke="rgb(29,41,47)" stroke-linejoin="miter" stroke-linecap="square" stroke-miterlimit="3"/></clipPath><g clip-path="url(#_clipPath_Am81wNE9B9vVzxC0grVkQNqzYeXX63QK)"><path d=" M 398.308 362.104 C 399.539 353.999 404.316 346.514 411.961 342.1 C 416.664 339.384 421.832 338.19 426.891 338.368" fill="none" vector-effect="non-scaling-stroke" stroke-width="2.985" stroke="rgb(255,255,255)" stroke-opacity="0.26" stroke-linejoin="round" stroke-linecap="round" stroke-miterlimit="3"/></g></g><g id="Small nodes"><linearGradient id="_lgradient_62" x1="-3.9272112161603165%" y1="-2.64584012781762%" x2="101.06359496101459%" y2="101.5370945631903%"><stop offset="1.7391304347826086%" stop-opacity="1" style="stop-color:rgb(86,110,242)"/><stop offset="99.1304347826087%" stop-opacity="1" style="stop-color:rgb(47,60,130)"/></linearGradient><path d=" M 156.226 321.474 C 153.542 312.708 158.47 303.411 167.224 300.724 C 175.977 298.036 185.262 302.971 187.945 311.736 C 190.629 320.502 185.701 329.799 176.947 332.486 C 168.194 335.174 158.909 330.239 156.226 321.474 Z " fill="url(#_lgradient_62)" vector-effect="non-scaling-stroke" stroke-width="2" stroke="rgb(29,41,47)" stroke-linejoin="miter" stroke-linecap="square" stroke-miterlimit="3"/><clipPath id="_clipPath_LXDZiRPgkUrfBrVFPMBJXmDaPjofhUBo"><linearGradient id="_lgradient_62" x1="-3.9272112161603165%" y1="-2.64584012781762%" x2="101.06359496101459%" y2="101.5370945631903%"><stop offset="1.7391304347826086%" stop-opacity="1" style="stop-color:rgb(86,110,242)"/><stop offset="99.1304347826087%" stop-opacity="1" style="stop-color:rgb(47,60,130)"/></linearGradient><path d=" M 156.226 321.474 C 153.542 312.708 158.47 303.411 167.224 300.724 C 175.977 298.036 185.262 302.971 187.945 311.736 C 190.629 320.502 185.701 329.799 176.947 332.486 C 168.194 335.174 158.909 330.239 156.226 321.474 Z " fill="url(#_lgradient_62)" vector-effect="non-scaling-stroke" stroke-width="2" stroke="rgb(29,41,47)" stroke-linejoin="miter" stroke-linecap="square" stroke-miterlimit="3"/></clipPath><g clip-path="url(#_clipPath_LXDZiRPgkUrfBrVFPMBJXmDaPjofhUBo)"><path d=" M 160.761 315.8 C 161.278 312.398 163.284 309.255 166.493 307.402 C 168.468 306.262 170.637 305.761 172.761 305.836" fill="none" vector-effect="non-scaling-stroke" stroke-width="1.253" stroke="rgb(255,255,255)" stroke-opacity="0.26" stroke-linejoin="round" stroke-linecap="round" stroke-miterlimit="3"/></g><linearGradient id="_lgradient_63" x1="-3.9272112161603165%" y1="-2.64584012781762%" x2="101.06359496101459%" y2="101.5370945631903%"><stop offset="1.7391304347826086%" stop-opacity="1" style="stop-color:rgb(86,110,242)"/><stop offset="99.1304347826087%" stop-opacity="1" style="stop-color:rgb(47,60,130)"/></linearGradient><path d=" M 323.842 320.893 C 321.159 312.128 326.087 302.83 334.84 300.143 C 343.593 297.456 352.878 302.39 355.561 311.156 C 358.245 319.921 353.317 329.219 344.564 331.906 C 335.81 334.593 326.525 329.658 323.842 320.893 Z " fill="url(#_lgradient_63)" vector-effect="non-scaling-stroke" stroke-width="2" stroke="rgb(29,41,47)" stroke-linejoin="miter" stroke-linecap="square" stroke-miterlimit="3"/><clipPath id="_clipPath_x1eeOD4FE9Gzy3df49dy4N3fyG9pXy25"><linearGradient id="_lgradient_63" x1="-3.9272112161603165%" y1="-2.64584012781762%" x2="101.06359496101459%" y2="101.5370945631903%"><stop offset="1.7391304347826086%" stop-opacity="1" style="stop-color:rgb(86,110,242)"/><stop offset="99.1304347826087%" stop-opacity="1" style="stop-color:rgb(47,60,130)"/></linearGradient><path d=" M 323.842 320.893 C 321.159 312.128 326.087 302.83 334.84 300.143 C 343.593 297.456 352.878 302.39 355.561 311.156 C 358.245 319.921 353.317 329.219 344.564 331.906 C 335.81 334.593 326.525 329.658 323.842 320.893 Z " fill="url(#_lgradient_63)" vector-effect="non-scaling-stroke" stroke-width="2" stroke="rgb(29,41,47)" stroke-linejoin="miter" stroke-linecap="square" stroke-miterlimit="3"/></clipPath><g clip-path="url(#_clipPath_x1eeOD4FE9Gzy3df49dy4N3fyG9pXy25)"><path d=" M 329.417 314.883 C 329.934 311.48 331.94 308.338 335.149 306.485 C 337.124 305.345 339.293 304.843 341.417 304.918" fill="none" vector-effect="non-scaling-stroke" stroke-width="1.253" stroke="rgb(255,255,255)" stroke-opacity="0.26" stroke-linejoin="round" stroke-linecap="round" stroke-miterlimit="3"/></g><linearGradient id="_lgradient_64" x1="-3.9272112161603165%" y1="-2.64584012781762%" x2="101.06359496101459%" y2="101.5370945631903%"><stop offset="1.7391304347826086%" stop-opacity="1" style="stop-color:rgb(86,110,242)"/><stop offset="99.1304347826087%" stop-opacity="1" style="stop-color:rgb(47,60,130)"/></linearGradient><path d=" M 239.445 178.777 C 236.762 170.011 241.69 160.714 250.443 158.027 C 259.196 155.339 268.481 160.274 271.165 169.039 C 273.848 177.805 268.92 187.102 260.167 189.789 C 251.414 192.477 242.128 187.542 239.445 178.777 Z " fill="url(#_lgradient_64)" vector-effect="non-scaling-stroke" stroke-width="2" stroke="rgb(29,41,47)" stroke-linejoin="miter" stroke-linecap="square" stroke-miterlimit="3"/><clipPath id="_clipPath_laVVc2hTEDrh5duE8Klzs3bLvtzkt5Ok"><linearGradient id="_lgradient_64" x1="-3.9272112161603165%" y1="-2.64584012781762%" x2="101.06359496101459%" y2="101.5370945631903%"><stop offset="1.7391304347826086%" stop-opacity="1" style="stop-color:rgb(86,110,242)"/><stop offset="99.1304347826087%" stop-opacity="1" style="stop-color:rgb(47,60,130)"/></linearGradient><path d=" M 239.445 178.777 C 236.762 170.011 241.69 160.714 250.443 158.027 C 259.196 155.339 268.481 160.274 271.165 169.039 C 273.848 177.805 268.92 187.102 260.167 189.789 C 251.414 192.477 242.128 187.542 239.445 178.777 Z " fill="url(#_lgradient_64)" vector-effect="non-scaling-stroke" stroke-width="2" stroke="rgb(29,41,47)" stroke-linejoin="miter" stroke-linecap="square" stroke-miterlimit="3"/></clipPath><g clip-path="url(#_clipPath_laVVc2hTEDrh5duE8Klzs3bLvtzkt5Ok)"><path d=" M 244.465 172.469 C 244.982 169.066 246.988 165.924 250.197 164.071 C 252.172 162.931 254.341 162.43 256.465 162.504" fill="none" vector-effect="non-scaling-stroke" stroke-width="1.253" stroke="rgb(255,255,255)" stroke-opacity="0.26" stroke-linejoin="round" stroke-linecap="round" stroke-miterlimit="3"/></g></g></g><g id="Shadow"><path d=" M 453.61 172.414 Q 453.476 169.489 452.739 165.958 Q 439.795 195.711 412.94 204.083 C 420.135 206.025 429.578 206.504 439.556 199.988 C 442.391 198.057 444.37 196.126 446.566 193.607 C 451.54 187.273 453.794 180.508 453.61 172.414 Z " fill="rgb(55,71,79)" fill-opacity="0.3"/><path d=" M 453.614 362.334 Q 453.48 359.409 452.743 355.879 Q 439.799 385.631 412.944 394.003 C 420.139 395.945 429.582 396.425 439.56 389.909 C 442.395 387.977 444.374 386.046 446.57 383.527 C 451.544 377.194 453.798 370.428 453.614 362.334 Z " fill="rgb(55,71,79)" fill-opacity="0.3"/><path d=" M 355.25 314.802 Q 355.183 313.324 354.81 311.54 Q 348.269 326.575 334.698 330.806 C 338.334 331.788 343.106 332.03 348.148 328.737 C 349.58 327.761 350.581 326.785 351.691 325.512 C 354.204 322.311 355.343 318.893 355.25 314.802 Z " fill="rgb(55,71,79)" fill-opacity="0.3"/><path d=" M 187.657 315.639 Q 187.59 314.161 187.217 312.377 Q 180.676 327.412 167.105 331.643 C 170.741 332.625 175.513 332.867 180.556 329.574 C 181.988 328.598 182.988 327.622 184.098 326.349 C 186.611 323.148 187.751 319.73 187.657 315.639 Z " fill="rgb(55,71,79)" fill-opacity="0.3"/><path d=" M 270.409 172.509 Q 270.341 171.03 269.969 169.246 Q 263.428 184.282 249.856 188.513 C 253.492 189.494 258.264 189.736 263.307 186.443 C 264.739 185.467 265.739 184.492 266.85 183.219 C 269.363 180.018 270.502 176.599 270.409 172.509 Z " fill="rgb(55,71,79)" fill-opacity="0.3"/><path d=" M 261.157 489.658 C 255.902 490.53 251.059 489.898 246.95 488.789 C 252.078 487.19 256.826 485.007 261.157 482.183 L 261.157 489.658 L 261.157 489.658 Z " fill="rgb(55,71,79)" fill-opacity="0.3"/><path d=" M 261.157 489.658 C 265.106 488.996 269.287 487.489 273.567 484.694 C 276.401 482.763 278.38 480.832 280.577 478.313 C 285.55 471.979 287.805 465.214 287.62 457.119 Q 287.487 454.194 286.749 450.664 Q 277.513 471.894 261.157 482.183 L 261.157 489.658 L 261.157 489.658 Z " fill="rgb(55,71,79)" fill-opacity="0.3"/><path d=" M 121.78 362.253 Q 121.647 359.328 120.909 355.798 Q 107.965 385.55 81.11 393.923 C 88.305 395.865 97.748 396.344 107.727 389.828 C 110.561 387.897 112.54 385.965 114.737 383.446 C 119.71 377.113 121.965 370.348 121.78 362.253 Z " fill="rgb(55,71,79)" fill-opacity="0.3"/><path d=" M 121.825 172.29 Q 121.691 169.365 120.954 165.835 Q 108.01 195.587 81.155 203.959 C 88.35 205.901 97.793 206.38 107.771 199.865 C 110.605 197.933 112.584 196.002 114.781 193.483 C 119.755 187.15 122.009 180.384 121.825 172.29 Z " fill="rgb(55,71,79)" fill-opacity="0.3"/><path d=" M 287.673 77.468 Q 287.539 74.543 286.802 71.013 Q 273.858 100.765 247.003 109.137 C 254.198 111.079 263.641 111.559 273.619 105.043 C 276.453 103.112 278.432 101.18 280.629 98.661 C 285.603 92.328 287.857 85.563 287.673 77.468 Z " fill="rgb(55,71,79)" fill-opacity="0.3"/><path d=" M 452.78 362.253 Q 452.647 359.328 451.909 355.798 Q 438.965 385.55 412.11 393.923 C 419.305 395.865 428.748 396.344 438.727 389.828 C 441.561 387.897 443.54 385.965 445.737 383.446 C 450.71 377.113 452.965 370.348 452.78 362.253 Z " fill="rgb(55,71,79)" fill-opacity="0.3"/></g></g></g></svg>