<?xml version="1.0" standalone="no"?><!-- Generator: Gravit.io --><svg xmlns="http://www.w3.org/2000/svg" xmlns:xlink="http://www.w3.org/1999/xlink" style="isolation:isolate" viewBox="16 16 480 480" width="480" height="480"><g style="isolation:isolate" id="file-sharing-illustration"><rect x="16" y="16" width="480" height="480" transform="matrix(1,0,0,1,0,0)" fill="none"/><g id="Ground"><line x1="70.237" y1="494.504" x2="418.199" y2="494.504" vector-effect="non-scaling-stroke" stroke-width="2.985" stroke="rgb(29,41,47)" stroke-linejoin="round" stroke-linecap="round" stroke-miterlimit="3"/><line x1="425.792" y1="494.504" x2="451.318" y2="494.504" vector-effect="non-scaling-stroke" stroke-width="2.985" stroke="rgb(29,41,47)" stroke-linejoin="round" stroke-linecap="round" stroke-miterlimit="3"/><line x1="60.682" y1="494.504" x2="64.682" y2="494.504" vector-effect="non-scaling-stroke" stroke-width="3" stroke="rgb(29,41,47)" stroke-linejoin="round" stroke-linecap="round" stroke-miterlimit="3"/></g><linearGradient id="_lgradient_62" x1="-3.9272112161603165%" y1="-2.64584012781762%" x2="101.06359496101459%" y2="101.5370945631903%"><stop offset="1.7391304347826086%" stop-opacity="1" style="stop-color:rgb(86,110,242)"/><stop offset="99.1304347826087%" stop-opacity="1" style="stop-color:rgb(47,60,130)"/></linearGradient><path d=" M 255.261 143.616 L 95.649 245.96 Q 95.649 463.444 95.649 473.185 C 95.649 482.925 102.3 492.767 115.231 492.767 C 128.163 492.767 384.837 492.767 396.769 492.767 C 408.701 492.767 416.351 485.008 416.351 473.185 Q 416.351 461.362 416.351 245.221 L 255.261 143.616 Z " fill="url(#_lgradient_62)" vector-effect="non-scaling-stroke" stroke-width="2" stroke="rgb(29,41,47)" stroke-linejoin="round" stroke-linecap="round" stroke-miterlimit="3"/><clipPath id="_clipPath_aNCM5cpomZhvm0MuKNZEDMjU0OZTATZS"><linearGradient id="_lgradient_62" x1="-3.9272112161603165%" y1="-2.64584012781762%" x2="101.06359496101459%" y2="101.5370945631903%"><stop offset="1.7391304347826086%" stop-opacity="1" style="stop-color:rgb(86,110,242)"/><stop offset="99.1304347826087%" stop-opacity="1" style="stop-color:rgb(47,60,130)"/></linearGradient><path d=" M 255.261 143.616 L 95.649 245.96 Q 95.649 463.444 95.649 473.185 C 95.649 482.925 102.3 492.767 115.231 492.767 C 128.163 492.767 384.837 492.767 396.769 492.767 C 408.701 492.767 416.351 485.008 416.351 473.185 Q 416.351 461.362 416.351 245.221 L 255.261 143.616 Z " fill="url(#_lgradient_62)" vector-effect="non-scaling-stroke" stroke-width="2" stroke="rgb(29,41,47)" stroke-linejoin="round" stroke-linecap="round" stroke-miterlimit="3"/></clipPath><g clip-path="url(#_clipPath_aNCM5cpomZhvm0MuKNZEDMjU0OZTATZS)"><path d=" M 95.734 259.611 L 256 157.287 L 416.72 260.739 L 416.72 244.851 L 255.42 143.728 L 95.649 245.59 L 95.734 259.611 Z " fill="rgb(62,64,74)"/><rect x="150.97" y="205.367" width="209.233" height="187.607" transform="matrix(1,0,0,1,0,0)" fill="rgb(255,255,255)"/><clipPath id="_clipPath_12T53iLxvcbusaJle6l9mggeEuBQCjHq"><rect x="150.97" y="205.367" width="209.233" height="187.607" transform="matrix(1,0,0,1,0,0)" fill="rgb(255,255,255)"/></clipPath><g clip-path="url(#_clipPath_12T53iLxvcbusaJle6l9mggeEuBQCjHq)"><defs><filter id="WzA8Zf5HAMpt2sRN3UON7IYaTBRxZqVm" x="-200%" y="-200%" width="400%" height="400%"><feOffset xmlns="http://www.w3.org/2000/svg" in="SourceAlpha" result="offOut" dx="0" dy="2"/><feGaussianBlur xmlns="http://www.w3.org/2000/svg" in="offOut" result="blurOut" stdDeviation="2"/><feComponentTransfer xmlns="http://www.w3.org/2000/svg" in="blurOut" result="opacOut"><feFuncA xmlns="http://www.w3.org/2000/svg" type="table" tableValues="0 0.5"/></feComponentTransfer><feBlend xmlns="http://www.w3.org/2000/svg" in="SourceGraphic" in2="opacOut" mode="normal"/></filter></defs><g filter="url(#WzA8Zf5HAMpt2sRN3UON7IYaTBRxZqVm)"><path d="M 187.554 244.295 L 324.554 244.295 C 328.142 244.295 331.054 246.759 331.054 249.795 L 331.054 249.795 C 331.054 252.83 328.142 255.295 324.554 255.295 L 187.554 255.295 C 183.967 255.295 181.054 252.83 181.054 249.795 L 181.054 249.795 C 181.054 246.759 183.967 244.295 187.554 244.295 Z" style="stroke:none;fill:#1D292F;stroke-miterlimit:10;"/><clipPath id="_clipPath_ffKeRff96Rt61WwEonpknW3gghbL2IBz"><g filter="url(#WzA8Zf5HAMpt2sRN3UON7IYaTBRxZqVm)"><path d="M 187.554 244.295 L 324.554 244.295 C 328.142 244.295 331.054 246.759 331.054 249.795 L 331.054 249.795 C 331.054 252.83 328.142 255.295 324.554 255.295 L 187.554 255.295 C 183.967 255.295 181.054 252.83 181.054 249.795 L 181.054 249.795 C 181.054 246.759 183.967 244.295 187.554 244.295 Z" style="stroke:black;fill:white;stroke-miterlimit:10;"/></g></clipPath><g clip-path="url(#_clipPath_ffKeRff96Rt61WwEonpknW3gghbL2IBz)"><path d=" M 330.423 247.725 C 329.402 251.007 325.51 253.519 318.716 255.232 Q 307.624 258.029 319.163 263.275 L 339.539 256.662 L 330.423 247.725 Z " fill="rgb(0,0,0)" fill-opacity="0.2"/><path d=" M 187.774 245.688 C 183.837 245.875 182.087 248.125 182.878 250.943" fill="none" vector-effect="non-scaling-stroke" stroke-width="1" stroke="rgb(255,255,255)" stroke-opacity="0.26" stroke-linejoin="round" stroke-linecap="round" stroke-miterlimit="3"/></g></g><defs><filter id="kVT30MXPbfjS4iIukXmJstqNpGk9olr4" x="-200%" y="-200%" width="400%" height="400%"><feOffset xmlns="http://www.w3.org/2000/svg" in="SourceAlpha" result="offOut" dx="0" dy="2"/><feGaussianBlur xmlns="http://www.w3.org/2000/svg" in="offOut" result="blurOut" stdDeviation="2"/><feComponentTransfer xmlns="http://www.w3.org/2000/svg" in="blurOut" result="opacOut"><feFuncA xmlns="http://www.w3.org/2000/svg" type="table" tableValues="0 0.5"/></feComponentTransfer><feBlend xmlns="http://www.w3.org/2000/svg" in="SourceGraphic" in2="opacOut" mode="normal"/></filter></defs><g filter="url(#kVT30MXPbfjS4iIukXmJstqNpGk9olr4)"><path d="M 184.841 283.952 L 326.328 283.952 C 327.97 283.952 329.302 285.285 329.302 286.926 L 329.302 286.978 C 329.302 288.619 327.97 289.952 326.328 289.952 L 184.841 289.952 C 183.2 289.952 181.867 288.619 181.867 286.978 L 181.867 286.926 C 181.867 285.285 183.2 283.952 184.841 283.952 Z" style="stroke:none;fill:#1D292F;stroke-miterlimit:10;"/><clipPath id="_clipPath_j310oV21EvkoJpI1lpAlJrMhYdGYdSK0"><g filter="url(#kVT30MXPbfjS4iIukXmJstqNpGk9olr4)"><path d="M 184.841 283.952 L 326.328 283.952 C 327.97 283.952 329.302 285.285 329.302 286.926 L 329.302 286.978 C 329.302 288.619 327.97 289.952 326.328 289.952 L 184.841 289.952 C 183.2 289.952 181.867 288.619 181.867 286.978 L 181.867 286.926 C 181.867 285.285 183.2 283.952 184.841 283.952 Z" style="stroke:black;fill:white;stroke-miterlimit:10;"/></g></clipPath><g clip-path="url(#_clipPath_j310oV21EvkoJpI1lpAlJrMhYdGYdSK0)"><path d=" M 328.423 284.177 C 327.402 287.459 326.612 287.992 319.818 289.705 Q 308.726 292.502 317.163 299.727 L 337.539 293.114 L 328.423 284.177 Z " fill="rgb(0,0,0)" fill-opacity="0.2"/><path d=" M 185.384 285.195 C 183.886 285.267 183.116 286.615 183.417 287.687" fill="none" vector-effect="non-scaling-stroke" stroke-width="1" stroke="rgb(255,255,255)" stroke-opacity="0.26" stroke-linejoin="round" stroke-linecap="round" stroke-miterlimit="3"/></g></g><defs><filter id="FVZhX7L7TqrVOC0s6NBzGxLBoaOpmcHP" x="-200%" y="-200%" width="400%" height="400%"><feOffset xmlns="http://www.w3.org/2000/svg" in="SourceAlpha" result="offOut" dx="0" dy="2"/><feGaussianBlur xmlns="http://www.w3.org/2000/svg" in="offOut" result="blurOut" stdDeviation="2"/><feComponentTransfer xmlns="http://www.w3.org/2000/svg" in="blurOut" result="opacOut"><feFuncA xmlns="http://www.w3.org/2000/svg" type="table" tableValues="0 0.5"/></feComponentTransfer><feBlend xmlns="http://www.w3.org/2000/svg" in="SourceGraphic" in2="opacOut" mode="normal"/></filter></defs><g filter="url(#FVZhX7L7TqrVOC0s6NBzGxLBoaOpmcHP)"><path d="M 184.841 304.094 L 326.328 304.094 C 327.97 304.094 329.302 305.426 329.302 307.068 L 329.302 307.119 C 329.302 308.761 327.97 310.094 326.328 310.094 L 184.841 310.094 C 183.2 310.094 181.867 308.761 181.867 307.119 L 181.867 307.068 C 181.867 305.426 183.2 304.094 184.841 304.094 Z" style="stroke:none;fill:#1D292F;stroke-miterlimit:10;"/><clipPath id="_clipPath_gedhlD86zj2viXSZfI6hii7DMOq7rcYj"><g filter="url(#FVZhX7L7TqrVOC0s6NBzGxLBoaOpmcHP)"><path d="M 184.841 304.094 L 326.328 304.094 C 327.97 304.094 329.302 305.426 329.302 307.068 L 329.302 307.119 C 329.302 308.761 327.97 310.094 326.328 310.094 L 184.841 310.094 C 183.2 310.094 181.867 308.761 181.867 307.119 L 181.867 307.068 C 181.867 305.426 183.2 304.094 184.841 304.094 Z" style="stroke:black;fill:white;stroke-miterlimit:10;"/></g></clipPath><g clip-path="url(#_clipPath_gedhlD86zj2viXSZfI6hii7DMOq7rcYj)"><path d=" M 328.423 304.177 C 327.402 307.459 326.612 307.992 319.818 309.705 Q 308.726 312.502 317.163 319.727 L 337.539 313.114 L 328.423 304.177 Z " fill="rgb(0,0,0)" fill-opacity="0.2"/><path d=" M 185.236 305.344 C 183.738 305.415 182.968 306.763 183.269 307.836" fill="none" vector-effect="non-scaling-stroke" stroke-width="1" stroke="rgb(255,255,255)" stroke-opacity="0.26" stroke-linejoin="round" stroke-linecap="round" stroke-miterlimit="3"/></g></g><defs><filter id="t5lws766HR0Wzhnk7652a0c0aW8kbTv7" x="-200%" y="-200%" width="400%" height="400%"><feOffset xmlns="http://www.w3.org/2000/svg" in="SourceAlpha" result="offOut" dx="0" dy="2"/><feGaussianBlur xmlns="http://www.w3.org/2000/svg" in="offOut" result="blurOut" stdDeviation="2"/><feComponentTransfer xmlns="http://www.w3.org/2000/svg" in="blurOut" result="opacOut"><feFuncA xmlns="http://www.w3.org/2000/svg" type="table" tableValues="0 0.5"/></feComponentTransfer><feBlend xmlns="http://www.w3.org/2000/svg" in="SourceGraphic" in2="opacOut" mode="normal"/></filter></defs><g filter="url(#t5lws766HR0Wzhnk7652a0c0aW8kbTv7)"><path d="M 193.913 324.235 L 317.256 324.235 C 318.791 324.235 320.037 325.481 320.037 327.016 L 320.037 327.454 C 320.037 328.989 318.791 330.235 317.256 330.235 L 193.913 330.235 C 192.378 330.235 191.132 328.989 191.132 327.454 L 191.132 327.016 C 191.132 325.481 192.378 324.235 193.913 324.235 Z" style="stroke:none;fill:#1D292F;stroke-miterlimit:10;"/><clipPath id="_clipPath_9d0UYsAIjOOoUDCdumMSpoIcrnEZZHt4"><g filter="url(#t5lws766HR0Wzhnk7652a0c0aW8kbTv7)"><path d="M 193.913 324.235 L 317.256 324.235 C 318.791 324.235 320.037 325.481 320.037 327.016 L 320.037 327.454 C 320.037 328.989 318.791 330.235 317.256 330.235 L 193.913 330.235 C 192.378 330.235 191.132 328.989 191.132 327.454 L 191.132 327.016 C 191.132 325.481 192.378 324.235 193.913 324.235 Z" style="stroke:black;fill:white;stroke-miterlimit:10;"/></g></clipPath><g clip-path="url(#_clipPath_9d0UYsAIjOOoUDCdumMSpoIcrnEZZHt4)"><path d=" M 319.423 325.177 C 318.402 328.459 315.957 328.215 309.164 329.928 Q 298.072 332.725 308.163 340.727 L 328.539 334.114 L 319.423 325.177 Z " fill="rgb(0,0,0)" fill-opacity="0.2"/></g></g><defs><filter id="NyLCjw6W9tm3lKUt37xInByMeZwYFv7n" x="-200%" y="-200%" width="400%" height="400%"><feOffset xmlns="http://www.w3.org/2000/svg" in="SourceAlpha" result="offOut" dx="0" dy="2"/><feGaussianBlur xmlns="http://www.w3.org/2000/svg" in="offOut" result="blurOut" stdDeviation="2"/><feComponentTransfer xmlns="http://www.w3.org/2000/svg" in="blurOut" result="opacOut"><feFuncA xmlns="http://www.w3.org/2000/svg" type="table" tableValues="0 0.5"/></feComponentTransfer><feBlend xmlns="http://www.w3.org/2000/svg" in="SourceGraphic" in2="opacOut" mode="normal"/></filter></defs><g filter="url(#NyLCjw6W9tm3lKUt37xInByMeZwYFv7n)"><path d="M 185.036 344.376 L 325.931 344.376 C 327.569 344.376 328.899 345.706 328.899 347.345 L 328.899 347.408 C 328.899 349.046 327.569 350.376 325.931 350.376 L 185.036 350.376 C 183.398 350.376 182.068 349.046 182.068 347.408 L 182.068 347.345 C 182.068 345.706 183.398 344.376 185.036 344.376 Z" style="stroke:none;fill:#1D292F;stroke-miterlimit:10;"/><clipPath id="_clipPath_z4lfxtsy0NAVw2vFgazJQQ6jVu9NDGPm"><g filter="url(#NyLCjw6W9tm3lKUt37xInByMeZwYFv7n)"><path d="M 185.036 344.376 L 325.931 344.376 C 327.569 344.376 328.899 345.706 328.899 347.345 L 328.899 347.408 C 328.899 349.046 327.569 350.376 325.931 350.376 L 185.036 350.376 C 183.398 350.376 182.068 349.046 182.068 347.408 L 182.068 347.345 C 182.068 345.706 183.398 344.376 185.036 344.376 Z" style="stroke:black;fill:white;stroke-miterlimit:10;"/></g></clipPath><g clip-path="url(#_clipPath_z4lfxtsy0NAVw2vFgazJQQ6jVu9NDGPm)"><path d=" M 328.318 345.371 C 327.297 348.653 323.499 348.566 316.706 350.279 Q 305.613 353.076 316.163 360.727 L 336.539 354.114 L 328.318 345.371 Z " fill="rgb(0,0,0)" fill-opacity="0.2"/><path d=" M 185.483 345.553 C 183.985 345.624 183.215 346.973 183.516 348.045" fill="none" vector-effect="non-scaling-stroke" stroke-width="1" stroke="rgb(255,255,255)" stroke-opacity="0.26" stroke-linejoin="round" stroke-linecap="round" stroke-miterlimit="3"/></g></g><path d=" M 355.878 202.746 Q 356.959 290.872 341.28 387.649 Q 325.645 484.155 436.436 343.316 L 393.724 180.579 L 355.878 202.746 Z " fill="rgb(29,41,47)" fill-opacity="0.1"/></g><linearGradient id="_lgradient_63" x1="49.09393381421649%" y1="-25.35852729706891%" x2="49.66518522041243%" y2="122.54964331698079%"><stop offset="1.7391304347826086%" stop-opacity="1" style="stop-color:rgb(86,110,242)"/><stop offset="98.69565217391305%" stop-opacity="1" style="stop-color:rgb(64,76,147)"/></linearGradient><path d=" M 255.618 360.132 L 95.247 462.223 L 83.591 480.31 L 122.578 510.455 L 416.793 505.632 L 434.88 463.831 L 420.008 464.634 L 415.538 461.816 L 255.618 360.132 Z " fill="url(#_lgradient_63)" vector-effect="non-scaling-stroke" stroke-width="2" stroke="rgb(29,41,47)" stroke-linejoin="round" stroke-linecap="round" stroke-miterlimit="3"/><clipPath id="_clipPath_7mDCdVAZ5L1bxIW0X5nyhaBf4jGjMuk3"><linearGradient id="_lgradient_63" x1="49.09393381421649%" y1="-25.35852729706891%" x2="49.66518522041243%" y2="122.54964331698079%"><stop offset="1.7391304347826086%" stop-opacity="1" style="stop-color:rgb(86,110,242)"/><stop offset="98.69565217391305%" stop-opacity="1" style="stop-color:rgb(64,76,147)"/></linearGradient><path d=" M 255.618 360.132 L 95.247 462.223 L 83.591 480.31 L 122.578 510.455 L 416.793 505.632 L 434.88 463.831 L 420.008 464.634 L 415.538 461.816 L 255.618 360.132 Z " fill="url(#_lgradient_63)" vector-effect="non-scaling-stroke" stroke-width="2" stroke="rgb(29,41,47)" stroke-linejoin="round" stroke-linecap="round" stroke-miterlimit="3"/></clipPath><g clip-path="url(#_clipPath_7mDCdVAZ5L1bxIW0X5nyhaBf4jGjMuk3)"><line x1="254.776" y1="366.564" x2="198.007" y2="402.788" vector-effect="non-scaling-stroke" stroke-width="2" stroke="rgb(255,255,255)" stroke-opacity="0.26" stroke-linejoin="round" stroke-linecap="round" stroke-miterlimit="3"/></g><path d=" M 155.214 225.994 L 155.214 214.64 L 162.242 209.774 L 173.055 209.774" fill="none" vector-effect="non-scaling-stroke" stroke-width="2" stroke="rgb(29,41,47)" stroke-opacity="0.1" stroke-linejoin="round" stroke-linecap="round" stroke-miterlimit="3"/><linearGradient id="_lgradient_64" x1="-3.9272112161603165%" y1="-2.64584012781762%" x2="101.06359496101459%" y2="101.5370945631903%"><stop offset="1.7391304347826086%" stop-opacity="1" style="stop-color:rgb(86,110,242)"/><stop offset="99.1304347826087%" stop-opacity="1" style="stop-color:rgb(47,60,130)"/></linearGradient><path d=" M 219.229 383.29 L 95.587 303.26 L 95.831 461.86 L 219.229 383.29 Z " fill="url(#_lgradient_64)" vector-effect="non-scaling-stroke" stroke-width="2" stroke="rgb(29,41,47)" stroke-linejoin="round" stroke-linecap="round" stroke-miterlimit="3"/><linearGradient id="_lgradient_65" x1="-3.9272112161603165%" y1="-2.64584012781762%" x2="101.06359496101459%" y2="101.5370945631903%"><stop offset="1.7391304347826086%" stop-opacity="1" style="stop-color:rgb(86,110,242)"/><stop offset="99.1304347826087%" stop-opacity="1" style="stop-color:rgb(47,60,130)"/></linearGradient><path d=" M 292.509 383.58 L 416.486 303.258 L 416.441 462.375 L 292.509 383.58 Z " fill="url(#_lgradient_65)" vector-effect="non-scaling-stroke" stroke-width="2" stroke="rgb(29,41,47)" stroke-linejoin="round" stroke-linecap="round" stroke-miterlimit="3"/><clipPath id="_clipPath_eBNyUx4ykAq7iV48iPAoOYytcoaLblNC"><linearGradient id="_lgradient_65" x1="-3.9272112161603165%" y1="-2.64584012781762%" x2="101.06359496101459%" y2="101.5370945631903%"><stop offset="1.7391304347826086%" stop-opacity="1" style="stop-color:rgb(86,110,242)"/><stop offset="99.1304347826087%" stop-opacity="1" style="stop-color:rgb(47,60,130)"/></linearGradient><path d=" M 292.509 383.58 L 416.486 303.258 L 416.441 462.375 L 292.509 383.58 Z " fill="url(#_lgradient_65)" vector-effect="non-scaling-stroke" stroke-width="2" stroke="rgb(29,41,47)" stroke-linejoin="round" stroke-linecap="round" stroke-miterlimit="3"/></clipPath><g clip-path="url(#_clipPath_eBNyUx4ykAq7iV48iPAoOYytcoaLblNC)"><line x1="409.776" y1="313.564" x2="353.007" y2="349.788" vector-effect="non-scaling-stroke" stroke-width="2" stroke="rgb(255,255,255)" stroke-opacity="0.26" stroke-linejoin="round" stroke-linecap="round" stroke-miterlimit="3"/></g><line x1="250.203" y1="151.895" x2="181.247" y2="196.258" vector-effect="non-scaling-stroke" stroke-width="2" stroke="rgb(255,255,255)" stroke-opacity="0.1" stroke-linejoin="round" stroke-linecap="round" stroke-miterlimit="3"/></g></g></svg>