<?xml version="1.0" standalone="no"?><!-- Generator: Gravit.io --><svg xmlns="http://www.w3.org/2000/svg" xmlns:xlink="http://www.w3.org/1999/xlink" style="isolation:isolate" viewBox="16 16 480 480.004" width="480" height="480.004"><g style="isolation:isolate" id="free-libre-illustration"><rect x="16" y="16" width="480" height="480" transform="matrix(1,0,0,1,0,0)" fill="none"/><g id="Ground"><line x1="117.682" y1="494.504" x2="372.321" y2="494.504" vector-effect="non-scaling-stroke" stroke-width="2.985" stroke="rgb(29,41,47)" stroke-linejoin="round" stroke-linecap="round" stroke-miterlimit="3"/><line x1="379.792" y1="494.504" x2="405.318" y2="494.504" vector-effect="non-scaling-stroke" stroke-width="2.985" stroke="rgb(29,41,47)" stroke-linejoin="round" stroke-linecap="round" stroke-miterlimit="3"/><line x1="106.682" y1="494.504" x2="110.682" y2="494.504" vector-effect="non-scaling-stroke" stroke-width="3" stroke="rgb(29,41,47)" stroke-linejoin="round" stroke-linecap="round" stroke-miterlimit="3"/></g><mask id="_mask_JE6Ws2SRSICKSyn6dDF5lt5nD6xr58rG" x="-200%" y="-200%" width="400%" height="400%"><rect x="0" y="0" width="100%" height="100%" style="fill:white;"/><path d=" M 362.25 330.5 L 362.25 330.5 L 362.25 330.5 Q 362.25 369.5 339.75 393 L 339.75 393 L 339.75 393 Q 317.25 416.5 285.25 424 L 285.25 424 L 285.25 456 L 285.25 456 Q 285.25 473.5 282 480.5 L 282 480.5 L 282 480.5 Q 278.75 487.5 272.5 490 L 272.5 490 L 272.5 490 Q 266.25 492.5 255.75 492.5 L 255.75 492.5 L 255.75 492.5 Q 245.25 492.5 239 490 L 239 490 L 239 490 Q 232.75 487.5 230.25 481 L 230.25 481 L 230.25 481 Q 226.75 472.5 226.75 455.5 L 226.75 455.5 L 226.75 424.5 L 226.75 424.5 Q 206.25 420 189.75 409.5 L 189.75 409.5 L 189.75 409.5 Q 173.25 399 166.75 391 L 166.75 391 L 160.25 382.5 L 160.25 382.5 Q 149.75 369 149.75 359 L 149.75 359 L 149.75 359 Q 149.75 349 166.75 332.5 L 166.75 332.5 L 166.75 332.5 Q 176.75 323 188 323 L 188 323 L 188 323 Q 199.25 323 219.25 343 L 219.25 343 L 219.25 343 Q 234.75 362 254.25 362 L 254.25 362 L 254.25 362 Q 291.25 362 291.25 331.5 L 291.25 331.5 L 291.25 331.5 Q 291.25 320.5 277.25 314.5 L 277.25 314.5 L 277.25 314.5 Q 263.25 308.5 243.25 303.75 L 243.25 303.75 L 243.25 303.75 Q 223.25 299 203.25 291 L 203.25 291 L 203.25 291 Q 183.25 283 169.25 263.5 L 169.25 263.5 L 169.25 263.5 Q 155.25 244 155.25 214 L 155.25 214 L 155.25 214 Q 155.25 184 174.25 160 L 174.25 160 L 174.25 160 Q 193.25 136 226.75 129 L 226.75 129 L 226.75 101 L 226.75 101 Q 226.75 84 229.75 76.5 L 229.75 76.5 L 229.75 76.5 Q 234.75 64.5 256.25 64.5 L 256.25 64.5 L 256.25 64.5 Q 269.75 64.5 276.5 70.25 L 276.5 70.25 L 276.5 70.25 Q 283.25 76 284.25 82.5 L 284.25 82.5 L 284.25 82.5 Q 285.25 89 285.25 101.5 L 285.25 101.5 L 285.25 129.5 L 285.25 129.5 Q 299.25 132.5 310.75 138 L 310.75 138 L 310.75 138 Q 322.25 143.5 326.75 147 L 326.75 147 L 331.25 151 L 333.25 152.5 L 333.25 152.5 Q 345.75 164 345.75 171.5 L 345.75 171.5 L 345.75 171.5 Q 345.75 179 334 196.5 L 334 196.5 L 334 196.5 Q 322.25 214 308.25 214 L 308.25 214 L 308.25 214 Q 299.25 214 293 209.5 L 293 209.5 L 293 209.5 Q 286.75 205 283.25 202 L 283.25 202 L 283.25 202 Q 279.75 199 276.75 197 L 276.75 197 L 276.75 197 Q 268.25 191.5 255.25 191.5 L 255.25 191.5 L 255.25 191.5 Q 242.25 191.5 233.75 197.75 L 233.75 197.75 L 233.75 197.75 Q 225.25 204 225.25 215 L 225.25 215 L 225.25 215 Q 225.25 226 235.5 232.75 L 235.5 232.75 L 235.5 232.75 Q 245.75 239.5 260.75 241.75 L 260.75 241.75 L 260.75 241.75 Q 275.75 244 293.75 249.25 L 293.75 249.25 L 293.75 249.25 Q 311.75 254.5 326.75 261.5 L 326.75 261.5 L 326.75 261.5 Q 341.75 268.5 352 286.25 L 352 286.25 L 352 286.25 Q 362.25 304 362.25 330.5 Z " fill="black" stroke="none"/></mask><path d=" M 362.25 330.5 L 362.25 330.5 L 362.25 330.5 Q 362.25 369.5 339.75 393 L 339.75 393 L 339.75 393 Q 317.25 416.5 285.25 424 L 285.25 424 L 285.25 456 L 285.25 456 Q 285.25 473.5 282 480.5 L 282 480.5 L 282 480.5 Q 278.75 487.5 272.5 490 L 272.5 490 L 272.5 490 Q 266.25 492.5 255.75 492.5 L 255.75 492.5 L 255.75 492.5 Q 245.25 492.5 239 490 L 239 490 L 239 490 Q 232.75 487.5 230.25 481 L 230.25 481 L 230.25 481 Q 226.75 472.5 226.75 455.5 L 226.75 455.5 L 226.75 424.5 L 226.75 424.5 Q 206.25 420 189.75 409.5 L 189.75 409.5 L 189.75 409.5 Q 173.25 399 166.75 391 L 166.75 391 L 160.25 382.5 L 160.25 382.5 Q 149.75 369 149.75 359 L 149.75 359 L 149.75 359 Q 149.75 349 166.75 332.5 L 166.75 332.5 L 166.75 332.5 Q 176.75 323 188 323 L 188 323 L 188 323 Q 199.25 323 219.25 343 L 219.25 343 L 219.25 343 Q 234.75 362 254.25 362 L 254.25 362 L 254.25 362 Q 291.25 362 291.25 331.5 L 291.25 331.5 L 291.25 331.5 Q 291.25 320.5 277.25 314.5 L 277.25 314.5 L 277.25 314.5 Q 263.25 308.5 243.25 303.75 L 243.25 303.75 L 243.25 303.75 Q 223.25 299 203.25 291 L 203.25 291 L 203.25 291 Q 183.25 283 169.25 263.5 L 169.25 263.5 L 169.25 263.5 Q 155.25 244 155.25 214 L 155.25 214 L 155.25 214 Q 155.25 184 174.25 160 L 174.25 160 L 174.25 160 Q 193.25 136 226.75 129 L 226.75 129 L 226.75 101 L 226.75 101 Q 226.75 84 229.75 76.5 L 229.75 76.5 L 229.75 76.5 Q 234.75 64.5 256.25 64.5 L 256.25 64.5 L 256.25 64.5 Q 269.75 64.5 276.5 70.25 L 276.5 70.25 L 276.5 70.25 Q 283.25 76 284.25 82.5 L 284.25 82.5 L 284.25 82.5 Q 285.25 89 285.25 101.5 L 285.25 101.5 L 285.25 129.5 L 285.25 129.5 Q 299.25 132.5 310.75 138 L 310.75 138 L 310.75 138 Q 322.25 143.5 326.75 147 L 326.75 147 L 331.25 151 L 333.25 152.5 L 333.25 152.5 Q 345.75 164 345.75 171.5 L 345.75 171.5 L 345.75 171.5 Q 345.75 179 334 196.5 L 334 196.5 L 334 196.5 Q 322.25 214 308.25 214 L 308.25 214 L 308.25 214 Q 299.25 214 293 209.5 L 293 209.5 L 293 209.5 Q 286.75 205 283.25 202 L 283.25 202 L 283.25 202 Q 279.75 199 276.75 197 L 276.75 197 L 276.75 197 Q 268.25 191.5 255.25 191.5 L 255.25 191.5 L 255.25 191.5 Q 242.25 191.5 233.75 197.75 L 233.75 197.75 L 233.75 197.75 Q 225.25 204 225.25 215 L 225.25 215 L 225.25 215 Q 225.25 226 235.5 232.75 L 235.5 232.75 L 235.5 232.75 Q 245.75 239.5 260.75 241.75 L 260.75 241.75 L 260.75 241.75 Q 275.75 244 293.75 249.25 L 293.75 249.25 L 293.75 249.25 Q 311.75 254.5 326.75 261.5 L 326.75 261.5 L 326.75 261.5 Q 341.75 268.5 352 286.25 L 352 286.25 L 352 286.25 Q 362.25 304 362.25 330.5 Z " fill="rgb(86,110,242)" mask="url(#_mask_JE6Ws2SRSICKSyn6dDF5lt5nD6xr58rG)" vector-effect="non-scaling-stroke" stroke-width="4" stroke="rgb(29,41,47)" stroke-linejoin="round" stroke-linecap="round" stroke-miterlimit="3"/><clipPath id="_clipPath_sXczczd7ITBaazaOJfGMZy7HxolOev7C"><path d=" M 362.25 330.5 L 362.25 330.5 L 362.25 330.5 Q 362.25 369.5 339.75 393 L 339.75 393 L 339.75 393 Q 317.25 416.5 285.25 424 L 285.25 424 L 285.25 456 L 285.25 456 Q 285.25 473.5 282 480.5 L 282 480.5 L 282 480.5 Q 278.75 487.5 272.5 490 L 272.5 490 L 272.5 490 Q 266.25 492.5 255.75 492.5 L 255.75 492.5 L 255.75 492.5 Q 245.25 492.5 239 490 L 239 490 L 239 490 Q 232.75 487.5 230.25 481 L 230.25 481 L 230.25 481 Q 226.75 472.5 226.75 455.5 L 226.75 455.5 L 226.75 424.5 L 226.75 424.5 Q 206.25 420 189.75 409.5 L 189.75 409.5 L 189.75 409.5 Q 173.25 399 166.75 391 L 166.75 391 L 160.25 382.5 L 160.25 382.5 Q 149.75 369 149.75 359 L 149.75 359 L 149.75 359 Q 149.75 349 166.75 332.5 L 166.75 332.5 L 166.75 332.5 Q 176.75 323 188 323 L 188 323 L 188 323 Q 199.25 323 219.25 343 L 219.25 343 L 219.25 343 Q 234.75 362 254.25 362 L 254.25 362 L 254.25 362 Q 291.25 362 291.25 331.5 L 291.25 331.5 L 291.25 331.5 Q 291.25 320.5 277.25 314.5 L 277.25 314.5 L 277.25 314.5 Q 263.25 308.5 243.25 303.75 L 243.25 303.75 L 243.25 303.75 Q 223.25 299 203.25 291 L 203.25 291 L 203.25 291 Q 183.25 283 169.25 263.5 L 169.25 263.5 L 169.25 263.5 Q 155.25 244 155.25 214 L 155.25 214 L 155.25 214 Q 155.25 184 174.25 160 L 174.25 160 L 174.25 160 Q 193.25 136 226.75 129 L 226.75 129 L 226.75 101 L 226.75 101 Q 226.75 84 229.75 76.5 L 229.75 76.5 L 229.75 76.5 Q 234.75 64.5 256.25 64.5 L 256.25 64.5 L 256.25 64.5 Q 269.75 64.5 276.5 70.25 L 276.5 70.25 L 276.5 70.25 Q 283.25 76 284.25 82.5 L 284.25 82.5 L 284.25 82.5 Q 285.25 89 285.25 101.5 L 285.25 101.5 L 285.25 129.5 L 285.25 129.5 Q 299.25 132.5 310.75 138 L 310.75 138 L 310.75 138 Q 322.25 143.5 326.75 147 L 326.75 147 L 331.25 151 L 333.25 152.5 L 333.25 152.5 Q 345.75 164 345.75 171.5 L 345.75 171.5 L 345.75 171.5 Q 345.75 179 334 196.5 L 334 196.5 L 334 196.5 Q 322.25 214 308.25 214 L 308.25 214 L 308.25 214 Q 299.25 214 293 209.5 L 293 209.5 L 293 209.5 Q 286.75 205 283.25 202 L 283.25 202 L 283.25 202 Q 279.75 199 276.75 197 L 276.75 197 L 276.75 197 Q 268.25 191.5 255.25 191.5 L 255.25 191.5 L 255.25 191.5 Q 242.25 191.5 233.75 197.75 L 233.75 197.75 L 233.75 197.75 Q 225.25 204 225.25 215 L 225.25 215 L 225.25 215 Q 225.25 226 235.5 232.75 L 235.5 232.75 L 235.5 232.75 Q 245.75 239.5 260.75 241.75 L 260.75 241.75 L 260.75 241.75 Q 275.75 244 293.75 249.25 L 293.75 249.25 L 293.75 249.25 Q 311.75 254.5 326.75 261.5 L 326.75 261.5 L 326.75 261.5 Q 341.75 268.5 352 286.25 L 352 286.25 L 352 286.25 Q 362.25 304 362.25 330.5 Z " fill="rgb(86,110,242)" mask="url(#_mask_JE6Ws2SRSICKSyn6dDF5lt5nD6xr58rG)" vector-effect="non-scaling-stroke" stroke-width="4" stroke="rgb(29,41,47)" stroke-linejoin="round" stroke-linecap="round" stroke-miterlimit="3"/></clipPath><g clip-path="url(#_clipPath_sXczczd7ITBaazaOJfGMZy7HxolOev7C)"><linearGradient id="_lgradient_65" x1="-3.9272112161603165%" y1="-2.64584012781762%" x2="101.06359496101459%" y2="101.5370945631903%"><stop offset="1.7391304347826086%" stop-opacity="1" style="stop-color:rgb(86,110,242)"/><stop offset="99.1304347826087%" stop-opacity="1" style="stop-color:rgb(47,60,130)"/></linearGradient><path d=" M 256 191.52 Q 268.501 191.662 276.75 197 L 276.75 197 L 276.75 197 Q 279.75 199 283.25 202 L 283.25 202 L 283.25 202 Q 286.75 205 293 209.5 L 293 209.5 L 293 209.5 Q 299.25 214 308.25 214 L 308.25 214 L 308.25 214 Q 322.25 214 334 196.5 L 334 196.5 L 334 196.5 Q 345.75 179 345.75 171.5 L 345.75 171.5 L 345.75 171.5 Q 345.75 164 333.25 152.5 L 333.25 152.5 L 331.25 151 L 326.75 147 L 326.75 147 Q 322.25 143.5 310.75 138 L 310.75 138 L 310.75 138 Q 299.25 132.5 285.25 129.5 L 285.25 129.5 L 285.25 101.5 L 285.25 101.5 Q 285.25 89 284.25 82.5 L 284.25 82.5 L 284.25 82.5 Q 283.25 76 276.5 70.25 L 276.5 70.25 L 276.5 70.25 Q 269.75 64.5 256.25 64.5 L 256.25 64.5 L 256.25 64.5 C 256.165 64.5 256.079 64.5 256 64.504 L 256 191.52 Z  M 256 361.977 L 256 492.496 Q 266.326 492.469 272.5 490 L 272.5 490 L 272.5 490 Q 278.75 487.5 282 480.5 L 282 480.5 L 282 480.5 Q 285.25 473.5 285.25 456 L 285.25 456 L 285.25 424 L 285.25 424 Q 317.25 416.5 339.75 393 L 339.75 393 L 339.75 393 Q 362.25 369.5 362.25 330.5 L 362.25 330.5 L 362.25 330.5 Q 362.25 304 352 286.25 L 352 286.25 L 352 286.25 Q 341.75 268.5 326.75 261.5 L 326.75 261.5 L 326.75 261.5 Q 311.75 254.5 293.75 249.25 L 293.75 249.25 L 293.75 249.25 Q 275.75 244 260.75 241.75 L 260.75 241.75 L 260.75 241.75 C 259.111 241.504 257.515 241.218 256 240.855 L 256 307.103 Q 267.968 310.522 277.25 314.5 L 277.25 314.5 L 277.25 314.5 Q 291.25 320.5 291.25 331.5 L 291.25 331.5 L 291.25 331.5 C 291.25 351.345 279.502 361.506 256 361.977 Z " fill-rule="evenodd" fill="url(#_lgradient_65)"/><clipPath id="_clipPath_4twDwEy7kK6nblhiXCBUaKL1Z9H1AR8f"><linearGradient id="_lgradient_65" x1="-3.9272112161603165%" y1="-2.64584012781762%" x2="101.06359496101459%" y2="101.5370945631903%"><stop offset="1.7391304347826086%" stop-opacity="1" style="stop-color:rgb(86,110,242)"/><stop offset="99.1304347826087%" stop-opacity="1" style="stop-color:rgb(47,60,130)"/></linearGradient><path d=" M 256 191.52 Q 268.501 191.662 276.75 197 L 276.75 197 L 276.75 197 Q 279.75 199 283.25 202 L 283.25 202 L 283.25 202 Q 286.75 205 293 209.5 L 293 209.5 L 293 209.5 Q 299.25 214 308.25 214 L 308.25 214 L 308.25 214 Q 322.25 214 334 196.5 L 334 196.5 L 334 196.5 Q 345.75 179 345.75 171.5 L 345.75 171.5 L 345.75 171.5 Q 345.75 164 333.25 152.5 L 333.25 152.5 L 331.25 151 L 326.75 147 L 326.75 147 Q 322.25 143.5 310.75 138 L 310.75 138 L 310.75 138 Q 299.25 132.5 285.25 129.5 L 285.25 129.5 L 285.25 101.5 L 285.25 101.5 Q 285.25 89 284.25 82.5 L 284.25 82.5 L 284.25 82.5 Q 283.25 76 276.5 70.25 L 276.5 70.25 L 276.5 70.25 Q 269.75 64.5 256.25 64.5 L 256.25 64.5 L 256.25 64.5 C 256.165 64.5 256.079 64.5 256 64.504 L 256 191.52 Z  M 256 361.977 L 256 492.496 Q 266.326 492.469 272.5 490 L 272.5 490 L 272.5 490 Q 278.75 487.5 282 480.5 L 282 480.5 L 282 480.5 Q 285.25 473.5 285.25 456 L 285.25 456 L 285.25 424 L 285.25 424 Q 317.25 416.5 339.75 393 L 339.75 393 L 339.75 393 Q 362.25 369.5 362.25 330.5 L 362.25 330.5 L 362.25 330.5 Q 362.25 304 352 286.25 L 352 286.25 L 352 286.25 Q 341.75 268.5 326.75 261.5 L 326.75 261.5 L 326.75 261.5 Q 311.75 254.5 293.75 249.25 L 293.75 249.25 L 293.75 249.25 Q 275.75 244 260.75 241.75 L 260.75 241.75 L 260.75 241.75 C 259.111 241.504 257.515 241.218 256 240.855 L 256 307.103 Q 267.968 310.522 277.25 314.5 L 277.25 314.5 L 277.25 314.5 Q 291.25 320.5 291.25 331.5 L 291.25 331.5 L 291.25 331.5 C 291.25 351.345 279.502 361.506 256 361.977 Z " fill-rule="evenodd" fill="url(#_lgradient_65)"/></clipPath><g clip-path="url(#_clipPath_4twDwEy7kK6nblhiXCBUaKL1Z9H1AR8f)"><path d=" M 361.213 335.22 Q 306.955 405.047 256 409.25 Q 256.256 452.195 256.256 495.808 L 349 546 L 414 412 Q 415 266 361.213 335.22 Z " fill="rgb(29,41,47)" fill-opacity="0.2"/></g><path d=" M 256 240.855 L 256 307.103 C 252.009 305.932 247.743 304.817 243.25 303.75 L 243.25 303.75 L 243.25 303.75 Q 223.25 299 203.25 291 L 203.25 291 L 203.25 291 Q 183.25 283 169.25 263.5 L 169.25 263.5 L 169.25 263.5 Q 155.25 244 155.25 214 L 155.25 214 L 155.25 214 Q 155.25 184 174.25 160 L 174.25 160 L 174.25 160 Q 193.25 136 226.75 129 L 226.75 129 L 226.75 101 L 226.75 101 Q 226.75 84 229.75 76.5 L 229.75 76.5 L 229.75 76.5 Q 234.72 64.571 256 64.504 L 256 191.52 C 255.76 191.502 255.506 191.5 255.25 191.5 L 255.25 191.5 L 255.25 191.5 Q 242.25 191.5 233.75 197.75 L 233.75 197.75 L 233.75 197.75 Q 225.25 204 225.25 215 L 225.25 215 L 225.25 215 Q 225.25 226 235.5 232.75 L 235.5 232.75 L 235.5 232.75 Q 244.07 238.394 256 240.855 Z  M 256 492.496 C 255.921 492.5 255.835 492.5 255.75 492.5 L 255.75 492.5 L 255.75 492.5 Q 245.25 492.5 239 490 L 239 490 L 239 490 Q 232.75 487.5 230.25 481 L 230.25 481 L 230.25 481 Q 226.75 472.5 226.75 455.5 L 226.75 455.5 L 226.75 424.5 L 226.75 424.5 Q 206.25 420 189.75 409.5 L 189.75 409.5 L 189.75 409.5 Q 173.25 399 166.75 391 L 166.75 391 L 160.25 382.5 L 160.25 382.5 Q 149.75 369 149.75 359 L 149.75 359 L 149.75 359 Q 149.75 349 166.75 332.5 L 166.75 332.5 L 166.75 332.5 Q 176.75 323 188 323 L 188 323 L 188 323 Q 199.25 323 219.25 343 L 219.25 343 L 219.25 343 Q 234.75 362 254.25 362 L 254.25 362 L 254.25 362 Q 255.139 362 256 361.977 L 256 492.496 Z " fill-rule="evenodd" fill="rgb(86,110,242)"/><path d=" M 172.129 184 C 178.979 167.459 192.33 154.294 209 147.702" fill="none" vector-effect="non-scaling-stroke" stroke-width="4" stroke="rgb(255,255,255)" stroke-opacity="0.26" stroke-linejoin="round" stroke-linecap="round" stroke-miterlimit="3"/></g><defs><linearGradient id="_lgradient_66" x1="0.4909393381421649" y1="-0.2535852729706891" x2="0.49665185220412433" y2="1.225496433169808"><stop offset="1.7391304347826086%" style="stop-color:#566EF2"/><stop offset="98.69565217391305%" style="stop-color:#404C93"/></linearGradient></defs><path d="M 346 100.991 L 346 100.991 C 354.842 106.096 357.877 117.42 352.771 126.263 L 177.271 430.237 C 172.166 439.08 160.842 442.114 152 437.009 L 152 437.009 C 143.158 431.904 140.123 420.58 145.229 411.737 L 320.729 107.763 C 325.834 98.92 337.158 95.886 346 100.991 Z" style="stroke:none;fill:url(#_lgradient_66);stroke-miterlimit:10;"/><path d="M 346 100.991 L 346 100.991 C 354.842 106.096 357.877 117.42 352.771 126.263 L 177.271 430.237 C 172.166 439.08 160.842 442.114 152 437.009 L 152 437.009 C 143.158 431.904 140.123 420.58 145.229 411.737 L 320.729 107.763 C 325.834 98.92 337.158 95.886 346 100.991 Z" style="fill:none;stroke:#2D334B;stroke-width:2;stroke-linecap:square;stroke-miterlimit:3;"/><clipPath id="_clipPath_dQeTTNDYxZc94nRgEF3eR0TqjNTnfcls"><path d="M 346 100.991 L 346 100.991 C 354.842 106.096 357.877 117.42 352.771 126.263 L 177.271 430.237 C 172.166 439.08 160.842 442.114 152 437.009 L 152 437.009 C 143.158 431.904 140.123 420.58 145.229 411.737 L 320.729 107.763 C 325.834 98.92 337.158 95.886 346 100.991 Z" style="stroke:black;fill:white;stroke-miterlimit:10;"/><path d="M 346 100.991 L 346 100.991 C 354.842 106.096 357.877 117.42 352.771 126.263 L 177.271 430.237 C 172.166 439.08 160.842 442.114 152 437.009 L 152 437.009 C 143.158 431.904 140.123 420.58 145.229 411.737 L 320.729 107.763 C 325.834 98.92 337.158 95.886 346 100.991 Z" style="fill:white;stroke:black;stroke-width:2;stroke-linecap:square;stroke-miterlimit:3;"/></clipPath><g clip-path="url(#_clipPath_dQeTTNDYxZc94nRgEF3eR0TqjNTnfcls)"><path d=" M 225 346 L 142 434 L 167 461 L 222 412 L 225 346 Z " fill="rgb(29,41,47)" fill-opacity="0.2"/><line x1="326.568" y1="115.287" x2="293.723" y2="172.061" vector-effect="non-scaling-stroke" stroke-width="4" stroke="rgb(255,255,255)" stroke-opacity="0.26" stroke-linejoin="round" stroke-linecap="round" stroke-miterlimit="3"/></g><g id="Texts"><linearGradient id="_lgradient_67" x1="49.09393381421649%" y1="-25.35852729706891%" x2="49.66518522041243%" y2="122.54964331698079%"><stop offset="1.7391304347826086%" stop-opacity="1" style="stop-color:rgb(86,110,242)"/><stop offset="98.69565217391305%" stop-opacity="1" style="stop-color:rgb(64,76,147)"/></linearGradient><path d=" M 55.777 319.439 L 59.084 317.341 L 59.084 317.341 Q 62.769 315.454 64.449 317.156 L 64.449 317.156 L 64.449 317.156 Q 65.289 318.006 66.137 319.662 L 66.137 319.662 L 66.137 319.662 Q 66.985 321.318 67.144 322.483 L 67.144 322.483 L 67.144 322.483 Q 67.302 323.649 66.773 324.459 L 66.773 324.459 L 66.773 324.459 Q 65.98 325.674 63.844 326.768 L 63.844 326.768 L 60.316 328.305 L 67.645 342.618 L 67.645 342.618 Q 68.684 344.647 68.682 345.895 L 68.682 345.895 L 68.682 345.895 Q 68.681 347.143 67.804 347.996 L 67.804 347.996 L 67.804 347.996 Q 66.926 348.85 65.271 349.698 L 65.271 349.698 L 65.271 349.698 Q 63.615 350.545 62.449 350.704 L 62.449 350.704 L 62.449 350.704 Q 61.283 350.863 60.46 350.307 L 60.46 350.307 L 60.46 350.307 Q 59.636 349.752 59.228 349.152 L 59.228 349.152 L 59.228 349.152 Q 58.819 348.552 58.191 347.323 L 58.191 347.323 L 50.944 333.171 L 49.022 334.155 L 49.022 334.155 Q 47.578 334.759 46.717 334.526 L 46.717 334.526 L 46.717 334.526 Q 45.183 334.031 43.706 331.147 L 43.706 331.147 L 43.706 331.147 Q 41.464 326.768 44.615 325.154 L 44.615 325.154 L 46.378 324.252 L 44.928 321.421 L 44.928 321.421 Q 42.823 317.309 44.051 312.467 L 44.051 312.467 L 44.051 312.467 Q 45.279 307.625 50.834 304.781 L 50.834 304.781 L 50.834 304.781 Q 52.062 304.152 52.717 303.918 L 52.717 303.918 L 52.717 303.918 Q 53.372 303.684 54.392 303.701 L 54.392 303.701 L 54.392 303.701 Q 56.19 303.657 57.94 307.075 L 57.94 307.075 L 57.94 307.075 Q 59.252 309.638 58.919 311.225 L 58.919 311.225 L 58.919 311.225 Q 58.608 312.462 57.061 313.389 L 57.061 313.389 L 57.061 313.389 Q 56.58 313.635 55.566 314.155 L 55.566 314.155 L 55.566 314.155 Q 53.589 315.167 54.273 316.502 L 54.273 316.502 L 55.777 319.439 Z  M 85.924 303.936 L 85.924 303.936 L 85.924 303.936 Q 87.103 303.737 88.167 304.169 L 88.167 304.169 L 88.167 304.169 Q 89.231 304.602 90.106 306.311 L 90.106 306.311 L 90.106 306.311 Q 90.981 308.02 91.006 310.569 L 91.006 310.569 L 91.006 310.569 Q 91.03 313.118 89.108 314.102 L 89.108 314.102 L 89.108 314.102 Q 88.146 314.595 87.046 314.618 L 87.046 314.618 L 87.046 314.618 Q 85.946 314.642 84.504 315.381 L 84.504 315.381 L 84.504 315.381 Q 83.062 316.119 82.327 317.776 L 82.327 317.776 L 82.327 317.776 Q 81.591 319.434 82.33 320.876 L 82.33 320.876 L 88.072 332.091 L 88.072 332.091 Q 88.701 333.319 88.935 333.975 L 88.935 333.975 L 88.935 333.975 Q 89.17 334.63 89.153 335.65 L 89.153 335.65 L 89.153 335.65 Q 89.063 337.448 85.698 339.171 L 85.698 339.171 L 85.698 339.171 Q 83.134 340.484 81.548 340.15 L 81.548 340.15 L 81.548 340.15 Q 80.311 339.84 79.411 338.346 L 79.411 338.346 L 79.411 338.346 Q 79.137 337.812 78.618 336.797 L 78.618 336.797 L 69.02 318.051 L 69.02 318.051 Q 68.391 316.823 68.157 316.168 L 68.157 316.168 L 68.157 316.168 Q 67.922 315.513 67.913 314.573 L 67.913 314.573 L 67.913 314.573 Q 67.923 312.749 71.341 310.999 L 71.341 310.999 L 71.341 310.999 Q 74.545 309.358 75.975 310.176 L 75.975 310.176 L 75.975 310.176 Q 77 310.73 77.465 311.638 L 77.465 311.638 L 77.465 311.638 Q 77.54 311.127 77.774 310.333 L 77.774 310.333 L 77.774 310.333 Q 78.008 309.539 79.199 307.784 L 79.199 307.784 L 79.199 307.784 Q 80.39 306.028 81.645 305.386 L 81.645 305.386 L 81.645 305.386 Q 82.9 304.743 83.823 304.439 L 83.823 304.439 L 83.823 304.439 Q 84.746 304.135 85.924 303.936 Z  M 123.661 297.725 L 123.661 297.725 L 123.661 297.725 Q 125.342 301.009 124.52 303.419 L 124.52 303.419 L 124.52 303.419 Q 123.698 305.829 121.722 306.84 L 121.722 306.84 L 109.065 313.321 L 109.065 313.321 Q 109.83 314.816 112.112 314.929 L 112.112 314.929 L 112.112 314.929 Q 114.394 315.041 116.157 314.139 L 116.157 314.139 L 116.157 314.139 Q 119.254 312.553 120.688 311.009 L 120.688 311.009 L 121.167 310.495 L 121.167 310.495 Q 122.148 309.251 123.002 308.814 L 123.002 308.814 L 123.002 308.814 Q 124.711 307.939 127.17 309.713 L 127.17 309.713 L 127.17 309.713 Q 128.603 310.8 129.122 311.814 L 129.122 311.814 L 129.122 311.814 Q 131.556 316.567 120.18 322.392 L 120.18 322.392 L 120.18 322.392 Q 116.228 324.415 112.46 324.626 L 112.46 324.626 L 112.46 324.626 Q 108.692 324.836 105.834 323.468 L 105.834 323.468 L 105.834 323.468 Q 100.255 320.865 97.52 315.525 L 97.52 315.525 L 97.52 315.525 Q 94.075 308.795 96.363 302.535 L 96.363 302.535 L 96.363 302.535 Q 98.651 296.274 105.167 292.938 L 105.167 292.938 L 105.167 292.938 Q 112.59 289.137 118.741 292.593 L 118.741 292.593 L 118.741 292.593 Q 121.979 294.44 123.661 297.725 Z  M 106.469 308.516 L 113.199 305.07 L 113.199 305.07 Q 115.228 304.031 114.353 302.322 L 114.353 302.322 L 114.353 302.322 Q 113.724 301.094 112.407 300.825 L 112.407 300.825 L 112.407 300.825 Q 111.089 300.556 109.354 301.444 L 109.354 301.444 L 109.354 301.444 Q 107.618 302.333 106.633 304.623 L 106.633 304.623 L 106.633 304.623 Q 105.649 306.914 106.469 308.516 L 106.469 308.516 Z  M 154.263 282.056 L 154.263 282.056 L 154.263 282.056 Q 155.944 285.341 155.122 287.75 L 155.122 287.75 L 155.122 287.75 Q 154.3 290.16 152.324 291.172 L 152.324 291.172 L 139.667 297.652 L 139.667 297.652 Q 140.432 299.148 142.714 299.26 L 142.714 299.26 L 142.714 299.26 Q 144.996 299.372 146.759 298.47 L 146.759 298.47 L 146.759 298.47 Q 149.856 296.884 151.29 295.341 L 151.29 295.341 L 151.768 294.826 L 151.768 294.826 Q 152.749 293.583 153.604 293.145 L 153.604 293.145 L 153.604 293.145 Q 155.313 292.27 157.772 294.044 L 157.772 294.044 L 157.772 294.044 Q 159.204 295.131 159.724 296.146 L 159.724 296.146 L 159.724 296.146 Q 162.158 300.899 150.782 306.723 L 150.782 306.723 L 150.782 306.723 Q 146.83 308.747 143.062 308.957 L 143.062 308.957 L 143.062 308.957 Q 139.294 309.168 136.436 307.8 L 136.436 307.8 L 136.436 307.8 Q 130.857 305.197 128.122 299.856 L 128.122 299.856 L 128.122 299.856 Q 124.677 293.127 126.965 286.866 L 126.965 286.866 L 126.965 286.866 Q 129.253 280.605 135.768 277.269 L 135.768 277.269 L 135.768 277.269 Q 143.192 273.468 149.343 276.924 L 149.343 276.924 L 149.343 276.924 Q 152.581 278.772 154.263 282.056 Z  M 137.071 292.847 L 143.801 289.402 L 143.801 289.402 Q 145.83 288.362 144.955 286.654 L 144.955 286.654 L 144.955 286.654 Q 144.326 285.425 143.009 285.156 L 143.009 285.156 L 143.009 285.156 Q 141.691 284.887 139.955 285.776 L 139.955 285.776 L 139.955 285.776 Q 138.22 286.664 137.235 288.955 L 137.235 288.955 L 137.235 288.955 Q 136.251 291.245 137.071 292.847 L 137.071 292.847 Z " fill-rule="evenodd" fill="url(#_lgradient_67)" vector-effect="non-scaling-stroke" stroke-width="2" stroke="rgb(29,41,47)" stroke-linejoin="miter" stroke-linecap="square" stroke-miterlimit="3"/><linearGradient id="_lgradient_68" x1="49.09393381421649%" y1="-25.35852729706891%" x2="49.66518522041243%" y2="122.54964331698079%"><stop offset="1.7391304347826086%" stop-opacity="1" style="stop-color:rgb(86,110,242)"/><stop offset="98.69565217391305%" stop-opacity="1" style="stop-color:rgb(64,76,147)"/></linearGradient><path d=" M 349.959 230.417 L 357.801 202.954 L 357.801 202.954 Q 358.18 201.628 358.456 200.989 L 358.456 200.989 L 358.456 200.989 Q 358.732 200.35 359.383 199.6 L 359.383 199.6 L 359.383 199.6 Q 360.635 198.273 364.328 199.327 L 364.328 199.327 L 364.328 199.327 Q 367.847 200.332 368.267 202.137 L 368.267 202.137 L 368.267 202.137 Q 368.482 203.134 368.371 203.851 L 368.371 203.851 L 368.371 203.851 Q 368.26 204.568 367.881 205.895 L 367.881 205.895 L 360.253 232.607 L 360.253 232.607 Q 359.66 234.684 359.85 235.331 L 359.85 235.331 L 359.85 235.331 Q 360.039 235.978 361.222 236.316 L 361.222 236.316 L 361.222 236.316 Q 362.405 236.654 362.784 236.856 L 362.784 236.856 L 362.784 236.856 Q 363.163 237.058 363.625 237.626 L 363.625 237.626 L 363.625 237.626 Q 364.564 238.706 363.609 242.052 L 363.609 242.052 L 363.609 242.052 Q 362.571 245.687 361.186 246.165 L 361.186 246.165 L 361.186 246.165 Q 359.39 246.775 353.934 244.468 L 353.934 244.468 L 353.934 244.468 Q 349.656 242.623 349.004 239.878 L 349.004 239.878 L 349.004 239.878 Q 348.196 236.59 349.959 230.417 L 349.959 230.417 Z  M 366.798 242.9 L 372.581 222.65 L 372.581 222.65 Q 372.96 221.323 373.236 220.684 L 373.236 220.684 L 373.236 220.684 Q 373.512 220.045 374.163 219.295 L 374.163 219.295 L 374.163 219.295 Q 375.399 218.026 379.091 219.08 L 379.091 219.08 L 379.091 219.08 Q 381.861 219.871 382.734 221.181 L 382.734 221.181 L 382.734 221.181 Q 383.485 222.269 383.065 223.958 L 383.065 223.958 L 383.065 223.958 Q 382.958 224.552 382.645 225.648 L 382.645 225.648 L 376.878 245.841 L 376.878 245.841 Q 376.5 247.168 376.224 247.807 L 376.224 247.807 L 376.224 247.807 Q 375.948 248.445 375.239 249.179 L 375.239 249.179 L 375.239 249.179 Q 374.061 250.465 370.368 249.411 L 370.368 249.411 L 370.368 249.411 Q 366.733 248.373 366.371 246.584 L 366.371 246.584 L 366.371 246.584 Q 366.214 245.604 366.308 244.944 L 366.308 244.944 L 366.308 244.944 Q 366.403 244.285 366.798 242.9 L 366.798 242.9 Z  M 385.128 214.657 L 385.128 214.657 L 385.128 214.657 Q 384.456 215.37 383.261 215.404 L 383.261 215.404 L 383.261 215.404 Q 382.066 215.437 380.249 214.918 L 380.249 214.918 L 380.249 214.918 Q 378.431 214.399 377.434 213.74 L 377.434 213.74 L 377.434 213.74 Q 376.437 213.081 376.251 212.092 L 376.251 212.092 L 376.251 212.092 Q 376.065 211.103 376.168 210.414 L 376.168 210.414 L 376.168 210.414 Q 376.271 209.726 376.65 208.399 L 376.65 208.399 L 376.65 208.399 Q 377.029 207.072 377.305 206.434 L 377.305 206.434 L 377.305 206.434 Q 377.581 205.795 378.216 205.102 L 378.216 205.102 L 378.216 205.102 Q 379.468 203.775 383.161 204.83 L 383.161 204.83 L 383.161 204.83 Q 386.795 205.868 387.1 207.639 L 387.1 207.639 L 387.1 207.639 Q 387.315 208.637 387.212 209.325 L 387.212 209.325 L 387.212 209.325 Q 387.109 210.013 386.73 211.34 L 386.73 211.34 L 386.73 211.34 Q 386.351 212.667 386.075 213.306 L 386.075 213.306 L 386.075 213.306 Q 385.799 213.944 385.128 214.657 Z  M 405.4 226.592 L 405.4 226.592 L 405.4 226.592 Q 410.535 228.059 413.531 233.844 L 413.531 233.844 L 413.531 233.844 Q 416.528 239.629 414.806 245.658 L 414.806 245.658 L 414.806 245.658 Q 413.085 251.687 407.522 254.997 L 407.522 254.997 L 407.522 254.997 Q 401.96 258.307 397.056 256.906 L 397.056 256.906 L 397.056 256.906 Q 392.152 255.506 390.866 252.144 L 390.866 252.144 L 390.866 252.144 Q 389.597 254.839 385.097 253.554 L 385.097 253.554 L 385.097 253.554 Q 381.462 252.516 381.099 250.728 L 381.099 250.728 L 381.099 250.728 Q 380.942 249.747 381.045 249.059 L 381.045 249.059 L 381.045 249.059 Q 381.148 248.371 381.527 247.044 L 381.527 247.044 L 391.362 212.6 L 391.362 212.6 Q 391.741 211.273 392.017 210.635 L 392.017 210.635 L 392.017 210.635 Q 392.293 209.996 392.928 209.303 L 392.928 209.303 L 392.928 209.303 Q 394.18 207.976 397.872 209.031 L 397.872 209.031 L 397.872 209.031 Q 401.507 210.068 401.812 211.84 L 401.812 211.84 L 401.812 211.84 Q 402.027 212.838 401.924 213.526 L 401.924 213.526 L 401.924 213.526 Q 401.821 214.214 401.442 215.541 L 401.442 215.541 L 398.015 227.541 L 398.015 227.541 Q 401.13 225.373 405.4 226.592 Z  M 395.03 243.786 L 395.03 243.786 L 395.03 243.786 Q 395.999 245.747 398.134 246.357 L 398.134 246.357 L 398.134 246.357 Q 400.268 246.966 402.213 245.837 L 402.213 245.837 L 402.213 245.837 Q 404.158 244.708 404.702 242.804 L 404.702 242.804 L 404.702 242.804 Q 405.245 240.9 404.314 238.918 L 404.314 238.918 L 404.314 238.918 Q 403.382 236.936 401.074 236.277 L 401.074 236.277 L 401.074 236.277 Q 398.767 235.618 396.95 236.846 L 396.95 236.846 L 396.95 236.846 Q 395.133 238.075 394.597 239.95 L 394.597 239.95 L 394.597 239.95 Q 394.062 241.825 395.03 243.786 Z  M 443.453 237.77 L 443.453 237.77 L 443.453 237.77 Q 444.451 238.43 444.933 239.472 L 444.933 239.472 L 444.933 239.472 Q 445.415 240.515 444.888 242.361 L 444.888 242.361 L 444.888 242.361 Q 444.361 244.207 442.639 246.086 L 442.639 246.086 L 442.639 246.086 Q 440.916 247.966 438.839 247.373 L 438.839 247.373 L 438.839 247.373 Q 437.801 247.076 436.981 246.343 L 436.981 246.343 L 436.981 246.343 Q 436.161 245.609 434.603 245.165 L 434.603 245.165 L 434.603 245.165 Q 433.045 244.72 431.376 245.429 L 431.376 245.429 L 431.376 245.429 Q 429.707 246.138 429.263 247.696 L 429.263 247.696 L 425.803 259.811 L 425.803 259.811 Q 425.424 261.138 425.148 261.777 L 425.148 261.777 L 425.148 261.777 Q 424.872 262.416 424.163 263.149 L 424.163 263.149 L 424.163 263.149 Q 422.87 264.402 419.235 263.364 L 419.235 263.364 L 419.235 263.364 Q 416.466 262.574 415.534 261.247 L 415.534 261.247 L 415.534 261.247 Q 414.842 260.176 415.204 258.469 L 415.204 258.469 L 415.204 258.469 Q 415.369 257.893 415.682 256.796 L 415.682 256.796 L 421.464 236.546 L 421.464 236.546 Q 421.843 235.219 422.119 234.58 L 422.119 234.58 L 422.119 234.58 Q 422.395 233.941 423.03 233.249 L 423.03 233.249 L 423.03 233.249 Q 424.282 231.922 427.975 232.976 L 427.975 232.976 L 427.975 232.976 Q 431.436 233.965 431.923 235.539 L 431.923 235.539 L 431.923 235.539 Q 432.294 236.643 432.014 237.624 L 432.014 237.624 L 432.014 237.624 Q 432.418 237.302 433.13 236.882 L 433.13 236.882 L 433.13 236.882 Q 433.843 236.461 435.912 235.991 L 435.912 235.991 L 435.912 235.991 Q 437.98 235.521 439.336 235.908 L 439.336 235.908 L 439.336 235.908 Q 440.692 236.296 441.574 236.703 L 441.574 236.703 L 441.574 236.703 Q 442.456 237.111 443.453 237.77 Z  M 475.269 258.992 L 475.269 258.992 L 475.269 258.992 Q 474.256 262.54 472.01 263.74 L 472.01 263.74 L 472.01 263.74 Q 469.765 264.939 467.63 264.329 L 467.63 264.329 L 453.956 260.425 L 453.956 260.425 Q 453.495 262.04 455.086 263.68 L 455.086 263.68 L 455.086 263.68 Q 456.677 265.32 458.581 265.864 L 458.581 265.864 L 458.581 265.864 Q 461.927 266.819 464.029 266.671 L 464.029 266.671 L 464.729 266.621 L 464.729 266.621 Q 466.295 266.382 467.218 266.645 L 467.218 266.645 L 467.218 266.645 Q 469.064 267.173 469.65 270.148 L 469.65 270.148 L 469.65 270.148 Q 469.955 271.92 469.642 273.016 L 469.642 273.016 L 469.642 273.016 Q 468.176 278.151 455.887 274.642 L 455.887 274.642 L 455.887 274.642 Q 451.618 273.422 448.721 271.004 L 448.721 271.004 L 448.721 271.004 Q 445.823 268.585 444.669 265.635 L 444.669 265.635 L 444.669 265.635 Q 442.369 259.924 444.016 254.155 L 444.016 254.155 L 444.016 254.155 Q 446.092 246.885 452.038 243.872 L 452.038 243.872 L 452.038 243.872 Q 457.984 240.859 465.022 242.869 L 465.022 242.869 L 465.022 242.869 Q 473.042 245.159 475.177 251.883 L 475.177 251.883 L 475.177 251.883 Q 476.282 255.444 475.269 258.992 Z  M 455.34 255.142 L 462.61 257.218 L 462.61 257.218 Q 464.802 257.844 465.329 255.998 L 465.329 255.998 L 465.329 255.998 Q 465.708 254.671 464.929 253.575 L 464.929 253.575 L 464.929 253.575 Q 464.15 252.479 462.275 251.943 L 462.275 251.943 L 462.275 251.943 Q 460.4 251.408 458.117 252.409 L 458.117 252.409 L 458.117 252.409 Q 455.835 253.411 455.34 255.142 L 455.34 255.142 Z " fill-rule="evenodd" fill="url(#_lgradient_68)" vector-effect="non-scaling-stroke" stroke-width="2" stroke="rgb(29,41,47)" stroke-linejoin="miter" stroke-linecap="square" stroke-miterlimit="3"/></g></g></svg>