<?xml version="1.0" standalone="no"?><!-- Generator: Gravit.io --><svg xmlns="http://www.w3.org/2000/svg" xmlns:xlink="http://www.w3.org/1999/xlink" style="isolation:isolate" viewBox="16 16 480 480.004" width="480" height="480.004"><g style="isolation:isolate" id="group-chats-illustration"><rect x="16" y="16" width="480" height="480" transform="matrix(1,0,0,1,0,0)" fill="none"/><g id="Ground"><line x1="82.586" y1="494.504" x2="406.438" y2="494.504" vector-effect="non-scaling-stroke" stroke-width="2.985" stroke="rgb(29,41,47)" stroke-linejoin="round" stroke-linecap="round" stroke-miterlimit="3"/><line x1="414.792" y1="494.504" x2="440.318" y2="494.504" vector-effect="non-scaling-stroke" stroke-width="2.985" stroke="rgb(29,41,47)" stroke-linejoin="round" stroke-linecap="round" stroke-miterlimit="3"/><line x1="71.682" y1="494.504" x2="75.682" y2="494.504" vector-effect="non-scaling-stroke" stroke-width="3" stroke="rgb(29,41,47)" stroke-linejoin="round" stroke-linecap="round" stroke-miterlimit="3"/></g><g id="Group"><g id="Person 2"><g id="Char"><linearGradient id="_lgradient_80" x1="-3.9272112161603165%" y1="-2.64584012781762%" x2="101.06359496101459%" y2="101.5370945631903%"><stop offset="1.7391304347826086%" stop-opacity="1" style="stop-color:rgb(86,110,242)"/><stop offset="99.1304347826087%" stop-opacity="1" style="stop-color:rgb(47,60,130)"/></linearGradient><path d=" M 475.652 394.042 C 475.652 339.425 431.31 295.083 376.694 295.083 C 322.077 295.083 277.735 339.425 277.735 394.042 C 277.735 448.658 322.077 493 376.694 493 C 431.31 493 475.652 448.658 475.652 394.042 Z " fill="url(#_lgradient_80)" vector-effect="non-scaling-stroke" stroke-width="2" stroke="rgb(29,41,47)" stroke-linejoin="round" stroke-linecap="round" stroke-miterlimit="4"/><clipPath id="_clipPath_hTD1ownCPIZ1RoibnLnvRTi5Nv4miNyn"><linearGradient id="_lgradient_80" x1="-3.9272112161603165%" y1="-2.64584012781762%" x2="101.06359496101459%" y2="101.5370945631903%"><stop offset="1.7391304347826086%" stop-opacity="1" style="stop-color:rgb(86,110,242)"/><stop offset="99.1304347826087%" stop-opacity="1" style="stop-color:rgb(47,60,130)"/></linearGradient><path d=" M 475.652 394.042 C 475.652 339.425 431.31 295.083 376.694 295.083 C 322.077 295.083 277.735 339.425 277.735 394.042 C 277.735 448.658 322.077 493 376.694 493 C 431.31 493 475.652 448.658 475.652 394.042 Z " fill="url(#_lgradient_80)" vector-effect="non-scaling-stroke" stroke-width="2" stroke="rgb(29,41,47)" stroke-linejoin="round" stroke-linecap="round" stroke-miterlimit="4"/></clipPath><g clip-path="url(#_clipPath_hTD1ownCPIZ1RoibnLnvRTi5Nv4miNyn)"><path d=" M 296.502 345.554 C 307.788 326.725 333.923 304.005 366.946 300.532" fill="none" vector-effect="non-scaling-stroke" stroke-width="2" stroke="rgb(255,255,255)" stroke-opacity="0.26" stroke-linejoin="round" stroke-linecap="round" stroke-miterlimit="3"/><path d=" M 475.462 384.793 Q 449.536 475.13 377.428 492.144 Q 411.457 502.272 483.97 457.306 L 475.462 384.793 Z " fill="rgb(29,41,47)" fill-opacity="0.2"/><g id="Group"><defs><filter id="JXmqJrkhvWNulE1oapHtjpW9s3G5IbCm" x="-200%" y="-200%" width="400%" height="400%"><feOffset xmlns="http://www.w3.org/2000/svg" in="SourceAlpha" result="offOut" dx="0" dy="2"/><feGaussianBlur xmlns="http://www.w3.org/2000/svg" in="offOut" result="blurOut" stdDeviation="2"/><feComponentTransfer xmlns="http://www.w3.org/2000/svg" in="blurOut" result="opacOut"><feFuncA xmlns="http://www.w3.org/2000/svg" type="table" tableValues="0 0.5"/></feComponentTransfer><feBlend xmlns="http://www.w3.org/2000/svg" in="SourceGraphic" in2="opacOut" mode="normal"/></filter></defs><g filter="url(#JXmqJrkhvWNulE1oapHtjpW9s3G5IbCm)"><path d=" M 222.007 394.043 C 222.007 424.245 246.49 448.73 276.695 448.73 C 306.896 448.73 331.382 424.245 331.382 394.043 L 222.007 394.043 Z " fill="rgb(255,255,255)"/></g></g></g><defs><filter id="GNauIAPJJ9HGxlIvlq9XkGbNyrf1ntzA" x="-200%" y="-200%" width="400%" height="400%"><feOffset xmlns="http://www.w3.org/2000/svg" in="SourceAlpha" result="offOut" dx="0" dy="2"/><feGaussianBlur xmlns="http://www.w3.org/2000/svg" in="offOut" result="blurOut" stdDeviation="2"/><feComponentTransfer xmlns="http://www.w3.org/2000/svg" in="blurOut" result="opacOut"><feFuncA xmlns="http://www.w3.org/2000/svg" type="table" tableValues="0 0.5"/></feComponentTransfer><feBlend xmlns="http://www.w3.org/2000/svg" in="SourceGraphic" in2="opacOut" mode="normal"/></filter></defs><g filter="url(#GNauIAPJJ9HGxlIvlq9XkGbNyrf1ntzA)"><path d=" M 355.105 373.072 C 355.105 366.647 349.893 361.437 343.466 361.437 C 337.042 361.437 331.831 366.647 331.831 373.072 C 331.831 379.5 337.042 384.711 343.466 384.711 C 349.893 384.71 355.105 379.499 355.105 373.072 Z " fill="rgb(255,255,255)"/></g></g><g id="Bubble"><linearGradient id="_lgradient_81" x1="-3.9272112161603165%" y1="-2.64584012781762%" x2="101.06359496101459%" y2="101.5370945631903%"><stop offset="1.7391304347826086%" stop-opacity="1" style="stop-color:rgb(86,110,242)"/><stop offset="99.1304347826087%" stop-opacity="1" style="stop-color:rgb(47,60,130)"/></linearGradient><path d=" M 303.924 124.468 C 346.766 124.468 381.495 159.198 381.495 202.041 C 381.495 221.346 374.426 238.99 362.759 252.564 C 366.265 262.661 372.737 271.369 381.157 277.618 C 375.814 279.444 370.087 280.449 364.127 280.449 C 353.922 280.449 344.401 277.539 336.331 272.515 C 326.466 277.059 315.497 279.611 303.923 279.611 C 261.078 279.611 226.348 244.882 226.348 202.041 C 226.349 159.198 261.079 124.468 303.924 124.468 Z " fill="url(#_lgradient_81)" vector-effect="non-scaling-stroke" stroke-width="2" stroke="rgb(29,41,47)" stroke-linejoin="round" stroke-linecap="round" stroke-miterlimit="4"/><clipPath id="_clipPath_g7nABbloQHHJGdzvruMM4zLGzlbC5gpr"><linearGradient id="_lgradient_81" x1="-3.9272112161603165%" y1="-2.64584012781762%" x2="101.06359496101459%" y2="101.5370945631903%"><stop offset="1.7391304347826086%" stop-opacity="1" style="stop-color:rgb(86,110,242)"/><stop offset="99.1304347826087%" stop-opacity="1" style="stop-color:rgb(47,60,130)"/></linearGradient><path d=" M 303.924 124.468 C 346.766 124.468 381.495 159.198 381.495 202.041 C 381.495 221.346 374.426 238.99 362.759 252.564 C 366.265 262.661 372.737 271.369 381.157 277.618 C 375.814 279.444 370.087 280.449 364.127 280.449 C 353.922 280.449 344.401 277.539 336.331 272.515 C 326.466 277.059 315.497 279.611 303.923 279.611 C 261.078 279.611 226.348 244.882 226.348 202.041 C 226.349 159.198 261.079 124.468 303.924 124.468 Z " fill="url(#_lgradient_81)" vector-effect="non-scaling-stroke" stroke-width="2" stroke="rgb(29,41,47)" stroke-linejoin="round" stroke-linecap="round" stroke-miterlimit="4"/></clipPath><g clip-path="url(#_clipPath_g7nABbloQHHJGdzvruMM4zLGzlbC5gpr)"><path d=" M 369.129 169.212 C 357.109 147.918 335.007 129.171 306.115 129.883" fill="none" vector-effect="non-scaling-stroke" stroke-width="2" stroke="rgb(255,255,255)" stroke-opacity="0.26" stroke-linejoin="round" stroke-linecap="round" stroke-miterlimit="3"/><path d=" M 360.184 257.47 C 364.252 264.974 363.866 266.3 372.354 275.18" fill="none" vector-effect="non-scaling-stroke" stroke-width="2" stroke="rgb(255,255,255)" stroke-opacity="0.26" stroke-linejoin="round" stroke-linecap="round" stroke-miterlimit="3"/><path d=" M 225.94 195.338 Q 250.996 276.862 318.31 278.358 Q 287.644 289.95 217.713 252.928 L 225.94 195.338 Z " fill="rgb(29,41,47)" fill-opacity="0.2"/></g><g id="Group"><defs><filter id="XxyRUFmZJsfaOAjG259JH1dzAkhl0ME4" x="-200%" y="-200%" width="400%" height="400%"><feOffset xmlns="http://www.w3.org/2000/svg" in="SourceAlpha" result="offOut" dx="0" dy="2"/><feGaussianBlur xmlns="http://www.w3.org/2000/svg" in="offOut" result="blurOut" stdDeviation="2"/><feComponentTransfer xmlns="http://www.w3.org/2000/svg" in="blurOut" result="opacOut"><feFuncA xmlns="http://www.w3.org/2000/svg" type="table" tableValues="0 0.5"/></feComponentTransfer><feBlend xmlns="http://www.w3.org/2000/svg" in="SourceGraphic" in2="opacOut" mode="normal"/></filter></defs><g filter="url(#XxyRUFmZJsfaOAjG259JH1dzAkhl0ME4)"><path d=" M 276.177 175.052 L 331.671 175.052 C 334.167 175.052 336.189 173.029 336.189 170.533 C 336.189 168.037 334.166 166.016 331.671 166.016 L 276.177 166.016 C 273.681 166.016 271.657 168.037 271.657 170.533 C 271.657 173.029 273.681 175.052 276.177 175.052 Z " fill="rgb(255,255,255)"/></g><defs><filter id="DxSybagIw60DvGi0yHkeJ2gtRgjfBixG" x="-200%" y="-200%" width="400%" height="400%"><feOffset xmlns="http://www.w3.org/2000/svg" in="SourceAlpha" result="offOut" dx="0" dy="2"/><feGaussianBlur xmlns="http://www.w3.org/2000/svg" in="offOut" result="blurOut" stdDeviation="2"/><feComponentTransfer xmlns="http://www.w3.org/2000/svg" in="blurOut" result="opacOut"><feFuncA xmlns="http://www.w3.org/2000/svg" type="table" tableValues="0 0.5"/></feComponentTransfer><feBlend xmlns="http://www.w3.org/2000/svg" in="SourceGraphic" in2="opacOut" mode="normal"/></filter></defs><g filter="url(#DxSybagIw60DvGi0yHkeJ2gtRgjfBixG)"><path d=" M 259.345 196.057 L 348.503 196.057 C 350.998 196.057 353.021 194.034 353.021 191.54 C 353.021 189.044 350.998 187.02 348.503 187.02 L 259.345 187.02 C 256.849 187.02 254.826 189.044 254.826 191.54 C 254.826 194.034 256.848 196.057 259.345 196.057 Z " fill="rgb(255,255,255)"/></g><defs><filter id="FtPiXGEpVXUFVlExBS8I3wPujsECLAek" x="-200%" y="-200%" width="400%" height="400%"><feOffset xmlns="http://www.w3.org/2000/svg" in="SourceAlpha" result="offOut" dx="0" dy="2"/><feGaussianBlur xmlns="http://www.w3.org/2000/svg" in="offOut" result="blurOut" stdDeviation="2"/><feComponentTransfer xmlns="http://www.w3.org/2000/svg" in="blurOut" result="opacOut"><feFuncA xmlns="http://www.w3.org/2000/svg" type="table" tableValues="0 0.5"/></feComponentTransfer><feBlend xmlns="http://www.w3.org/2000/svg" in="SourceGraphic" in2="opacOut" mode="normal"/></filter></defs><g filter="url(#FtPiXGEpVXUFVlExBS8I3wPujsECLAek)"><path d=" M 267.945 217.061 L 339.899 217.061 C 342.393 217.061 344.417 215.037 344.417 212.541 C 344.417 210.044 342.393 208.024 339.899 208.024 L 267.945 208.024 C 265.45 208.024 263.426 210.045 263.426 212.541 C 263.426 215.036 265.449 217.061 267.945 217.061 Z " fill="rgb(255,255,255)"/></g><defs><filter id="m2n141oVcOR6NzHoOTz7eEilWK11vgit" x="-200%" y="-200%" width="400%" height="400%"><feOffset xmlns="http://www.w3.org/2000/svg" in="SourceAlpha" result="offOut" dx="0" dy="2"/><feGaussianBlur xmlns="http://www.w3.org/2000/svg" in="offOut" result="blurOut" stdDeviation="2"/><feComponentTransfer xmlns="http://www.w3.org/2000/svg" in="blurOut" result="opacOut"><feFuncA xmlns="http://www.w3.org/2000/svg" type="table" tableValues="0 0.5"/></feComponentTransfer><feBlend xmlns="http://www.w3.org/2000/svg" in="SourceGraphic" in2="opacOut" mode="normal"/></filter></defs><g filter="url(#m2n141oVcOR6NzHoOTz7eEilWK11vgit)"><path d=" M 276.177 238.067 L 331.671 238.067 C 334.167 238.067 336.189 236.042 336.189 233.545 C 336.189 231.051 334.166 229.027 331.671 229.027 L 276.177 229.027 C 273.681 229.027 271.657 231.051 271.657 233.545 C 271.657 236.042 273.681 238.067 276.177 238.067 Z " fill="rgb(255,255,255)"/></g></g></g></g><g id="Person 1"><g id="Char"><linearGradient id="_lgradient_82" x1="-3.9272112161603534%" y1="-2.6458401278176225%" x2="101.06359496101456%" y2="101.53709456319024%"><stop offset="2.1739130434782608%" stop-opacity="1" style="stop-color:rgb(92,95,106)"/><stop offset="98.69565217391305%" stop-opacity="1" style="stop-color:rgb(45,51,75)"/></linearGradient><path d=" M 36.348 394.042 C 36.348 339.425 80.69 295.083 135.306 295.083 C 189.923 295.083 234.265 339.425 234.265 394.042 C 234.265 448.658 189.923 493 135.306 493 C 80.69 493 36.348 448.658 36.348 394.042 Z " fill="url(#_lgradient_82)" vector-effect="non-scaling-stroke" stroke-width="2" stroke="rgb(29,41,47)" stroke-linejoin="round" stroke-linecap="round" stroke-miterlimit="4"/><clipPath id="_clipPath_DCnULQpaZOb0dCZUj9xHjHLcdzUeSDGt"><linearGradient id="_lgradient_82" x1="-3.9272112161603534%" y1="-2.6458401278176225%" x2="101.06359496101456%" y2="101.53709456319024%"><stop offset="2.1739130434782608%" stop-opacity="1" style="stop-color:rgb(92,95,106)"/><stop offset="98.69565217391305%" stop-opacity="1" style="stop-color:rgb(45,51,75)"/></linearGradient><path d=" M 36.348 394.042 C 36.348 339.425 80.69 295.083 135.306 295.083 C 189.923 295.083 234.265 339.425 234.265 394.042 C 234.265 448.658 189.923 493 135.306 493 C 80.69 493 36.348 448.658 36.348 394.042 Z " fill="url(#_lgradient_82)" vector-effect="non-scaling-stroke" stroke-width="2" stroke="rgb(29,41,47)" stroke-linejoin="round" stroke-linecap="round" stroke-miterlimit="4"/></clipPath><g clip-path="url(#_clipPath_DCnULQpaZOb0dCZUj9xHjHLcdzUeSDGt)"><path d=" M 55.054 345.554 C 66.339 326.725 92.474 304.005 125.498 300.532" fill="none" vector-effect="non-scaling-stroke" stroke-width="2" stroke="rgb(255,255,255)" stroke-opacity="0.26" stroke-linejoin="round" stroke-linecap="round" stroke-miterlimit="3"/><path d=" M 234.065 384.793 Q 208.138 475.13 136.03 492.144 Q 170.059 502.272 242.572 457.306 L 234.065 384.793 Z " fill="rgb(29,41,47)" fill-opacity="0.2"/><g id="Group"><defs><filter id="VN4T1PFD46dznSRjVVpkqcC5byhThq3E" x="-200%" y="-200%" width="400%" height="400%"><feOffset xmlns="http://www.w3.org/2000/svg" in="SourceAlpha" result="offOut" dx="0" dy="2"/><feGaussianBlur xmlns="http://www.w3.org/2000/svg" in="offOut" result="blurOut" stdDeviation="2"/><feComponentTransfer xmlns="http://www.w3.org/2000/svg" in="blurOut" result="opacOut"><feFuncA xmlns="http://www.w3.org/2000/svg" type="table" tableValues="0 0.5"/></feComponentTransfer><feBlend xmlns="http://www.w3.org/2000/svg" in="SourceGraphic" in2="opacOut" mode="normal"/></filter></defs><g filter="url(#VN4T1PFD46dznSRjVVpkqcC5byhThq3E)"><path d=" M 289.993 394.043 C 289.993 424.245 265.51 448.73 235.305 448.73 C 205.104 448.73 180.618 424.245 180.618 394.043 L 289.993 394.043 Z " fill="rgb(255,255,255)"/></g></g></g><defs><filter id="5D9ixiI648YYuk2fz0xqosgalsMoZ843" x="-200%" y="-200%" width="400%" height="400%"><feOffset xmlns="http://www.w3.org/2000/svg" in="SourceAlpha" result="offOut" dx="0" dy="2"/><feGaussianBlur xmlns="http://www.w3.org/2000/svg" in="offOut" result="blurOut" stdDeviation="2"/><feComponentTransfer xmlns="http://www.w3.org/2000/svg" in="blurOut" result="opacOut"><feFuncA xmlns="http://www.w3.org/2000/svg" type="table" tableValues="0 0.5"/></feComponentTransfer><feBlend xmlns="http://www.w3.org/2000/svg" in="SourceGraphic" in2="opacOut" mode="normal"/></filter></defs><g filter="url(#5D9ixiI648YYuk2fz0xqosgalsMoZ843)"><path d=" M 156.895 373.072 C 156.895 366.647 162.107 361.437 168.534 361.437 C 174.958 361.437 180.169 366.647 180.169 373.072 C 180.169 379.5 174.958 384.711 168.534 384.711 C 162.107 384.71 156.895 379.499 156.895 373.072 Z " fill="rgb(255,255,255)"/></g></g><g id="Bubble"><linearGradient id="_lgradient_83" x1="-3.9272112161603534%" y1="-2.6458401278176225%" x2="101.06359496101456%" y2="101.53709456319024%"><stop offset="2.1739130434782608%" stop-opacity="1" style="stop-color:rgb(92,95,106)"/><stop offset="98.69565217391305%" stop-opacity="1" style="stop-color:rgb(45,51,75)"/></linearGradient><path d=" M 208.076 124.468 C 165.234 124.468 130.505 159.198 130.505 202.041 C 130.505 221.346 137.574 238.99 149.241 252.564 C 145.735 262.661 139.263 271.369 130.843 277.618 C 136.186 279.444 141.913 280.449 147.873 280.449 C 158.078 280.449 167.599 277.539 175.669 272.515 C 185.534 277.059 196.503 279.611 208.077 279.611 C 250.922 279.611 285.652 244.882 285.652 202.041 C 285.651 159.198 250.921 124.468 208.076 124.468 Z " fill="url(#_lgradient_83)" vector-effect="non-scaling-stroke" stroke-width="2" stroke="rgb(29,41,47)" stroke-linejoin="round" stroke-linecap="round" stroke-miterlimit="4"/><clipPath id="_clipPath_WcGDrRJfFTW8aMNK4NxgygWRJMqdyvWw"><linearGradient id="_lgradient_83" x1="-3.9272112161603534%" y1="-2.6458401278176225%" x2="101.06359496101456%" y2="101.53709456319024%"><stop offset="2.1739130434782608%" stop-opacity="1" style="stop-color:rgb(92,95,106)"/><stop offset="98.69565217391305%" stop-opacity="1" style="stop-color:rgb(45,51,75)"/></linearGradient><path d=" M 208.076 124.468 C 165.234 124.468 130.505 159.198 130.505 202.041 C 130.505 221.346 137.574 238.99 149.241 252.564 C 145.735 262.661 139.263 271.369 130.843 277.618 C 136.186 279.444 141.913 280.449 147.873 280.449 C 158.078 280.449 167.599 277.539 175.669 272.515 C 185.534 277.059 196.503 279.611 208.077 279.611 C 250.922 279.611 285.652 244.882 285.652 202.041 C 285.651 159.198 250.921 124.468 208.076 124.468 Z " fill="url(#_lgradient_83)" vector-effect="non-scaling-stroke" stroke-width="2" stroke="rgb(29,41,47)" stroke-linejoin="round" stroke-linecap="round" stroke-miterlimit="4"/></clipPath><g clip-path="url(#_clipPath_WcGDrRJfFTW8aMNK4NxgygWRJMqdyvWw)"><path d=" M 142.871 169.212 C 154.891 147.918 176.993 129.171 205.885 129.883" fill="none" vector-effect="non-scaling-stroke" stroke-width="2" stroke="rgb(255,255,255)" stroke-opacity="0.26" stroke-linejoin="round" stroke-linecap="round" stroke-miterlimit="3"/><path d=" M 151.816 257.47 C 147.748 264.974 148.134 266.3 139.646 275.18" fill="none" vector-effect="non-scaling-stroke" stroke-width="2" stroke="rgb(255,255,255)" stroke-opacity="0.26" stroke-linejoin="round" stroke-linecap="round" stroke-miterlimit="3"/><path d=" M 286.06 195.338 Q 261.004 276.862 193.69 278.358 Q 224.356 289.95 294.287 252.928 L 286.06 195.338 Z " fill="rgb(29,41,47)" fill-opacity="0.2"/></g><g id="Group"><defs><filter id="cnlv3L8YrB7wyDhqK9ItX0oz0EcgD0Qb" x="-200%" y="-200%" width="400%" height="400%"><feOffset xmlns="http://www.w3.org/2000/svg" in="SourceAlpha" result="offOut" dx="0" dy="2"/><feGaussianBlur xmlns="http://www.w3.org/2000/svg" in="offOut" result="blurOut" stdDeviation="2"/><feComponentTransfer xmlns="http://www.w3.org/2000/svg" in="blurOut" result="opacOut"><feFuncA xmlns="http://www.w3.org/2000/svg" type="table" tableValues="0 0.5"/></feComponentTransfer><feBlend xmlns="http://www.w3.org/2000/svg" in="SourceGraphic" in2="opacOut" mode="normal"/></filter></defs><g filter="url(#cnlv3L8YrB7wyDhqK9ItX0oz0EcgD0Qb)"><path d=" M 235.823 175.052 L 180.329 175.052 C 177.833 175.052 175.811 173.029 175.811 170.533 C 175.811 168.037 177.834 166.016 180.329 166.016 L 235.823 166.016 C 238.319 166.016 240.343 168.037 240.343 170.533 C 240.343 173.029 238.319 175.052 235.823 175.052 Z " fill="rgb(255,255,255)"/></g><defs><filter id="cqryYdsOTuAfKJdzZLJoetVbt1dD9FKk" x="-200%" y="-200%" width="400%" height="400%"><feOffset xmlns="http://www.w3.org/2000/svg" in="SourceAlpha" result="offOut" dx="0" dy="2"/><feGaussianBlur xmlns="http://www.w3.org/2000/svg" in="offOut" result="blurOut" stdDeviation="2"/><feComponentTransfer xmlns="http://www.w3.org/2000/svg" in="blurOut" result="opacOut"><feFuncA xmlns="http://www.w3.org/2000/svg" type="table" tableValues="0 0.5"/></feComponentTransfer><feBlend xmlns="http://www.w3.org/2000/svg" in="SourceGraphic" in2="opacOut" mode="normal"/></filter></defs><g filter="url(#cqryYdsOTuAfKJdzZLJoetVbt1dD9FKk)"><path d=" M 252.655 196.057 L 163.497 196.057 C 161.002 196.057 158.979 194.034 158.979 191.54 C 158.979 189.044 161.002 187.02 163.497 187.02 L 252.655 187.02 C 255.151 187.02 257.174 189.044 257.174 191.54 C 257.174 194.034 255.152 196.057 252.655 196.057 Z " fill="rgb(255,255,255)"/></g><defs><filter id="DbJjV4TYQpXaiiHXFbVf1FZiOEmycfvO" x="-200%" y="-200%" width="400%" height="400%"><feOffset xmlns="http://www.w3.org/2000/svg" in="SourceAlpha" result="offOut" dx="0" dy="2"/><feGaussianBlur xmlns="http://www.w3.org/2000/svg" in="offOut" result="blurOut" stdDeviation="2"/><feComponentTransfer xmlns="http://www.w3.org/2000/svg" in="blurOut" result="opacOut"><feFuncA xmlns="http://www.w3.org/2000/svg" type="table" tableValues="0 0.5"/></feComponentTransfer><feBlend xmlns="http://www.w3.org/2000/svg" in="SourceGraphic" in2="opacOut" mode="normal"/></filter></defs><g filter="url(#DbJjV4TYQpXaiiHXFbVf1FZiOEmycfvO)"><path d=" M 244.055 217.061 L 172.101 217.061 C 169.607 217.061 167.583 215.037 167.583 212.541 C 167.583 210.044 169.607 208.024 172.101 208.024 L 244.055 208.024 C 246.55 208.024 248.574 210.045 248.574 212.541 C 248.574 215.036 246.551 217.061 244.055 217.061 Z " fill="rgb(255,255,255)"/></g><defs><filter id="blCKXPMpJCZVLVevBgWQ9gt78pXpwUBR" x="-200%" y="-200%" width="400%" height="400%"><feOffset xmlns="http://www.w3.org/2000/svg" in="SourceAlpha" result="offOut" dx="0" dy="2"/><feGaussianBlur xmlns="http://www.w3.org/2000/svg" in="offOut" result="blurOut" stdDeviation="2"/><feComponentTransfer xmlns="http://www.w3.org/2000/svg" in="blurOut" result="opacOut"><feFuncA xmlns="http://www.w3.org/2000/svg" type="table" tableValues="0 0.5"/></feComponentTransfer><feBlend xmlns="http://www.w3.org/2000/svg" in="SourceGraphic" in2="opacOut" mode="normal"/></filter></defs><g filter="url(#blCKXPMpJCZVLVevBgWQ9gt78pXpwUBR)"><path d=" M 235.823 238.067 L 180.329 238.067 C 177.833 238.067 175.811 236.042 175.811 233.545 C 175.811 231.051 177.834 229.027 180.329 229.027 L 235.823 229.027 C 238.319 229.027 240.343 231.051 240.343 233.545 C 240.343 236.042 238.319 238.067 235.823 238.067 Z " fill="rgb(255,255,255)"/></g></g></g></g></g></g></svg>