<?xml version="1.0" standalone="no"?><!-- Generator: Gravit.io --><svg xmlns="http://www.w3.org/2000/svg" xmlns:xlink="http://www.w3.org/1999/xlink" style="isolation:isolate" viewBox="16 16 480 480.004" width="480" height="480.004"><g style="isolation:isolate" id="messaging-illustration"><rect x="16" y="16" width="480" height="480" transform="matrix(1,0,0,1,0,0)" fill="none"/><g id="Ground"><line x1="87.309" y1="494.504" x2="402.321" y2="494.504" vector-effect="non-scaling-stroke" stroke-width="2.985" stroke="rgb(29,41,47)" stroke-linejoin="round" stroke-linecap="round" stroke-miterlimit="3"/><line x1="409.792" y1="494.504" x2="435.318" y2="494.504" vector-effect="non-scaling-stroke" stroke-width="2.985" stroke="rgb(29,41,47)" stroke-linejoin="round" stroke-linecap="round" stroke-miterlimit="3"/><line x1="76.682" y1="494.504" x2="80.682" y2="494.504" vector-effect="non-scaling-stroke" stroke-width="3" stroke="rgb(29,41,47)" stroke-linejoin="round" stroke-linecap="round" stroke-miterlimit="3"/></g><g id="Group"><g id="Group"><linearGradient id="_lgradient_75" x1="-3.9272112161603534%" y1="-2.6458401278176225%" x2="101.06359496101456%" y2="101.53709456319024%"><stop offset="2.1739130434782608%" stop-opacity="1" style="stop-color:rgb(92,95,106)"/><stop offset="98.69565217391305%" stop-opacity="1" style="stop-color:rgb(45,51,75)"/></linearGradient><path d=" M 47.541 361.066 C 47.541 288.174 106.72 228.995 179.612 228.995 C 252.504 228.995 311.684 288.174 311.684 361.066 C 311.684 433.959 252.504 493.138 179.612 493.138 C 106.72 493.138 47.541 433.959 47.541 361.066 Z " fill="url(#_lgradient_75)" vector-effect="non-scaling-stroke" stroke-width="2" stroke="rgb(29,41,47)" stroke-linejoin="round" stroke-linecap="round" stroke-miterlimit="4"/><clipPath id="_clipPath_E55jdpkrgdAm7uGzye01jispVqxRImuR"><linearGradient id="_lgradient_75" x1="-3.9272112161603534%" y1="-2.6458401278176225%" x2="101.06359496101456%" y2="101.53709456319024%"><stop offset="2.1739130434782608%" stop-opacity="1" style="stop-color:rgb(92,95,106)"/><stop offset="98.69565217391305%" stop-opacity="1" style="stop-color:rgb(45,51,75)"/></linearGradient><path d=" M 47.541 361.066 C 47.541 288.174 106.72 228.995 179.612 228.995 C 252.504 228.995 311.684 288.174 311.684 361.066 C 311.684 433.959 252.504 493.138 179.612 493.138 C 106.72 493.138 47.541 433.959 47.541 361.066 Z " fill="url(#_lgradient_75)" vector-effect="non-scaling-stroke" stroke-width="2" stroke="rgb(29,41,47)" stroke-linejoin="round" stroke-linecap="round" stroke-miterlimit="4"/></clipPath><g clip-path="url(#_clipPath_E55jdpkrgdAm7uGzye01jispVqxRImuR)"><path d=" M 72.506 296.354 C 87.568 271.224 122.448 240.902 166.522 236.266" fill="none" vector-effect="non-scaling-stroke" stroke-width="2" stroke="rgb(255,255,255)" stroke-opacity="0.26" stroke-linejoin="round" stroke-linecap="round" stroke-miterlimit="3"/><path d=" M 311.417 348.722 Q 276.815 469.288 180.579 491.996 Q 225.994 505.512 322.771 445.499 L 311.417 348.722 Z " fill="rgb(29,41,47)" fill-opacity="0.2"/></g><defs><filter id="49353cA8z7AHettXMDJcfBJ2T8YhvrUH" x="-200%" y="-200%" width="400%" height="400%"><feOffset xmlns="http://www.w3.org/2000/svg" in="SourceAlpha" result="offOut" dx="0" dy="2"/><feGaussianBlur xmlns="http://www.w3.org/2000/svg" in="offOut" result="blurOut" stdDeviation="2"/><feComponentTransfer xmlns="http://www.w3.org/2000/svg" in="blurOut" result="opacOut"><feFuncA xmlns="http://www.w3.org/2000/svg" type="table" tableValues="0 0.5"/></feComponentTransfer><feBlend xmlns="http://www.w3.org/2000/svg" in="SourceGraphic" in2="opacOut" mode="normal"/></filter></defs><g filter="url(#49353cA8z7AHettXMDJcfBJ2T8YhvrUH)"><path d=" M 80.24 333.619 C 80.24 325.048 87.199 318.089 95.77 318.089 C 104.341 318.089 111.3 325.048 111.3 333.619 C 111.3 342.191 104.341 349.149 95.77 349.149 C 87.199 349.149 80.24 342.191 80.24 333.619 Z " fill="rgb(255,255,255)"/></g><defs><filter id="xkXN4q1UOM5rr6ByyVMW70UrFn1iRe77" x="-200%" y="-200%" width="400%" height="400%"><feOffset xmlns="http://www.w3.org/2000/svg" in="SourceAlpha" result="offOut" dx="0" dy="2"/><feGaussianBlur xmlns="http://www.w3.org/2000/svg" in="offOut" result="blurOut" stdDeviation="2"/><feComponentTransfer xmlns="http://www.w3.org/2000/svg" in="blurOut" result="opacOut"><feFuncA xmlns="http://www.w3.org/2000/svg" type="table" tableValues="0 0.5"/></feComponentTransfer><feBlend xmlns="http://www.w3.org/2000/svg" in="SourceGraphic" in2="opacOut" mode="normal"/></filter></defs><g filter="url(#xkXN4q1UOM5rr6ByyVMW70UrFn1iRe77)"><path d=" M 248.463 333.08 C 248.463 324.505 255.42 317.552 263.997 317.552 C 272.571 317.552 279.525 324.505 279.525 333.08 C 279.525 341.659 272.571 348.614 263.997 348.614 C 255.42 348.613 248.463 341.657 248.463 333.08 Z " fill="rgb(255,255,255)"/></g><g id="Group"><defs><filter id="urg9waMBm6U4Qftb2fXeT4fIKVJp9zbY" x="-200%" y="-200%" width="400%" height="400%"><feOffset xmlns="http://www.w3.org/2000/svg" in="SourceAlpha" result="offOut" dx="0" dy="2"/><feGaussianBlur xmlns="http://www.w3.org/2000/svg" in="offOut" result="blurOut" stdDeviation="2"/><feComponentTransfer xmlns="http://www.w3.org/2000/svg" in="blurOut" result="opacOut"><feFuncA xmlns="http://www.w3.org/2000/svg" type="table" tableValues="0 0.5"/></feComponentTransfer><feBlend xmlns="http://www.w3.org/2000/svg" in="SourceGraphic" in2="opacOut" mode="normal"/></filter></defs><g filter="url(#urg9waMBm6U4Qftb2fXeT4fIKVJp9zbY)"><path d=" M 252.598 361.068 C 252.598 401.376 219.923 434.054 179.611 434.054 C 139.304 434.054 106.624 401.376 106.624 361.068 L 252.598 361.068 Z " fill="rgb(255,255,255)"/></g></g></g><g id="Group"><linearGradient id="_lgradient_76" x1="-3.9272112161603165%" y1="-2.64584012781762%" x2="101.06359496101459%" y2="101.5370945631903%"><stop offset="1.7391304347826086%" stop-opacity="1" style="stop-color:rgb(86,110,242)"/><stop offset="99.1304347826087%" stop-opacity="1" style="stop-color:rgb(47,60,130)"/></linearGradient><path d=" M 373.846 28.379 C 311.907 28.379 261.698 78.59 261.698 140.53 C 261.698 168.439 271.918 193.948 288.786 213.573 C 283.717 228.17 274.36 240.76 262.186 249.794 C 269.911 252.434 278.191 253.888 286.807 253.888 C 301.561 253.888 315.326 249.681 326.993 242.417 C 341.255 248.986 357.114 252.677 373.847 252.677 C 435.79 252.677 486 202.467 486 140.53 C 485.999 78.59 435.788 28.379 373.846 28.379 Z " fill="url(#_lgradient_76)" vector-effect="non-scaling-stroke" stroke-width="2" stroke="rgb(29,41,47)" stroke-linejoin="round" stroke-linecap="round" stroke-miterlimit="4"/><clipPath id="_clipPath_KNadeJJZxm1yTT1MS9zRbJLz5q4Yqd0u"><linearGradient id="_lgradient_76" x1="-3.9272112161603165%" y1="-2.64584012781762%" x2="101.06359496101459%" y2="101.5370945631903%"><stop offset="1.7391304347826086%" stop-opacity="1" style="stop-color:rgb(86,110,242)"/><stop offset="99.1304347826087%" stop-opacity="1" style="stop-color:rgb(47,60,130)"/></linearGradient><path d=" M 373.846 28.379 C 311.907 28.379 261.698 78.59 261.698 140.53 C 261.698 168.439 271.918 193.948 288.786 213.573 C 283.717 228.17 274.36 240.76 262.186 249.794 C 269.911 252.434 278.191 253.888 286.807 253.888 C 301.561 253.888 315.326 249.681 326.993 242.417 C 341.255 248.986 357.114 252.677 373.847 252.677 C 435.79 252.677 486 202.467 486 140.53 C 485.999 78.59 435.788 28.379 373.846 28.379 Z " fill="url(#_lgradient_76)" vector-effect="non-scaling-stroke" stroke-width="2" stroke="rgb(29,41,47)" stroke-linejoin="round" stroke-linecap="round" stroke-miterlimit="4"/></clipPath><g clip-path="url(#_clipPath_KNadeJJZxm1yTT1MS9zRbJLz5q4Yqd0u)"><path d=" M 279.576 93.068 C 296.953 62.282 328.908 35.179 370.677 36.209" fill="none" vector-effect="non-scaling-stroke" stroke-width="2" stroke="rgb(255,255,255)" stroke-opacity="0.26" stroke-linejoin="round" stroke-linecap="round" stroke-miterlimit="3"/><path d=" M 292.508 220.666 C 286.626 231.515 287.185 233.432 274.914 246.27" fill="none" vector-effect="non-scaling-stroke" stroke-width="2" stroke="rgb(255,255,255)" stroke-opacity="0.26" stroke-linejoin="round" stroke-linecap="round" stroke-miterlimit="3"/><path d=" M 486.589 130.838 Q 450.365 248.701 353.048 250.864 Q 397.381 267.624 498.484 214.099 L 486.589 130.838 Z " fill="rgb(29,41,47)" fill-opacity="0.2"/></g><g id="Group"><defs><filter id="6vTQdx2hkNRT99RMmqwAcSnzCCRKdKWR" x="-200%" y="-200%" width="400%" height="400%"><feOffset xmlns="http://www.w3.org/2000/svg" in="SourceAlpha" result="offOut" dx="0" dy="2"/><feGaussianBlur xmlns="http://www.w3.org/2000/svg" in="offOut" result="blurOut" stdDeviation="2"/><feComponentTransfer xmlns="http://www.w3.org/2000/svg" in="blurOut" result="opacOut"><feFuncA xmlns="http://www.w3.org/2000/svg" type="table" tableValues="0 0.5"/></feComponentTransfer><feBlend xmlns="http://www.w3.org/2000/svg" in="SourceGraphic" in2="opacOut" mode="normal"/></filter></defs><g filter="url(#6vTQdx2hkNRT99RMmqwAcSnzCCRKdKWR)"><path d=" M 413.96 101.511 L 333.73 101.511 C 330.122 101.511 327.198 98.586 327.198 94.978 C 327.198 91.369 330.123 88.447 333.73 88.447 L 413.96 88.447 C 417.568 88.447 420.494 91.369 420.494 94.978 C 420.494 98.586 417.568 101.511 413.96 101.511 Z " fill="rgb(255,255,255)"/></g><defs><filter id="LgU4pFaPyJI9NHA3GdvHwIvkdq8NCbE3" x="-200%" y="-200%" width="400%" height="400%"><feOffset xmlns="http://www.w3.org/2000/svg" in="SourceAlpha" result="offOut" dx="0" dy="2"/><feGaussianBlur xmlns="http://www.w3.org/2000/svg" in="offOut" result="blurOut" stdDeviation="2"/><feComponentTransfer xmlns="http://www.w3.org/2000/svg" in="blurOut" result="opacOut"><feFuncA xmlns="http://www.w3.org/2000/svg" type="table" tableValues="0 0.5"/></feComponentTransfer><feBlend xmlns="http://www.w3.org/2000/svg" in="SourceGraphic" in2="opacOut" mode="normal"/></filter></defs><g filter="url(#LgU4pFaPyJI9NHA3GdvHwIvkdq8NCbE3)"><path d=" M 438.295 131.879 L 309.396 131.879 C 305.788 131.879 302.864 128.954 302.864 125.348 C 302.864 121.74 305.788 118.814 309.396 118.814 L 438.295 118.814 C 441.903 118.814 444.828 121.74 444.828 125.348 C 444.828 128.954 441.904 131.879 438.295 131.879 Z " fill="rgb(255,255,255)"/></g><defs><filter id="jKM7QNc4K9gzCinLABs04nLdW193RgRO" x="-200%" y="-200%" width="400%" height="400%"><feOffset xmlns="http://www.w3.org/2000/svg" in="SourceAlpha" result="offOut" dx="0" dy="2"/><feGaussianBlur xmlns="http://www.w3.org/2000/svg" in="offOut" result="blurOut" stdDeviation="2"/><feComponentTransfer xmlns="http://www.w3.org/2000/svg" in="blurOut" result="opacOut"><feFuncA xmlns="http://www.w3.org/2000/svg" type="table" tableValues="0 0.5"/></feComponentTransfer><feBlend xmlns="http://www.w3.org/2000/svg" in="SourceGraphic" in2="opacOut" mode="normal"/></filter></defs><g filter="url(#jKM7QNc4K9gzCinLABs04nLdW193RgRO)"><path d=" M 425.861 162.245 L 321.835 162.245 C 318.229 162.245 315.303 159.318 315.303 155.71 C 315.303 152.101 318.229 149.18 321.835 149.18 L 425.861 149.18 C 429.468 149.18 432.395 152.102 432.395 155.71 C 432.395 159.317 429.47 162.245 425.861 162.245 Z " fill="rgb(255,255,255)"/></g><defs><filter id="BtJd6V5xcuyQbUv8UnNsCTU0TmPUAhYq" x="-200%" y="-200%" width="400%" height="400%"><feOffset xmlns="http://www.w3.org/2000/svg" in="SourceAlpha" result="offOut" dx="0" dy="2"/><feGaussianBlur xmlns="http://www.w3.org/2000/svg" in="offOut" result="blurOut" stdDeviation="2"/><feComponentTransfer xmlns="http://www.w3.org/2000/svg" in="blurOut" result="opacOut"><feFuncA xmlns="http://www.w3.org/2000/svg" type="table" tableValues="0 0.5"/></feComponentTransfer><feBlend xmlns="http://www.w3.org/2000/svg" in="SourceGraphic" in2="opacOut" mode="normal"/></filter></defs><g filter="url(#BtJd6V5xcuyQbUv8UnNsCTU0TmPUAhYq)"><path d=" M 413.96 192.614 L 333.73 192.614 C 330.122 192.614 327.198 189.687 327.198 186.077 C 327.198 182.47 330.123 179.545 333.73 179.545 L 413.96 179.545 C 417.568 179.545 420.494 182.47 420.494 186.077 C 420.494 189.687 417.568 192.614 413.96 192.614 Z " fill="rgb(255,255,255)"/></g></g></g></g></g></svg>