<?xml version="1.0" standalone="no"?><!-- Generator: Gravit.io --><svg xmlns="http://www.w3.org/2000/svg" xmlns:xlink="http://www.w3.org/1999/xlink" style="isolation:isolate" viewBox="16 16 480 480" width="480" height="480"><g style="isolation:isolate" id="messaging-illustration"><rect x="16" y="16" width="480" height="480" transform="matrix(1,0,0,1,0,0)" fill="none"/><mask id="_mask_Pp8zmjreABEcNVUTE4zOpZnsUovymade" x="-200%" y="-200%" width="400%" height="400%"><rect x="0" y="0" width="100%" height="100%" style="fill:white;"/><path d=" M 21 256 C 21 126.3 126.3 21 256 21 C 385.7 21 491 126.3 491 256 C 491 385.7 385.7 491 256 491 C 126.3 491 21 385.7 21 256 Z " fill="black" fill-opacity="0.1" stroke="none"/></mask><path d=" M 21 256 C 21 126.3 126.3 21 256 21 C 385.7 21 491 126.3 491 256 C 491 385.7 385.7 491 256 491 C 126.3 491 21 385.7 21 256 Z " fill="rgb(62,64,74)" fill-opacity="0.1" mask="url(#_mask_Pp8zmjreABEcNVUTE4zOpZnsUovymade)" vector-effect="non-scaling-stroke" stroke-width="4" stroke="rgb(62,64,74)" stroke-opacity="0.1" stroke-linejoin="round" stroke-linecap="round" stroke-miterlimit="3"/><g id="Foreground"><linearGradient id="_lgradient_66" x1="-3.9272112161603165%" y1="-2.64584012781762%" x2="101.06359496101459%" y2="101.5370945631903%"><stop offset="1.7391304347826086%" stop-opacity="1" style="stop-color:rgb(86,110,242)"/><stop offset="99.1304347826087%" stop-opacity="1" style="stop-color:rgb(47,60,130)"/></linearGradient><path d=" M 93.516 187.23 L 93.516 146.754 C 93.516 145.094 94.228 143.433 95.414 142.247 C 96.6 141.061 98.261 140.349 99.921 140.349 L 349.229 140.349 L 349.229 140.349 C 350.889 140.349 352.55 141.061 353.736 142.247 C 354.922 143.433 355.633 145.094 355.633 146.754 L 355.633 277.457 C 355.633 279.117 354.922 280.778 353.736 281.964 C 352.55 283.15 350.889 283.861 349.229 283.861 L 99.921 283.861 C 98.261 283.861 96.6 283.15 95.414 281.964 C 94.228 280.778 93.516 279.117 93.516 277.457 L 93.516 238.404 L 80.114 225.982 L 66 212.817 L 66 212.817 L 80.114 199.652 L 93.516 187.23 Z " fill="url(#_lgradient_66)" vector-effect="non-scaling-stroke" stroke-width="2" stroke="rgb(29,41,47)" stroke-linejoin="round" stroke-linecap="round" stroke-miterlimit="3"/><clipPath id="_clipPath_EIXkDfY6GOcUP7wSjWIkcH5F04v2yUCa"><linearGradient id="_lgradient_66" x1="-3.9272112161603165%" y1="-2.64584012781762%" x2="101.06359496101459%" y2="101.5370945631903%"><stop offset="1.7391304347826086%" stop-opacity="1" style="stop-color:rgb(86,110,242)"/><stop offset="99.1304347826087%" stop-opacity="1" style="stop-color:rgb(47,60,130)"/></linearGradient><path d=" M 93.516 187.23 L 93.516 146.754 C 93.516 145.094 94.228 143.433 95.414 142.247 C 96.6 141.061 98.261 140.349 99.921 140.349 L 349.229 140.349 L 349.229 140.349 C 350.889 140.349 352.55 141.061 353.736 142.247 C 354.922 143.433 355.633 145.094 355.633 146.754 L 355.633 277.457 C 355.633 279.117 354.922 280.778 353.736 281.964 C 352.55 283.15 350.889 283.861 349.229 283.861 L 99.921 283.861 C 98.261 283.861 96.6 283.15 95.414 281.964 C 94.228 280.778 93.516 279.117 93.516 277.457 L 93.516 238.404 L 80.114 225.982 L 66 212.817 L 66 212.817 L 80.114 199.652 L 93.516 187.23 Z " fill="url(#_lgradient_66)" vector-effect="non-scaling-stroke" stroke-width="2" stroke="rgb(29,41,47)" stroke-linejoin="round" stroke-linecap="round" stroke-miterlimit="3"/></clipPath><g clip-path="url(#_clipPath_EIXkDfY6GOcUP7wSjWIkcH5F04v2yUCa)"><defs><filter id="piyBkDtv1jEtENQPESHswGYGOLYCa0Ct" x="-200%" y="-200%" width="400%" height="400%"><feOffset xmlns="http://www.w3.org/2000/svg" in="SourceAlpha" result="offOut" dx="0" dy="2"/><feGaussianBlur xmlns="http://www.w3.org/2000/svg" in="offOut" result="blurOut" stdDeviation="2"/><feComponentTransfer xmlns="http://www.w3.org/2000/svg" in="blurOut" result="opacOut"><feFuncA xmlns="http://www.w3.org/2000/svg" type="table" tableValues="0 0.5"/></feComponentTransfer><feBlend xmlns="http://www.w3.org/2000/svg" in="SourceGraphic" in2="opacOut" mode="normal"/></filter></defs><g filter="url(#piyBkDtv1jEtENQPESHswGYGOLYCa0Ct)"><path d=" M 268.544 212.105 C 268.544 199.287 278.95 188.881 291.769 188.881 C 304.587 188.881 314.993 199.287 314.993 212.105 C 314.993 224.923 304.587 235.33 291.769 235.33 C 278.95 235.33 268.544 224.923 268.544 212.105 Z  M 200.299 212.105 C 200.299 199.287 210.705 188.881 223.524 188.881 C 236.342 188.881 246.748 199.287 246.748 212.105 C 246.748 224.923 236.342 235.33 223.524 235.33 C 210.705 235.33 200.299 224.923 200.299 212.105 Z  M 132.054 212.105 C 132.054 199.287 142.461 188.881 155.279 188.881 C 168.097 188.881 178.503 199.287 178.503 212.105 C 178.503 224.923 168.097 235.33 155.279 235.33 C 142.461 235.33 132.054 224.923 132.054 212.105 Z " fill-rule="evenodd" fill="rgb(235,235,235)"/></g><path d=" M 96.048 197.17 L 78.903 213.114 M 102.59 180.907 C 102.59 179.474 102.579 178.116 102.533 177.013 M 102.533 172.368 C 102.207 145.313 98.978 148.876 127.486 148.876" fill="none" vector-effect="non-scaling-stroke" stroke-width="2" stroke="rgb(255,255,255)" stroke-opacity="0.26" stroke-linejoin="round" stroke-linecap="round" stroke-miterlimit="3"/><path d=" M 86.801 270.691 L 395.367 270.691 L 373.965 312.587 L 78.815 306.797 L 86.801 270.691 Z " fill="rgb(29,41,47)" fill-opacity="0.2"/></g><defs><filter id="lNi5XYQecGqsONnpinL6e96ROWPfoBSt" x="-200%" y="-200%" width="400%" height="400%"><feOffset xmlns="http://www.w3.org/2000/svg" in="SourceAlpha" result="offOut" dx="0" dy="-2"/><feGaussianBlur xmlns="http://www.w3.org/2000/svg" in="offOut" result="blurOut" stdDeviation="2"/><feComponentTransfer xmlns="http://www.w3.org/2000/svg" in="blurOut" result="opacOut"><feFuncA xmlns="http://www.w3.org/2000/svg" type="table" tableValues="0 0.5"/></feComponentTransfer><feBlend xmlns="http://www.w3.org/2000/svg" in="SourceGraphic" in2="opacOut" mode="normal"/></filter></defs><g filter="url(#lNi5XYQecGqsONnpinL6e96ROWPfoBSt)"><linearGradient id="_lgradient_67" x1="-3.9272112161603165%" y1="-2.64584012781762%" x2="101.06359496101459%" y2="101.5370945631903%"><stop offset="1.7391304347826086%" stop-opacity="1" style="stop-color:rgb(86,110,242)"/><stop offset="99.1304347826087%" stop-opacity="1" style="stop-color:rgb(47,60,130)"/></linearGradient><path d=" M 418.484 275.019 L 418.484 234.543 C 418.484 232.883 417.772 231.222 416.586 230.036 C 415.4 228.85 413.739 228.139 412.079 228.139 L 162.771 228.139 L 162.771 228.139 C 161.111 228.139 159.45 228.85 158.264 230.036 C 157.078 231.222 156.367 232.883 156.367 234.543 L 156.367 365.246 C 156.367 366.906 157.078 368.567 158.264 369.753 C 159.45 370.939 161.111 371.651 162.771 371.651 L 412.079 371.651 C 413.739 371.651 415.4 370.939 416.586 369.753 C 417.772 368.567 418.484 366.906 418.484 365.246 L 418.484 326.193 L 431.886 313.771 L 446 300.606 L 446 300.606 L 431.886 287.441 L 418.484 275.019 Z " fill="url(#_lgradient_67)" vector-effect="non-scaling-stroke" stroke-width="2" stroke="rgb(29,41,47)" stroke-linejoin="round" stroke-linecap="round" stroke-miterlimit="3"/><clipPath id="_clipPath_oiISJvw9BYEFSH9dl6wQfN2vVE1vLDUi"><g filter="url(#lNi5XYQecGqsONnpinL6e96ROWPfoBSt)"><linearGradient id="_lgradient_67" x1="-3.9272112161603165%" y1="-2.64584012781762%" x2="101.06359496101459%" y2="101.5370945631903%"><stop offset="1.7391304347826086%" stop-opacity="1" style="stop-color:rgb(86,110,242)"/><stop offset="99.1304347826087%" stop-opacity="1" style="stop-color:rgb(47,60,130)"/></linearGradient><path d=" M 418.484 275.019 L 418.484 234.543 C 418.484 232.883 417.772 231.222 416.586 230.036 C 415.4 228.85 413.739 228.139 412.079 228.139 L 162.771 228.139 L 162.771 228.139 C 161.111 228.139 159.45 228.85 158.264 230.036 C 157.078 231.222 156.367 232.883 156.367 234.543 L 156.367 365.246 C 156.367 366.906 157.078 368.567 158.264 369.753 C 159.45 370.939 161.111 371.651 162.771 371.651 L 412.079 371.651 C 413.739 371.651 415.4 370.939 416.586 369.753 C 417.772 368.567 418.484 366.906 418.484 365.246 L 418.484 326.193 L 431.886 313.771 L 446 300.606 L 446 300.606 L 431.886 287.441 L 418.484 275.019 Z " fill="url(#_lgradient_67)" vector-effect="non-scaling-stroke" stroke-width="2" stroke="rgb(29,41,47)" stroke-linejoin="round" stroke-linecap="round" stroke-miterlimit="3"/></g></clipPath><g clip-path="url(#_clipPath_oiISJvw9BYEFSH9dl6wQfN2vVE1vLDUi)"><defs><filter id="BJZF37rTKEV3Of8jISlgKF53HHC9PpuU" x="-200%" y="-200%" width="400%" height="400%"><feOffset xmlns="http://www.w3.org/2000/svg" in="SourceAlpha" result="offOut" dx="0" dy="2"/><feGaussianBlur xmlns="http://www.w3.org/2000/svg" in="offOut" result="blurOut" stdDeviation="2"/><feComponentTransfer xmlns="http://www.w3.org/2000/svg" in="blurOut" result="opacOut"><feFuncA xmlns="http://www.w3.org/2000/svg" type="table" tableValues="0 0.5"/></feComponentTransfer><feBlend xmlns="http://www.w3.org/2000/svg" in="SourceGraphic" in2="opacOut" mode="normal"/></filter></defs><g filter="url(#BJZF37rTKEV3Of8jISlgKF53HHC9PpuU)"><path d=" M 334.442 299.895 C 334.442 287.077 344.848 276.67 357.666 276.67 C 370.484 276.67 380.891 287.077 380.891 299.895 C 380.891 312.713 370.484 323.119 357.666 323.119 C 344.848 323.119 334.442 312.713 334.442 299.895 Z  M 266.197 299.895 C 266.197 287.077 276.603 276.67 289.421 276.67 C 302.24 276.67 312.646 287.077 312.646 299.895 C 312.646 312.713 302.24 323.119 289.421 323.119 C 276.603 323.119 266.197 312.713 266.197 299.895 Z  M 197.952 299.895 C 197.952 287.077 208.358 276.67 221.177 276.67 C 233.995 276.67 244.401 287.077 244.401 299.895 C 244.401 312.713 233.995 323.119 221.177 323.119 C 208.358 323.119 197.952 312.713 197.952 299.895 Z " fill-rule="evenodd" fill="rgb(235,235,235)"/></g><path d=" M 192.261 236.054 C 192.926 236.079 193.789 236.083 194.684 236.083 M 165.142 263.469 C 165.142 233.108 160.457 235.88 187.616 236.054" fill="none" vector-effect="non-scaling-stroke" stroke-width="2" stroke="rgb(255,255,255)" stroke-opacity="0.26" stroke-linejoin="round" stroke-linecap="round" stroke-miterlimit="3"/><path d=" M 443.878 286.006 L 406.751 318.624 L 406.751 376.608 L 443.165 374.951 L 439.398 339.609 L 466.394 311.445 L 472.045 287.148 L 443.878 286.006 Z " fill="rgb(29,41,47)" fill-opacity="0.2"/></g></g></g></g></svg>