<?xml version="1.0" standalone="no"?><!-- Generator: Gravit.io --><svg xmlns="http://www.w3.org/2000/svg" xmlns:xlink="http://www.w3.org/1999/xlink" style="isolation:isolate" viewBox="16 16 698 325" width="698" height="325"><g style="isolation:isolate" id="tox-illustration"><rect x="16" y="16" width="698" height="325" transform="matrix(1,0,0,1,0,0)" fill="none"/><g style="isolation:isolate" id="Background"><g id="City"><path d="M 375.823 253.526 L 384.954 253.526 C 386.022 253.526 386.889 254.393 386.889 255.461 L 386.889 337.954 C 386.889 339.021 386.022 339.888 384.954 339.888 L 375.823 339.888 C 374.756 339.888 373.889 339.021 373.889 337.954 L 373.889 255.461 C 373.889 254.393 374.756 253.526 375.823 253.526 Z" style="stroke:none;fill:#D1D1D1;stroke-miterlimit:10;"/><path d=" M 348.022 341 C 346.289 339.529 345.187 337.336 345.187 334.888 L 345.187 278.982 C 345.187 274.566 348.771 270.982 353.187 270.982 L 361.187 270.982 C 365.602 270.982 369.187 274.566 369.187 278.982 L 369.187 334.888 C 369.187 337.336 368.084 339.529 366.352 341 L 348.022 341 Z " fill="rgb(209,209,209)"/><path d="M 122.522 259.888 L 134.83 259.888 C 136.4 259.888 137.676 261.163 137.676 262.734 L 137.676 337.042 C 137.676 338.613 136.4 339.888 134.83 339.888 L 122.522 339.888 C 120.951 339.888 119.676 338.613 119.676 337.042 L 119.676 262.734 C 119.676 261.163 120.951 259.888 122.522 259.888 Z" style="stroke:none;fill:#D1D1D1;stroke-miterlimit:10;"/><path d=" M 393.755 341 C 391.855 339.444 390.637 337.081 390.637 334.435 L 390.637 295.894 C 390.637 291.228 394.424 287.441 399.089 287.441 L 408.436 287.441 C 413.101 287.441 416.889 291.228 416.889 295.894 L 416.889 334.435 C 416.889 337.081 415.671 339.444 413.771 341 L 393.755 341 Z " fill="rgb(209,209,209)"/><path d="M 337.805 239.071 L 332.568 239.071 C 331.254 239.071 330.187 240.138 330.187 241.452 L 330.187 337.507 C 330.187 338.821 331.254 339.888 332.568 339.888 L 337.805 339.888 C 339.12 339.888 340.187 338.821 340.187 337.507 L 340.187 241.452 C 340.187 240.138 339.12 239.071 337.805 239.071 Z" style="stroke:none;fill:#D1D1D1;stroke-miterlimit:10;"/><path d=" M 183.524 341 C 184.069 339.511 184.378 337.759 184.378 335.888 L 184.378 260.631 C 184.378 255.111 181.689 250.631 178.378 250.631 L 178.378 250.631 C 175.066 250.631 172.378 255.111 172.378 260.631 L 172.378 335.888 C 172.378 337.759 172.687 339.511 173.232 341 L 183.524 341 Z " fill="rgb(209,209,209)"/><path d="M 451.591 266.87 L 459.591 266.87 C 462.903 266.87 465.591 269.558 465.591 272.87 L 465.591 333.888 C 465.591 337.2 462.903 339.888 459.591 339.888 L 451.591 339.888 C 448.28 339.888 445.591 337.2 445.591 333.888 L 445.591 272.87 C 445.591 269.558 448.28 266.87 451.591 266.87 Z" style="stroke:none;fill:#D1D1D1;stroke-miterlimit:10;"/><path d="M 289.484 219.056 L 281.484 219.056 C 278.725 219.056 276.484 221.296 276.484 224.056 L 276.484 334.888 C 276.484 337.648 278.725 339.888 281.484 339.888 L 289.484 339.888 C 292.244 339.888 294.484 337.648 294.484 334.888 L 294.484 224.056 C 294.484 221.296 292.244 219.056 289.484 219.056 Z" style="stroke:none;fill:#D1D1D1;stroke-miterlimit:10;"/><path d=" M 563.813 341 C 564.378 340.098 564.698 339.03 564.698 337.888 L 564.698 232.947 C 564.698 229.636 562.009 226.947 558.698 226.947 L 557.994 226.947 C 554.682 226.947 551.994 229.636 551.994 232.947 L 551.994 337.888 C 551.994 339.03 552.314 340.098 552.878 341 L 563.813 341 Z " fill="rgb(209,209,209)"/><path d="M 215.59 259.888 L 224.57 259.888 C 225.955 259.888 227.08 261.013 227.08 262.398 L 227.08 337.378 C 227.08 338.763 225.955 339.888 224.57 339.888 L 215.59 339.888 C 214.205 339.888 213.08 338.763 213.08 337.378 L 213.08 262.398 C 213.08 261.013 214.205 259.888 215.59 259.888 Z" style="stroke:none;fill:#D1D1D1;stroke-miterlimit:10;"/><path d=" M 492.035 341 C 490.332 339.3 489.293 336.946 489.293 334.351 L 489.293 298.646 C 489.293 293.382 493.566 289.109 498.83 289.109 L 499.757 289.109 C 505.02 289.109 509.293 293.382 509.293 298.646 L 509.293 334.351 C 509.293 336.946 508.255 339.3 506.551 341 L 492.035 341 Z " fill="rgb(209,209,209)"/><path d="M 244.795 240.739 L 234.769 240.739 C 233.121 240.739 231.782 242.077 231.782 243.726 L 231.782 336.901 C 231.782 338.55 233.121 339.888 234.769 339.888 L 244.795 339.888 C 246.444 339.888 247.782 338.55 247.782 336.901 L 247.782 243.726 C 247.782 242.077 246.444 240.739 244.795 240.739 Z" style="stroke:none;fill:#D1D1D1;stroke-miterlimit:10;"/><path d=" M 530.113 341 C 531.844 339.955 532.995 338.055 532.995 335.888 L 532.995 267.888 C 532.995 264.577 530.307 261.888 526.995 261.888 L 518.995 261.888 C 515.684 261.888 512.995 264.577 512.995 267.888 L 512.995 335.888 C 512.995 338.055 514.147 339.955 515.878 341 L 530.113 341 Z " fill="rgb(209,209,209)"/><path d=" M 167.247 341 C 167.74 340.385 168.027 339.662 168.027 338.888 L 168.027 231.888 C 168.027 229.68 165.697 227.888 162.827 227.888 L 162.061 227.888 C 160.173 227.888 158.641 226.355 158.641 224.468 L 158.641 221.584 C 158.641 219.696 157.108 218.164 155.22 218.164 L 154.833 218.164 C 152.945 218.164 151.413 219.696 151.413 221.584 L 151.413 224.468 C 151.413 226.355 149.88 227.888 147.992 227.888 L 147.227 227.888 C 144.357 227.888 142.027 229.68 142.027 231.888 L 142.027 338.888 C 142.027 339.662 142.313 340.385 142.806 341 L 167.247 341 Z " fill="rgb(209,209,209)"/><path d=" M 425.668 240.267 L 425.24 240.267 C 423.032 240.267 421.24 241.82 421.24 243.732 L 421.24 336.423 C 421.24 338.335 423.032 339.888 425.24 339.888 L 437.24 339.888 C 439.448 339.888 441.24 338.335 441.24 336.423 L 441.24 243.732 C 441.24 241.82 439.448 240.267 437.24 240.267 L 436.812 240.267 C 435.271 240.267 434.02 239.016 434.02 237.475 L 434.02 234.635 C 434.02 233.094 432.774 231.843 431.24 231.843 L 431.24 231.843 C 429.706 231.843 428.46 233.094 428.46 234.635 L 428.46 237.475 C 428.46 239.016 427.209 240.267 425.668 240.267 Z " fill="rgb(209,209,209)"/><path d=" M 319.334 247.444 L 320.515 247.444 C 323.451 247.444 325.835 248.885 325.835 250.659 L 325.835 336.673 C 325.835 338.447 323.451 339.888 320.515 339.888 L 304.553 339.888 C 301.616 339.888 299.232 338.447 299.232 336.673 L 299.232 250.659 C 299.232 248.885 301.616 247.444 304.553 247.444 L 305.734 247.444 C 307.446 247.444 308.836 246.054 308.836 244.342 L 308.836 242.729 C 308.836 241.017 310.226 239.627 311.938 239.627 L 313.129 239.627 C 314.842 239.627 316.232 241.017 316.232 242.729 L 316.232 244.342 C 316.232 246.054 317.622 247.444 319.334 247.444 Z " fill="rgb(209,209,209)"/><path d=" M 192.729 199.888 L 192.729 199.888 C 190.521 199.888 188.729 202.07 188.729 204.758 L 188.729 335.018 C 188.729 337.706 190.521 339.888 192.729 339.888 L 204.729 339.888 C 206.937 339.888 208.729 337.706 208.729 335.018 L 208.729 204.758 C 208.729 202.07 206.937 199.888 204.729 199.888 L 204.729 199.888 Q 201.509 199.888 198.729 199.888 L 198.729 199.888 Q 195.949 199.888 192.729 199.888 Z " fill="rgb(209,209,209)"/><path d=" M 472.142 214.123 L 472.142 214.123 C 470.376 214.123 468.942 216.083 468.942 218.497 L 468.942 335.514 C 468.942 337.928 470.376 339.888 472.142 339.888 L 481.742 339.888 C 483.508 339.888 484.942 337.928 484.942 335.514 L 484.942 218.497 C 484.942 216.083 483.508 214.123 481.742 214.123 L 481.742 214.123 C 480.32 214.123 479.166 212.865 479.166 211.317 L 479.166 209.1 C 479.166 206.003 478.17 203.488 476.942 203.488 L 476.942 203.488 C 475.715 203.488 474.718 206.003 474.718 209.1 L 474.718 211.317 C 474.718 212.865 473.564 214.123 472.142 214.123 Z " fill="rgb(209,209,209)"/><path d=" M 267.336 264.873 L 268.133 264.873 C 270.341 264.873 272.133 266.042 272.133 267.482 L 272.133 337.279 C 272.133 338.719 270.341 339.888 268.133 339.888 L 256.133 339.888 C 253.926 339.888 252.133 338.719 252.133 337.279 L 252.133 267.482 C 252.133 266.042 253.926 264.873 256.133 264.873 L 256.93 264.873 C 258.268 264.873 259.353 263.788 259.353 262.45 L 259.353 260.953 C 259.353 259.616 260.439 258.53 261.776 258.53 L 262.49 258.53 C 263.827 258.53 264.913 259.616 264.913 260.953 L 264.913 262.45 C 264.913 263.788 265.999 264.873 267.336 264.873 Z " fill="rgb(209,209,209)"/><path d=" M 545.407 240.267 L 545.407 240.267 C 546.52 240.267 547.423 241.82 547.423 243.732 L 547.423 336.423 C 547.423 338.335 546.52 339.888 545.407 339.888 L 539.362 339.888 C 538.25 339.888 537.347 338.335 537.347 336.423 L 537.347 243.732 C 537.347 241.82 538.25 240.267 539.362 240.267 L 539.362 240.267 C 540.257 240.267 540.984 239.379 540.984 238.285 L 540.984 233.825 C 540.984 232.731 541.612 231.843 542.385 231.843 L 542.385 231.843 C 543.158 231.843 543.785 232.731 543.785 233.825 L 543.785 238.285 C 543.785 239.379 544.512 240.267 545.407 240.267 Z " fill="rgb(209,209,209)"/><path d=" M 114.198 341 C 115.119 340.039 115.676 338.78 115.676 337.402 L 115.676 293.517 C 115.676 290.687 113.327 288.355 110.316 288.062 L 110.316 285.356 L 101.035 285.356 L 101.035 288.062 C 98.024 288.355 95.676 290.687 95.676 293.517 L 95.676 337.402 C 95.676 338.78 96.232 340.039 97.153 341 L 114.198 341 Z  M 104.768 275.209 L 106.584 275.209 L 106.584 285.356 L 104.768 285.356 L 104.768 275.209 Z " fill-rule="evenodd" fill="rgb(209,209,209)"/><path d=" M 630.625 341 C 629.596 339.936 628.971 338.484 628.971 336.888 L 628.971 294.729 C 622.992 296.56 616.75 297.277 610.6 296.7 C 603.137 296.119 595.863 294.316 589.049 291.383 L 589.049 335.888 C 589.049 338.096 587.256 339.888 585.049 339.888 L 573.049 339.888 C 570.841 339.888 569.049 338.096 569.049 335.888 L 569.049 228.888 C 569.049 226.68 570.841 224.888 573.049 224.888 L 573.269 224.888 C 574.925 224.888 576.269 223.544 576.269 221.888 L 576.269 218.164 C 576.269 216.508 577.514 215.164 579.049 215.164 C 580.583 215.164 581.829 216.508 581.829 218.164 L 581.829 221.888 C 581.829 223.544 583.173 224.888 584.829 224.888 L 585.049 224.888 C 587.256 224.888 589.049 226.68 589.049 228.888 L 589.049 289.233 L 589.2 289.3 C 596 292.3 603.3 294.1 610.7 294.7 C 616.855 295.196 623.108 294.51 628.971 292.641 L 628.971 288.888 C 628.971 285.793 631.32 283.242 634.33 282.922 L 634.33 279.961 L 643.612 279.961 L 643.612 282.922 L 643.612 282.922 C 646.623 283.242 648.971 285.793 648.971 288.888 L 648.971 336.888 C 648.971 338.484 648.346 339.936 647.317 341 L 630.625 341 Z  M 638.063 268.864 L 638.063 279.961 L 639.879 279.961 L 639.879 268.864 L 638.063 268.864 L 638.063 268.864 Z " fill-rule="evenodd" fill="rgb(209,209,209)"/></g><g id="Clouds"><path d=" M 122.867 78.957 L 141.765 78.957 M 111.797 78.957 L 116.245 78.957" fill-rule="evenodd" fill="none" vector-effect="non-scaling-stroke" stroke-width="4" stroke="rgb(209,209,209)" stroke-linejoin="round" stroke-linecap="round" stroke-miterlimit="3"/><path d=" M 163.359 144.191 L 176.66 144.191 L 180.789 140.062 L 187.669 140.062 Q 189.504 131.118 197.416 131.118 M 231.359 144.191 L 218.057 144.191 L 213.929 140.062 L 207.048 140.062 Q 205.213 131.118 197.301 131.118" fill-rule="evenodd" fill="none" vector-effect="non-scaling-stroke" stroke-width="4" stroke="rgb(209,209,209)" stroke-linejoin="round" stroke-linecap="round" stroke-miterlimit="3"/><path d=" M 111.079 209.437 L 105.564 211.444 L 103.23 210.355 L 100.377 211.394 Q 98.267 207.962 94.987 209.156 M 82.888 219.697 L 88.402 217.69 L 89.491 215.356 L 92.343 214.318 Q 91.754 210.333 95.034 209.139" fill-rule="evenodd" fill="none" vector-effect="non-scaling-stroke" stroke-width="4" stroke="rgb(209,209,209)" stroke-linejoin="round" stroke-linecap="round" stroke-miterlimit="3"/><path d=" M 508.736 93.682 L 519.299 93.682 L 522.577 90.404 L 528.041 90.404 Q 529.498 83.301 535.781 83.301 M 562.736 93.682 L 552.172 93.682 L 548.894 90.404 L 543.43 90.404 Q 541.973 83.301 535.69 83.301" fill-rule="evenodd" fill="none" vector-effect="non-scaling-stroke" stroke-width="4" stroke="rgb(209,209,209)" stroke-linejoin="round" stroke-linecap="round" stroke-miterlimit="3"/><path d=" M 611.797 148.957 L 616.245 148.957 M 582.867 148.957 L 601.765 148.957" fill-rule="evenodd" fill="none" vector-effect="non-scaling-stroke" stroke-width="4" stroke="rgb(209,209,209)" stroke-linejoin="round" stroke-linecap="round" stroke-miterlimit="3"/></g></g><g style="isolation:isolate" id="Foreground"><g id="Ground"><line x1="87.1" y1="339.918" x2="598.704" y2="339.918" vector-effect="non-scaling-stroke" stroke-width="2" stroke="rgb(29,41,47)" stroke-linejoin="round" stroke-linecap="round" stroke-miterlimit="3"/><line x1="613.715" y1="339.918" x2="665" y2="339.918" vector-effect="non-scaling-stroke" stroke-width="2" stroke="rgb(29,41,47)" stroke-linejoin="round" stroke-linecap="round" stroke-miterlimit="3"/><line x1="65" y1="339.918" x2="73.037" y2="339.918" vector-effect="non-scaling-stroke" stroke-width="2" stroke="rgb(29,41,47)" stroke-linejoin="round" stroke-linecap="round" stroke-miterlimit="3"/></g><g style="isolation:isolate" id="logo-illustration"><g id="Bubbles"><path d=" M 351.871 191.335 C 327.352 182.679 304.266 166.818 301.382 129.319 C 297.055 90.382 325.903 52.883 367.74 48.558 C 408.126 44.235 447.066 74.517 451.394 114.899 C 454.278 146.627 436.97 169.702 411.008 176.913 C 406.681 191.335 408.124 201.43 413.892 201.43 C 393.698 201.43 364.852 195.662 351.871 191.335 Z  M 286.958 184.122 C 269.65 179.797 259.56 165.377 261.001 145.184 C 262.439 127.878 273.977 112.013 289.844 106.247 C 288.401 113.458 286.958 120.667 288.401 129.321 C 282.633 133.648 279.747 139.418 278.304 146.629 C 278.304 159.607 284.074 168.261 294.171 171.147 C 297.055 176.915 295.612 181.242 294.171 181.242 C 298.496 181.242 305.709 181.242 310.036 179.799 C 314.363 184.124 318.69 188.455 324.46 192.78 L 325.903 192.78 L 324.46 192.78 C 315.806 197.105 298.496 199.989 284.074 199.989 C 288.401 199.987 289.844 192.778 286.958 184.122 L 286.958 184.122 Z  M 398.025 158.164 C 413.892 152.394 423.991 137.973 422.548 119.224 C 419.66 93.264 396.582 74.517 370.622 77.401 C 344.662 78.844 327.354 103.361 328.795 127.878 C 331.681 150.954 346.105 161.05 360.527 165.375 C 369.183 169.7 386.489 172.586 399.47 172.586 C 396.582 172.588 395.143 165.377 398.025 158.164 Z " fill-rule="evenodd" fill="rgb(77,99,218)" vector-effect="non-scaling-stroke" stroke-width="2" stroke="rgb(29,41,47)" stroke-linejoin="miter" stroke-linecap="butt" stroke-miterlimit="3"/><clipPath id="_clipPath_EeOJsag7j5TvfCzNBFYKbTeMNKcn46nk"><path d=" M 351.871 191.335 C 327.352 182.679 304.266 166.818 301.382 129.319 C 297.055 90.382 325.903 52.883 367.74 48.558 C 408.126 44.235 447.066 74.517 451.394 114.899 C 454.278 146.627 436.97 169.702 411.008 176.913 C 406.681 191.335 408.124 201.43 413.892 201.43 C 393.698 201.43 364.852 195.662 351.871 191.335 Z  M 286.958 184.122 C 269.65 179.797 259.56 165.377 261.001 145.184 C 262.439 127.878 273.977 112.013 289.844 106.247 C 288.401 113.458 286.958 120.667 288.401 129.321 C 282.633 133.648 279.747 139.418 278.304 146.629 C 278.304 159.607 284.074 168.261 294.171 171.147 C 297.055 176.915 295.612 181.242 294.171 181.242 C 298.496 181.242 305.709 181.242 310.036 179.799 C 314.363 184.124 318.69 188.455 324.46 192.78 L 325.903 192.78 L 324.46 192.78 C 315.806 197.105 298.496 199.989 284.074 199.989 C 288.401 199.987 289.844 192.778 286.958 184.122 L 286.958 184.122 Z  M 398.025 158.164 C 413.892 152.394 423.991 137.973 422.548 119.224 C 419.66 93.264 396.582 74.517 370.622 77.401 C 344.662 78.844 327.354 103.361 328.795 127.878 C 331.681 150.954 346.105 161.05 360.527 165.375 C 369.183 169.7 386.489 172.586 399.47 172.586 C 396.582 172.588 395.143 165.377 398.025 158.164 Z " fill-rule="evenodd" fill="rgb(77,99,218)" vector-effect="non-scaling-stroke" stroke-width="2" stroke="rgb(29,41,47)" stroke-linejoin="miter" stroke-linecap="butt" stroke-miterlimit="3"/></clipPath><g clip-path="url(#_clipPath_EeOJsag7j5TvfCzNBFYKbTeMNKcn46nk)"><path d=" M 307.678 120.055 C 309.175 85.207 337.389 57.227 372.336 56.119" fill="none" vector-effect="non-scaling-stroke" stroke-width="2" stroke="rgb(255,255,255)" stroke-opacity="0.25" stroke-linejoin="round" stroke-linecap="round" stroke-miterlimit="3"/><path d=" M 267.17 148.066 C 267.17 137.031 270.444 128.27 278.282 122.508" fill="none" vector-effect="non-scaling-stroke" stroke-width="2.157" stroke="rgb(255,255,255)" stroke-opacity="0.25" stroke-linejoin="round" stroke-linecap="round" stroke-miterlimit="3"/></g><path d=" M 388.403 33.75 C 429.903 36.237 459.913 69.606 465.403 102.75" fill="none" vector-effect="non-scaling-stroke" stroke-width="4" stroke="rgb(209,209,209)" stroke-linejoin="round" stroke-linecap="round" stroke-miterlimit="3"/><path d=" M 413.403 23.75 C 444.403 34.75 460.754 48.588 474.403 77.75" fill="none" vector-effect="non-scaling-stroke" stroke-width="4" stroke="rgb(209,209,209)" stroke-linejoin="round" stroke-linecap="round" stroke-miterlimit="3"/></g></g></g></g></svg>