<?xml version="1.0" standalone="no"?><!-- Generator: Gravit.io --><svg xmlns="http://www.w3.org/2000/svg" xmlns:xlink="http://www.w3.org/1999/xlink" style="isolation:isolate" viewBox="16 16 698 325" width="698" height="325"><g style="isolation:isolate" id="tox-illustration"><rect x="16" y="16" width="698" height="325" transform="matrix(1,0,0,1,0,0)" fill="none"/><g style="isolation:isolate" id="Background"><g id="City"><path d="M 375.823 254.526 L 384.954 254.526 C 386.022 254.526 386.889 255.393 386.889 256.461 L 386.889 338.954 C 386.889 340.021 386.022 340.888 384.954 340.888 L 375.823 340.888 C 374.756 340.888 373.889 340.021 373.889 338.954 L 373.889 256.461 C 373.889 255.393 374.756 254.526 375.823 254.526 Z" style="stroke:none;fill:#D1D1D1;stroke-miterlimit:10;"/><path d=" M 348.022 342 C 346.289 340.529 345.187 338.336 345.187 335.888 L 345.187 279.982 C 345.187 275.566 348.771 271.982 353.187 271.982 L 361.187 271.982 C 365.602 271.982 369.187 275.566 369.187 279.982 L 369.187 335.888 C 369.187 338.336 368.084 340.529 366.352 342 L 348.022 342 Z " fill="rgb(209,209,209)"/><path d="M 122.522 259.888 L 134.83 259.888 C 136.4 259.888 137.676 261.163 137.676 262.734 L 137.676 337.042 C 137.676 338.613 136.4 339.888 134.83 339.888 L 122.522 339.888 C 120.951 339.888 119.676 338.613 119.676 337.042 L 119.676 262.734 C 119.676 261.163 120.951 259.888 122.522 259.888 Z" style="stroke:none;fill:#D1D1D1;stroke-miterlimit:10;"/><path d=" M 393.755 342 C 391.855 340.444 390.637 338.081 390.637 335.435 L 390.637 296.894 C 390.637 292.228 394.424 288.441 399.089 288.441 L 408.436 288.441 C 413.101 288.441 416.889 292.228 416.889 296.894 L 416.889 335.435 C 416.889 338.081 415.671 340.444 413.771 342 L 393.755 342 Z " fill="rgb(209,209,209)"/><path d="M 337.805 240.071 L 332.568 240.071 C 331.254 240.071 330.187 241.138 330.187 242.452 L 330.187 338.507 C 330.187 339.821 331.254 340.888 332.568 340.888 L 337.805 340.888 C 339.12 340.888 340.187 339.821 340.187 338.507 L 340.187 242.452 C 340.187 241.138 339.12 240.071 337.805 240.071 Z" style="stroke:none;fill:#D1D1D1;stroke-miterlimit:10;"/><path d=" M 183.524 341 C 184.069 339.511 184.378 337.759 184.378 335.888 L 184.378 260.631 C 184.378 255.111 181.689 250.631 178.378 250.631 L 178.378 250.631 C 175.066 250.631 172.378 255.111 172.378 260.631 L 172.378 335.888 C 172.378 337.759 172.687 339.511 173.232 341 L 183.524 341 Z " fill="rgb(209,209,209)"/><path d="M 451.591 267.87 L 459.591 267.87 C 462.903 267.87 465.591 270.558 465.591 273.87 L 465.591 334.888 C 465.591 338.2 462.903 340.888 459.591 340.888 L 451.591 340.888 C 448.28 340.888 445.591 338.2 445.591 334.888 L 445.591 273.87 C 445.591 270.558 448.28 267.87 451.591 267.87 Z" style="stroke:none;fill:#D1D1D1;stroke-miterlimit:10;"/><path d="M 289.484 220.056 L 281.484 220.056 C 278.725 220.056 276.484 222.296 276.484 225.056 L 276.484 335.888 C 276.484 338.648 278.725 340.888 281.484 340.888 L 289.484 340.888 C 292.244 340.888 294.484 338.648 294.484 335.888 L 294.484 225.056 C 294.484 222.296 292.244 220.056 289.484 220.056 Z" style="stroke:none;fill:#D1D1D1;stroke-miterlimit:10;"/><path d=" M 563.813 342 C 564.378 341.098 564.698 340.03 564.698 338.888 L 564.698 233.947 C 564.698 230.636 562.009 227.947 558.698 227.947 L 557.994 227.947 C 554.682 227.947 551.994 230.636 551.994 233.947 L 551.994 338.888 C 551.994 340.03 552.314 341.098 552.878 342 L 563.813 342 Z " fill="rgb(209,209,209)"/><path d="M 215.59 260.888 L 224.57 260.888 C 225.955 260.888 227.08 262.013 227.08 263.398 L 227.08 338.378 C 227.08 339.763 225.955 340.888 224.57 340.888 L 215.59 340.888 C 214.205 340.888 213.08 339.763 213.08 338.378 L 213.08 263.398 C 213.08 262.013 214.205 260.888 215.59 260.888 Z" style="stroke:none;fill:#D1D1D1;stroke-miterlimit:10;"/><path d=" M 492.035 342 C 490.332 340.3 489.293 337.946 489.293 335.351 L 489.293 299.646 C 489.293 294.382 493.566 290.109 498.83 290.109 L 499.757 290.109 C 505.02 290.109 509.293 294.382 509.293 299.646 L 509.293 335.351 C 509.293 337.946 508.255 340.3 506.551 342 L 492.035 342 Z " fill="rgb(209,209,209)"/><path d="M 244.795 240.739 L 234.769 240.739 C 233.121 240.739 231.782 242.077 231.782 243.726 L 231.782 336.901 C 231.782 338.55 233.121 339.888 234.769 339.888 L 244.795 339.888 C 246.444 339.888 247.782 338.55 247.782 336.901 L 247.782 243.726 C 247.782 242.077 246.444 240.739 244.795 240.739 Z" style="stroke:none;fill:#D1D1D1;stroke-miterlimit:10;"/><path d=" M 530.113 341 C 531.844 339.955 532.995 338.055 532.995 335.888 L 532.995 267.888 C 532.995 264.577 530.307 261.888 526.995 261.888 L 518.995 261.888 C 515.684 261.888 512.995 264.577 512.995 267.888 L 512.995 335.888 C 512.995 338.055 514.147 339.955 515.878 341 L 530.113 341 Z " fill="rgb(209,209,209)"/><path d=" M 167.247 342 C 167.74 341.385 168.027 340.662 168.027 339.888 L 168.027 232.888 C 168.027 230.68 165.697 228.888 162.827 228.888 L 162.061 228.888 C 160.173 228.888 158.641 227.355 158.641 225.468 L 158.641 222.584 C 158.641 220.696 157.108 219.164 155.22 219.164 L 154.833 219.164 C 152.945 219.164 151.413 220.696 151.413 222.584 L 151.413 225.468 C 151.413 227.355 149.88 228.888 147.992 228.888 L 147.227 228.888 C 144.357 228.888 142.027 230.68 142.027 232.888 L 142.027 339.888 C 142.027 340.662 142.313 341.385 142.806 342 L 167.247 342 Z " fill="rgb(209,209,209)"/><path d=" M 425.668 241.267 L 425.24 241.267 C 423.032 241.267 421.24 242.82 421.24 244.732 L 421.24 337.423 C 421.24 339.335 423.032 340.888 425.24 340.888 L 437.24 340.888 C 439.448 340.888 441.24 339.335 441.24 337.423 L 441.24 244.732 C 441.24 242.82 439.448 241.267 437.24 241.267 L 436.812 241.267 C 435.271 241.267 434.02 240.016 434.02 238.475 L 434.02 235.635 C 434.02 234.094 432.774 232.843 431.24 232.843 L 431.24 232.843 C 429.706 232.843 428.46 234.094 428.46 235.635 L 428.46 238.475 C 428.46 240.016 427.209 241.267 425.668 241.267 Z " fill="rgb(209,209,209)"/><path d=" M 319.334 248.444 L 320.515 248.444 C 323.451 248.444 325.835 249.885 325.835 251.659 L 325.835 337.673 C 325.835 339.447 323.451 340.888 320.515 340.888 L 304.553 340.888 C 301.616 340.888 299.232 339.447 299.232 337.673 L 299.232 251.659 C 299.232 249.885 301.616 248.444 304.553 248.444 L 305.734 248.444 C 307.446 248.444 308.836 247.054 308.836 245.342 L 308.836 243.729 C 308.836 242.017 310.226 240.627 311.938 240.627 L 313.129 240.627 C 314.842 240.627 316.232 242.017 316.232 243.729 L 316.232 245.342 C 316.232 247.054 317.622 248.444 319.334 248.444 Z " fill="rgb(209,209,209)"/><path d=" M 192.729 201.888 L 192.729 201.888 C 190.521 201.888 188.729 204.07 188.729 206.758 L 188.729 337.018 C 188.729 339.706 190.521 341.888 192.729 341.888 L 204.729 341.888 C 206.937 341.888 208.729 339.706 208.729 337.018 L 208.729 206.758 C 208.729 204.07 206.937 201.888 204.729 201.888 L 204.729 201.888 Q 201.509 201.888 198.729 201.888 L 198.729 201.888 Q 195.949 201.888 192.729 201.888 Z " fill="rgb(209,209,209)"/><path d=" M 472.142 214.123 L 472.142 214.123 C 470.376 214.123 468.942 216.083 468.942 218.497 L 468.942 335.514 C 468.942 337.928 470.376 339.888 472.142 339.888 L 481.742 339.888 C 483.508 339.888 484.942 337.928 484.942 335.514 L 484.942 218.497 C 484.942 216.083 483.508 214.123 481.742 214.123 L 481.742 214.123 C 480.32 214.123 479.166 212.865 479.166 211.317 L 479.166 209.1 C 479.166 206.003 478.17 203.488 476.942 203.488 L 476.942 203.488 C 475.715 203.488 474.718 206.003 474.718 209.1 L 474.718 211.317 C 474.718 212.865 473.564 214.123 472.142 214.123 Z " fill="rgb(209,209,209)"/><path d=" M 267.336 264.873 L 268.133 264.873 C 270.341 264.873 272.133 266.042 272.133 267.482 L 272.133 337.279 C 272.133 338.719 270.341 339.888 268.133 339.888 L 256.133 339.888 C 253.926 339.888 252.133 338.719 252.133 337.279 L 252.133 267.482 C 252.133 266.042 253.926 264.873 256.133 264.873 L 256.93 264.873 C 258.268 264.873 259.353 263.788 259.353 262.45 L 259.353 260.953 C 259.353 259.616 260.439 258.53 261.776 258.53 L 262.49 258.53 C 263.827 258.53 264.913 259.616 264.913 260.953 L 264.913 262.45 C 264.913 263.788 265.999 264.873 267.336 264.873 Z " fill="rgb(209,209,209)"/><path d=" M 545.407 241.267 L 545.407 241.267 C 546.52 241.267 547.423 242.82 547.423 244.732 L 547.423 337.423 C 547.423 339.335 546.52 340.888 545.407 340.888 L 539.362 340.888 C 538.25 340.888 537.347 339.335 537.347 337.423 L 537.347 244.732 C 537.347 242.82 538.25 241.267 539.362 241.267 L 539.362 241.267 C 540.257 241.267 540.984 240.379 540.984 239.285 L 540.984 234.825 C 540.984 233.731 541.612 232.843 542.385 232.843 L 542.385 232.843 C 543.158 232.843 543.785 233.731 543.785 234.825 L 543.785 239.285 C 543.785 240.379 544.512 241.267 545.407 241.267 Z " fill="rgb(209,209,209)"/><path d=" M 114.198 341 C 115.119 340.039 115.676 338.78 115.676 337.402 L 115.676 293.517 C 115.676 290.687 113.327 288.355 110.316 288.062 L 110.316 285.356 L 101.035 285.356 L 101.035 288.062 C 98.024 288.355 95.676 290.687 95.676 293.517 L 95.676 337.402 C 95.676 338.78 96.232 340.039 97.153 341 L 114.198 341 Z  M 104.768 275.209 L 106.584 275.209 L 106.584 285.356 L 104.768 285.356 L 104.768 275.209 Z " fill-rule="evenodd" fill="rgb(209,209,209)"/><path d=" M 630.625 341 C 629.596 339.936 628.971 338.484 628.971 336.888 L 628.971 294.729 C 622.992 296.56 616.75 297.277 610.6 296.7 C 603.137 296.118 595.863 294.316 589.049 291.383 L 589.049 335.888 C 589.049 338.096 587.256 339.888 585.049 339.888 L 573.049 339.888 C 570.841 339.888 569.049 338.096 569.049 335.888 L 569.049 228.888 C 569.049 226.68 570.841 224.888 573.049 224.888 L 573.269 224.888 C 574.925 224.888 576.269 223.544 576.269 221.888 L 576.269 218.164 C 576.269 216.508 577.514 215.164 579.049 215.164 C 580.583 215.164 581.829 216.508 581.829 218.164 L 581.829 221.888 C 581.829 223.544 583.173 224.888 584.829 224.888 L 585.049 224.888 C 587.256 224.888 589.049 226.68 589.049 228.888 L 589.049 289.233 L 589.2 289.3 C 596 292.3 603.3 294.1 610.7 294.7 C 616.855 295.196 623.108 294.51 628.971 292.641 L 628.971 288.888 C 628.971 285.793 631.32 283.242 634.33 282.922 L 634.33 279.961 L 643.612 279.961 L 643.612 282.922 L 643.612 282.922 C 646.623 283.242 648.971 285.793 648.971 288.888 L 648.971 336.888 C 648.971 338.484 648.346 339.936 647.317 341 L 630.625 341 Z  M 638.063 268.864 L 638.063 279.961 L 639.879 279.961 L 639.879 268.864 L 638.063 268.864 L 638.063 268.864 Z " fill-rule="evenodd" fill="rgb(209,209,209)"/></g><g id="Clouds"><path d=" M 122.867 78.957 L 141.765 78.957 M 111.797 78.957 L 116.245 78.957" fill-rule="evenodd" fill="none" vector-effect="non-scaling-stroke" stroke-width="4" stroke="rgb(209,209,209)" stroke-linejoin="round" stroke-linecap="round" stroke-miterlimit="3"/><path d=" M 163.359 144.191 L 176.66 144.191 L 180.789 140.062 L 187.669 140.062 Q 189.504 131.118 197.416 131.118 M 231.359 144.191 L 218.057 144.191 L 213.929 140.062 L 207.048 140.062 Q 205.213 131.118 197.301 131.118" fill-rule="evenodd" fill="none" vector-effect="non-scaling-stroke" stroke-width="4" stroke="rgb(209,209,209)" stroke-linejoin="round" stroke-linecap="round" stroke-miterlimit="3"/><path d=" M 111.079 209.437 L 105.564 211.444 L 103.23 210.355 L 100.377 211.394 Q 98.267 207.962 94.987 209.156 M 82.888 219.697 L 88.402 217.69 L 89.491 215.356 L 92.343 214.318 Q 91.754 210.333 95.034 209.139" fill-rule="evenodd" fill="none" vector-effect="non-scaling-stroke" stroke-width="4" stroke="rgb(209,209,209)" stroke-linejoin="round" stroke-linecap="round" stroke-miterlimit="3"/><path d=" M 508.736 93.682 L 519.299 93.682 L 522.577 90.404 L 528.041 90.404 Q 529.498 83.301 535.781 83.301 M 562.736 93.682 L 552.172 93.682 L 548.894 90.404 L 543.43 90.404 Q 541.973 83.301 535.69 83.301" fill-rule="evenodd" fill="none" vector-effect="non-scaling-stroke" stroke-width="4" stroke="rgb(209,209,209)" stroke-linejoin="round" stroke-linecap="round" stroke-miterlimit="3"/><path d=" M 611.797 148.957 L 616.245 148.957 M 582.867 148.957 L 601.765 148.957" fill-rule="evenodd" fill="none" vector-effect="non-scaling-stroke" stroke-width="4" stroke="rgb(209,209,209)" stroke-linejoin="round" stroke-linecap="round" stroke-miterlimit="3"/></g></g><g style="isolation:isolate" id="Foreground"><g id="Ground"><line x1="87.1" y1="339.918" x2="598.704" y2="339.918" vector-effect="non-scaling-stroke" stroke-width="2" stroke="rgb(29,41,47)" stroke-linejoin="round" stroke-linecap="round" stroke-miterlimit="3"/><line x1="613.715" y1="339.918" x2="665" y2="339.918" vector-effect="non-scaling-stroke" stroke-width="2" stroke="rgb(29,41,47)" stroke-linejoin="round" stroke-linecap="round" stroke-miterlimit="3"/><line x1="65" y1="339.918" x2="73.037" y2="339.918" vector-effect="non-scaling-stroke" stroke-width="2" stroke="rgb(29,41,47)" stroke-linejoin="round" stroke-linecap="round" stroke-miterlimit="3"/></g><g style="isolation:isolate" id="logo-illustration"><linearGradient id="_lgradient_69" x1="-3.9272112161603165%" y1="-2.64584012781762%" x2="101.06359496101459%" y2="101.5370945631903%"><stop offset="1.7391304347826086%" stop-opacity="1" style="stop-color:rgb(86,110,242)"/><stop offset="99.1304347826087%" stop-opacity="1" style="stop-color:rgb(47,60,130)"/></linearGradient><path d=" M 270.814 268.022 L 270.814 268.022 L 257.916 267.228 L 257.916 294.611 L 257.916 294.611 Q 257.916 299.969 259.603 302.35 L 259.603 302.35 L 259.603 302.35 Q 261.289 304.731 265.953 304.731 L 265.953 304.731 L 265.953 304.731 Q 270.616 304.731 273.096 305.029 L 273.096 305.029 L 273.096 305.029 Q 275.576 305.327 278.355 306.914 L 278.355 306.914 L 278.355 306.914 Q 282.918 309.494 282.918 320.209 L 282.918 320.209 L 282.918 320.209 Q 282.918 332.71 277.362 335.488 L 277.362 335.488 L 277.362 335.488 Q 274.386 336.877 272.104 337.175 L 272.104 337.175 L 272.104 337.175 Q 269.822 337.472 265.456 337.472 L 265.456 337.472 L 265.456 337.472 Q 244.82 337.472 234.104 328.146 L 234.104 328.146 L 234.104 328.146 Q 223.389 318.82 223.389 296.596 L 223.389 296.596 L 223.389 267.228 L 223.389 267.228 Q 219.619 267.823 215.253 267.823 L 215.253 267.823 L 215.253 267.823 Q 210.888 267.823 208.011 264.45 L 208.011 264.45 L 208.011 264.45 Q 205.133 261.076 205.133 252.941 L 205.133 252.941 L 205.133 252.941 Q 205.133 244.805 206.125 241.134 L 206.125 241.134 L 206.125 241.134 Q 207.118 237.463 208.904 235.876 L 208.904 235.876 L 208.904 235.876 Q 212.078 233.296 216.841 233.296 L 216.841 233.296 L 223.389 234.09 L 223.389 213.651 L 223.389 213.651 Q 223.389 209.087 223.687 206.905 L 223.687 206.905 L 223.687 206.905 Q 223.984 204.722 225.572 202.142 L 225.572 202.142 L 225.572 202.142 Q 228.151 197.182 240.851 197.182 L 240.851 197.182 L 240.851 197.182 Q 254.344 197.182 256.924 204.523 L 256.924 204.523 L 256.924 204.523 Q 257.916 207.698 257.916 214.643 L 257.916 214.643 L 257.916 234.09 L 257.916 234.09 Q 266.647 233.296 271.112 233.296 L 271.112 233.296 L 271.112 233.296 Q 275.576 233.296 277.858 233.594 L 277.858 233.594 L 277.858 233.594 Q 280.14 233.891 283.117 235.479 L 283.117 235.479 L 283.117 235.479 Q 288.276 238.058 288.276 250.758 L 288.276 250.758 L 288.276 250.758 Q 288.276 263.259 282.918 266.037 L 282.918 266.037 L 282.918 266.037 Q 279.942 267.426 277.66 267.724 L 277.66 267.724 L 277.66 267.724 Q 275.378 268.022 270.814 268.022 Z  M 296.213 285.285 L 296.213 285.285 Q 296.213 261.473 312.882 245.996 L 312.882 245.996 L 312.882 245.996 Q 329.55 230.518 350.98 230.518 L 350.98 230.518 L 350.98 230.518 Q 372.411 230.518 388.881 245.896 L 388.881 245.896 L 388.881 245.896 Q 405.351 261.275 405.351 285.087 L 405.351 285.087 L 405.351 285.087 Q 405.351 301.556 396.818 314.355 L 396.818 314.355 L 396.818 314.355 Q 388.285 327.154 376.082 333.206 L 376.082 333.206 L 376.082 333.206 Q 363.878 339.258 350.782 339.258 L 350.782 339.258 L 350.782 339.258 Q 337.685 339.258 325.383 332.809 L 325.383 332.809 L 325.383 332.809 Q 313.08 326.36 304.647 313.76 L 304.647 313.76 L 304.647 313.76 Q 296.213 301.16 296.213 285.285 L 296.213 285.285 Z  M 337.685 299.473 L 337.685 299.473 L 337.685 299.473 Q 344.035 304.334 350.584 304.334 L 350.584 304.334 L 350.584 304.334 Q 357.132 304.334 363.68 299.374 L 363.68 299.374 L 363.68 299.374 Q 370.228 294.413 370.228 284.69 L 370.228 284.69 L 370.228 284.69 Q 370.228 274.967 364.077 270.204 L 364.077 270.204 L 364.077 270.204 Q 357.925 265.442 350.782 265.442 L 350.782 265.442 L 350.782 265.442 Q 343.638 265.442 337.487 270.403 L 337.487 270.403 L 337.487 270.403 Q 331.336 275.363 331.336 284.987 L 331.336 284.987 L 331.336 284.987 Q 331.336 294.611 337.685 299.473 Z  M 512.702 262.862 L 490.676 285.087 L 512.702 307.311 L 512.702 307.311 Q 519.845 314.454 519.845 319.514 L 519.845 319.514 L 519.845 319.514 Q 519.845 324.574 512.702 331.619 L 512.702 331.619 L 512.702 331.619 Q 505.558 338.663 500.598 338.663 L 500.598 338.663 L 500.598 338.663 Q 495.637 338.663 488.493 331.52 L 488.493 331.52 L 466.666 309.494 L 444.64 331.52 L 444.64 331.52 Q 437.496 338.663 432.635 338.663 L 432.635 338.663 L 432.635 338.663 Q 427.773 338.663 420.531 331.619 L 420.531 331.619 L 420.531 331.619 Q 413.288 324.574 413.288 319.514 L 413.288 319.514 L 413.288 319.514 Q 413.288 314.454 420.431 307.311 L 420.431 307.311 L 442.457 285.087 L 420.431 262.862 L 420.431 262.862 Q 413.288 255.719 413.288 250.659 L 413.288 250.659 L 413.288 250.659 Q 413.288 245.599 420.531 238.455 L 420.531 238.455 L 420.531 238.455 Q 427.773 231.312 432.635 231.312 L 432.635 231.312 L 432.635 231.312 Q 437.496 231.312 444.64 238.455 L 444.64 238.455 L 466.666 260.68 L 488.493 238.455 L 488.493 238.455 Q 495.637 231.312 500.598 231.312 L 500.598 231.312 L 500.598 231.312 Q 505.558 231.312 512.702 238.455 L 512.702 238.455 L 512.702 238.455 Q 519.845 245.599 519.845 250.659 L 519.845 250.659 L 519.845 250.659 Q 519.845 255.719 512.702 262.862 L 512.702 262.862 Z " fill-rule="evenodd" fill="url(#_lgradient_69)" vector-effect="non-scaling-stroke" stroke-width="2" stroke="rgb(29,41,47)" stroke-linejoin="round" stroke-linecap="round" stroke-miterlimit="3"/><g id="Bubbles"><path d=" M 351.871 191.335 C 327.352 182.679 304.266 166.818 301.382 129.319 C 297.055 90.382 325.903 52.883 367.74 48.558 C 408.126 44.235 447.066 74.517 451.394 114.899 C 454.278 146.627 436.97 169.702 411.008 176.913 C 406.681 191.335 408.124 201.43 413.892 201.43 C 393.698 201.43 364.852 195.662 351.871 191.335 Z  M 286.958 184.122 C 269.65 179.797 259.56 165.377 261.001 145.184 C 262.439 127.878 273.977 112.013 289.844 106.247 C 288.401 113.458 286.958 120.667 288.401 129.321 C 282.633 133.648 279.747 139.418 278.304 146.629 C 278.304 159.607 284.074 168.261 294.171 171.147 C 297.055 176.915 295.612 181.242 294.171 181.242 C 298.496 181.242 305.709 181.242 310.036 179.799 C 314.363 184.124 318.69 188.455 324.46 192.78 L 325.903 192.78 L 324.46 192.78 C 315.806 197.105 298.496 199.989 284.074 199.989 C 288.401 199.987 289.844 192.778 286.958 184.122 L 286.958 184.122 Z  M 398.025 158.164 C 413.892 152.394 423.991 137.973 422.548 119.224 C 419.66 93.264 396.582 74.517 370.622 77.401 C 344.662 78.844 327.354 103.361 328.795 127.878 C 331.681 150.954 346.105 161.05 360.527 165.375 C 369.183 169.7 386.489 172.586 399.47 172.586 C 396.582 172.588 395.143 165.377 398.025 158.164 Z " fill-rule="evenodd" fill="rgb(77,99,218)" vector-effect="non-scaling-stroke" stroke-width="2" stroke="rgb(29,41,47)" stroke-linejoin="miter" stroke-linecap="butt" stroke-miterlimit="3"/><clipPath id="_clipPath_gwsxx6yq6aIuVg00XeVKSM8nzdlo8ykh"><path d=" M 351.871 191.335 C 327.352 182.679 304.266 166.818 301.382 129.319 C 297.055 90.382 325.903 52.883 367.74 48.558 C 408.126 44.235 447.066 74.517 451.394 114.899 C 454.278 146.627 436.97 169.702 411.008 176.913 C 406.681 191.335 408.124 201.43 413.892 201.43 C 393.698 201.43 364.852 195.662 351.871 191.335 Z  M 286.958 184.122 C 269.65 179.797 259.56 165.377 261.001 145.184 C 262.439 127.878 273.977 112.013 289.844 106.247 C 288.401 113.458 286.958 120.667 288.401 129.321 C 282.633 133.648 279.747 139.418 278.304 146.629 C 278.304 159.607 284.074 168.261 294.171 171.147 C 297.055 176.915 295.612 181.242 294.171 181.242 C 298.496 181.242 305.709 181.242 310.036 179.799 C 314.363 184.124 318.69 188.455 324.46 192.78 L 325.903 192.78 L 324.46 192.78 C 315.806 197.105 298.496 199.989 284.074 199.989 C 288.401 199.987 289.844 192.778 286.958 184.122 L 286.958 184.122 Z  M 398.025 158.164 C 413.892 152.394 423.991 137.973 422.548 119.224 C 419.66 93.264 396.582 74.517 370.622 77.401 C 344.662 78.844 327.354 103.361 328.795 127.878 C 331.681 150.954 346.105 161.05 360.527 165.375 C 369.183 169.7 386.489 172.586 399.47 172.586 C 396.582 172.588 395.143 165.377 398.025 158.164 Z " fill-rule="evenodd" fill="rgb(77,99,218)" vector-effect="non-scaling-stroke" stroke-width="2" stroke="rgb(29,41,47)" stroke-linejoin="miter" stroke-linecap="butt" stroke-miterlimit="3"/></clipPath><g clip-path="url(#_clipPath_gwsxx6yq6aIuVg00XeVKSM8nzdlo8ykh)"><path d=" M 307.678 120.055 C 309.175 85.207 337.389 57.227 372.336 56.119" fill="none" vector-effect="non-scaling-stroke" stroke-width="2" stroke="rgb(255,255,255)" stroke-opacity="0.25" stroke-linejoin="round" stroke-linecap="round" stroke-miterlimit="3"/><path d=" M 267.17 148.066 C 267.17 137.031 270.444 128.27 278.282 122.508" fill="none" vector-effect="non-scaling-stroke" stroke-width="2.157" stroke="rgb(255,255,255)" stroke-opacity="0.25" stroke-linejoin="round" stroke-linecap="round" stroke-miterlimit="3"/></g><path d=" M 388.403 33.75 C 429.903 36.237 459.913 69.606 465.403 102.75" fill="none" vector-effect="non-scaling-stroke" stroke-width="4" stroke="rgb(209,209,209)" stroke-linejoin="round" stroke-linecap="round" stroke-miterlimit="3"/><path d=" M 413.403 23.75 C 444.403 34.75 460.754 48.588 474.403 77.75" fill="none" vector-effect="non-scaling-stroke" stroke-width="4" stroke="rgb(209,209,209)" stroke-linejoin="round" stroke-linecap="round" stroke-miterlimit="3"/></g></g></g></g></svg>