<?xml version="1.0" standalone="no"?><!-- Generator: Gravit.io --><svg xmlns="http://www.w3.org/2000/svg" xmlns:xlink="http://www.w3.org/1999/xlink" style="isolation:isolate" viewBox="16 16 480 480.004" width="480" height="480.004"><g style="isolation:isolate" id="video-illustration"><rect x="16" y="16" width="480" height="480" transform="matrix(1,0,0,1,0,0)" fill="none"/><g id="Ground"><line x1="117.682" y1="494.504" x2="372.321" y2="494.504" vector-effect="non-scaling-stroke" stroke-width="2.985" stroke="rgb(29,41,47)" stroke-linejoin="round" stroke-linecap="round" stroke-miterlimit="3"/><line x1="379.792" y1="494.504" x2="405.318" y2="494.504" vector-effect="non-scaling-stroke" stroke-width="2.985" stroke="rgb(29,41,47)" stroke-linejoin="round" stroke-linecap="round" stroke-miterlimit="3"/><line x1="106.682" y1="494.504" x2="110.682" y2="494.504" vector-effect="non-scaling-stroke" stroke-width="3" stroke="rgb(29,41,47)" stroke-linejoin="round" stroke-linecap="round" stroke-miterlimit="3"/></g><g id="Screen"><path d=" M 221.056 435.146 L 214.099 479.561 L 297.901 479.561 L 288.804 435.146 L 436.8 435.146 C 451.15 435.146 462.8 423.496 462.8 409.146 L 462.8 174.599 C 462.8 160.249 451.15 148.599 436.8 148.599 L 74.118 148.599 C 59.768 148.599 48.118 160.249 48.118 174.599 L 48.118 409.146 C 48.118 423.496 59.768 435.146 74.118 435.146 L 221.056 435.146 Z  M 203.5 479.561 L 213.882 479.561 L 308.5 479.561 C 312.639 479.561 316 482.473 316 486.061 L 316 486.061 C 316 489.648 312.639 492.561 308.5 492.561 L 203.5 492.561 C 199.361 492.561 196 489.648 196 486.061 L 196 486.061 C 196 482.473 199.361 479.561 203.5 479.561 Z " fill-rule="evenodd" fill="rgb(193,197,199)" vector-effect="non-scaling-stroke" stroke-width="2" stroke="rgb(29,41,47)" stroke-linejoin="miter" stroke-linecap="square" stroke-miterlimit="3"/><clipPath id="_clipPath_uuyBUKIB2MjZ17vaiBlOvjKFc54o5xLM"><path d=" M 221.056 435.146 L 214.099 479.561 L 297.901 479.561 L 288.804 435.146 L 436.8 435.146 C 451.15 435.146 462.8 423.496 462.8 409.146 L 462.8 174.599 C 462.8 160.249 451.15 148.599 436.8 148.599 L 74.118 148.599 C 59.768 148.599 48.118 160.249 48.118 174.599 L 48.118 409.146 C 48.118 423.496 59.768 435.146 74.118 435.146 L 221.056 435.146 Z  M 203.5 479.561 L 213.882 479.561 L 308.5 479.561 C 312.639 479.561 316 482.473 316 486.061 L 316 486.061 C 316 489.648 312.639 492.561 308.5 492.561 L 203.5 492.561 C 199.361 492.561 196 489.648 196 486.061 L 196 486.061 C 196 482.473 199.361 479.561 203.5 479.561 Z " fill-rule="evenodd" fill="rgb(193,197,199)" vector-effect="non-scaling-stroke" stroke-width="2" stroke="rgb(29,41,47)" stroke-linejoin="miter" stroke-linecap="square" stroke-miterlimit="3"/></clipPath><g clip-path="url(#_clipPath_uuyBUKIB2MjZ17vaiBlOvjKFc54o5xLM)"><path d="M 48.118 148.599 L 462.8 148.599 C 462.8 148.599 462.8 148.599 462.8 148.599 L 462.8 404.95 C 462.8 404.95 462.8 404.95 462.8 404.95 L 48.118 404.95 C 48.118 404.95 48.118 404.95 48.118 404.95 L 48.118 148.599 C 48.118 148.599 48.118 148.599 48.118 148.599 Z" style="stroke:none;fill:#3E404A;stroke-miterlimit:10;"/><clipPath id="_clipPath_k1sby0VtjRDo70KfW4n293vafcjRl38P"><path d="M 48.118 148.599 L 462.8 148.599 C 462.8 148.599 462.8 148.599 462.8 148.599 L 462.8 404.95 C 462.8 404.95 462.8 404.95 462.8 404.95 L 48.118 404.95 C 48.118 404.95 48.118 404.95 48.118 404.95 L 48.118 148.599 C 48.118 148.599 48.118 148.599 48.118 148.599 Z" style="stroke:black;fill:white;stroke-miterlimit:10;"/></clipPath><g clip-path="url(#_clipPath_k1sby0VtjRDo70KfW4n293vafcjRl38P)"><path d="M 89.774 173.01 L 421.145 173.01 C 431.006 173.01 439.012 181.015 439.012 190.876 L 439.012 408.169 C 439.012 418.03 431.006 426.036 421.145 426.036 L 89.774 426.036 C 79.913 426.036 71.907 418.03 71.907 408.169 L 71.907 190.876 C 71.907 181.015 79.913 173.01 89.774 173.01 Z" style="stroke:none;fill:#3E404A;stroke-miterlimit:10;"/><clipPath id="_clipPath_miWYvpr3iYzUYrKNGm3RjMnBWINaxSex"><path d="M 89.774 173.01 L 421.145 173.01 C 431.006 173.01 439.012 181.015 439.012 190.876 L 439.012 408.169 C 439.012 418.03 431.006 426.036 421.145 426.036 L 89.774 426.036 C 79.913 426.036 71.907 418.03 71.907 408.169 L 71.907 190.876 C 71.907 181.015 79.913 173.01 89.774 173.01 Z" style="stroke:black;fill:white;stroke-miterlimit:10;"/></clipPath><g clip-path="url(#_clipPath_miWYvpr3iYzUYrKNGm3RjMnBWINaxSex)"><linearGradient id="_lgradient_55" x1="49.09393381421649%" y1="-25.35852729706891%" x2="49.66518522041243%" y2="122.54964331698079%"><stop offset="1.7391304347826086%" stop-opacity="1" style="stop-color:rgb(86,110,242)"/><stop offset="98.69565217391305%" stop-opacity="1" style="stop-color:rgb(64,76,147)"/></linearGradient><rect x="72.155" y="173.01" width="368" height="233" transform="matrix(1,0,0,1,0,0)" fill="url(#_lgradient_55)"/><clipPath id="_clipPath_5dbTfJLnqk4x19vpablrUxr8zCt3hPNs"><linearGradient id="_lgradient_55" x1="49.09393381421649%" y1="-25.35852729706891%" x2="49.66518522041243%" y2="122.54964331698079%"><stop offset="1.7391304347826086%" stop-opacity="1" style="stop-color:rgb(86,110,242)"/><stop offset="98.69565217391305%" stop-opacity="1" style="stop-color:rgb(64,76,147)"/></linearGradient><rect x="72.155" y="173.01" width="368" height="233" transform="matrix(1,0,0,1,0,0)" fill="url(#_lgradient_55)"/></clipPath><g clip-path="url(#_clipPath_5dbTfJLnqk4x19vpablrUxr8zCt3hPNs)"><g id="Group"><g id="Group"><linearGradient id="_lgradient_56" x1="-3.9272112161603534%" y1="-2.6458401278176225%" x2="101.06359496101456%" y2="101.53709456319024%"><stop offset="2.1739130434782608%" stop-opacity="1" style="stop-color:rgb(92,95,106)"/><stop offset="98.69565217391305%" stop-opacity="1" style="stop-color:rgb(45,51,75)"/></linearGradient><path d=" M 283.419 322.124 C 300.586 312.349 312.175 293.858 312.175 272.675 C 312.175 241.307 286.761 215.841 255.459 215.841 C 224.157 215.841 198.744 241.307 198.744 272.675 C 198.744 293.858 210.333 312.349 227.499 322.124 C 192.902 333.804 167.959 366.543 167.959 405.061 C 167.959 453.353 207.167 492.561 255.459 492.561 C 303.752 492.561 342.959 453.353 342.959 405.061 C 342.959 366.543 318.017 333.804 283.419 322.124 Z " fill="url(#_lgradient_56)" vector-effect="non-scaling-stroke" stroke-width="2" stroke="rgb(29,41,47)" stroke-linejoin="round" stroke-linecap="round" stroke-miterlimit="4"/><clipPath id="_clipPath_5Q4RQEiY0TKaZqVX0zEy6CfEiO3CFFqe"><linearGradient id="_lgradient_56" x1="-3.9272112161603534%" y1="-2.6458401278176225%" x2="101.06359496101456%" y2="101.53709456319024%"><stop offset="2.1739130434782608%" stop-opacity="1" style="stop-color:rgb(92,95,106)"/><stop offset="98.69565217391305%" stop-opacity="1" style="stop-color:rgb(45,51,75)"/></linearGradient><path d=" M 283.419 322.124 C 300.586 312.349 312.175 293.858 312.175 272.675 C 312.175 241.307 286.761 215.841 255.459 215.841 C 224.157 215.841 198.744 241.307 198.744 272.675 C 198.744 293.858 210.333 312.349 227.499 322.124 C 192.902 333.804 167.959 366.543 167.959 405.061 C 167.959 453.353 207.167 492.561 255.459 492.561 C 303.752 492.561 342.959 453.353 342.959 405.061 C 342.959 366.543 318.017 333.804 283.419 322.124 Z " fill="url(#_lgradient_56)" vector-effect="non-scaling-stroke" stroke-width="2" stroke="rgb(29,41,47)" stroke-linejoin="round" stroke-linecap="round" stroke-miterlimit="4"/></clipPath><g clip-path="url(#_clipPath_5Q4RQEiY0TKaZqVX0zEy6CfEiO3CFFqe)"><path d=" M 311.732 269.832 C 308.2 290.336 298.393 307.584 282.283 321.548 Q 300.938 327.112 317.491 310.084 L 311.732 269.832 Z " fill="rgb(29,41,47)" fill-opacity="0.2"/><path d=" M 316.281 342.378 C 335.979 387.443 337.186 417.86 320.351 432.881 Q 339.007 438.445 410.854 375.18 L 316.281 342.378 Z " fill="rgb(29,41,47)" fill-opacity="0.2"/></g><path d=" M 208.765 250.301 C 214.983 236.047 232.371 220.918 255.606 220.301" fill="none" vector-effect="non-scaling-stroke" stroke-width="2" stroke="rgb(255,255,255)" stroke-opacity="0.26" stroke-linejoin="round" stroke-linecap="round" stroke-miterlimit="3"/><defs><filter id="y7EwWriGPj6lvtGGtkknMdn81KlWZfam" x="-200%" y="-200%" width="400%" height="400%"><feOffset xmlns="http://www.w3.org/2000/svg" in="SourceAlpha" result="offOut" dx="0" dy="2"/><feGaussianBlur xmlns="http://www.w3.org/2000/svg" in="offOut" result="blurOut" stdDeviation="2"/><feComponentTransfer xmlns="http://www.w3.org/2000/svg" in="blurOut" result="opacOut"><feFuncA xmlns="http://www.w3.org/2000/svg" type="table" tableValues="0 0.5"/></feComponentTransfer><feBlend xmlns="http://www.w3.org/2000/svg" in="SourceGraphic" in2="opacOut" mode="normal"/></filter></defs><g filter="url(#y7EwWriGPj6lvtGGtkknMdn81KlWZfam)"><path d=" M 212.481 260.864 C 212.481 257.175 215.47 254.181 219.15 254.181 C 222.831 254.181 225.82 257.175 225.82 260.864 C 225.82 264.552 222.831 267.547 219.15 267.547 C 215.47 267.547 212.481 264.552 212.481 260.864 Z " fill="rgb(255,255,255)"/></g><defs><filter id="w2ajZeIWoa5i2NCy9P8kFZ5iSQXLmnwQ" x="-200%" y="-200%" width="400%" height="400%"><feOffset xmlns="http://www.w3.org/2000/svg" in="SourceAlpha" result="offOut" dx="0" dy="2"/><feGaussianBlur xmlns="http://www.w3.org/2000/svg" in="offOut" result="blurOut" stdDeviation="2"/><feComponentTransfer xmlns="http://www.w3.org/2000/svg" in="blurOut" result="opacOut"><feFuncA xmlns="http://www.w3.org/2000/svg" type="table" tableValues="0 0.5"/></feComponentTransfer><feBlend xmlns="http://www.w3.org/2000/svg" in="SourceGraphic" in2="opacOut" mode="normal"/></filter></defs><g filter="url(#w2ajZeIWoa5i2NCy9P8kFZ5iSQXLmnwQ)"><path d=" M 284.721 260.632 C 284.721 256.942 287.709 253.95 291.392 253.95 C 295.074 253.95 298.06 256.942 298.06 260.632 C 298.06 264.323 295.074 267.316 291.392 267.316 C 287.709 267.316 284.721 264.323 284.721 260.632 Z " fill="rgb(255,255,255)"/></g><g id="Group"><defs><filter id="8mfJVFNpim5EsMAYW9SCIcyCGRr1uGR4" x="-200%" y="-200%" width="400%" height="400%"><feOffset xmlns="http://www.w3.org/2000/svg" in="SourceAlpha" result="offOut" dx="0" dy="2"/><feGaussianBlur xmlns="http://www.w3.org/2000/svg" in="offOut" result="blurOut" stdDeviation="2"/><feComponentTransfer xmlns="http://www.w3.org/2000/svg" in="blurOut" result="opacOut"><feFuncA xmlns="http://www.w3.org/2000/svg" type="table" tableValues="0 0.5"/></feComponentTransfer><feBlend xmlns="http://www.w3.org/2000/svg" in="SourceGraphic" in2="opacOut" mode="normal"/></filter></defs><g filter="url(#8mfJVFNpim5EsMAYW9SCIcyCGRr1uGR4)"><path d=" M 286.497 272.676 C 286.497 290.021 272.465 304.084 255.154 304.084 C 237.845 304.084 223.811 290.021 223.811 272.676 L 286.497 272.676 Z " fill="rgb(255,255,255)"/></g></g></g><g id="Group"><linearGradient id="_lgradient_57" x1="-3.9272112161603165%" y1="-2.64584012781762%" x2="101.06359496101459%" y2="101.5370945631903%"><stop offset="1.7391304347826086%" stop-opacity="1" style="stop-color:rgb(86,110,242)"/><stop offset="99.1304347826087%" stop-opacity="1" style="stop-color:rgb(47,60,130)"/></linearGradient><path d=" M 372.136 189.51 C 345.538 189.51 323.976 211.117 323.976 237.771 C 323.976 249.782 328.365 260.759 335.609 269.204 C 333.432 275.486 329.414 280.903 324.186 284.791 C 327.503 285.927 331.059 286.553 334.759 286.553 C 341.095 286.553 347.006 284.742 352.016 281.616 C 358.141 284.443 364.951 286.032 372.137 286.032 C 398.737 286.032 420.298 264.425 420.298 237.771 C 420.298 211.117 398.736 189.51 372.136 189.51 Z " fill="url(#_lgradient_57)" vector-effect="non-scaling-stroke" stroke-width="2" stroke="rgb(29,41,47)" stroke-linejoin="round" stroke-linecap="round" stroke-miterlimit="4"/><clipPath id="_clipPath_ogQYdUVZkl5ZhjYcTi7XotNtUGQmeTIc"><linearGradient id="_lgradient_57" x1="-3.9272112161603165%" y1="-2.64584012781762%" x2="101.06359496101459%" y2="101.5370945631903%"><stop offset="1.7391304347826086%" stop-opacity="1" style="stop-color:rgb(86,110,242)"/><stop offset="99.1304347826087%" stop-opacity="1" style="stop-color:rgb(47,60,130)"/></linearGradient><path d=" M 372.136 189.51 C 345.538 189.51 323.976 211.117 323.976 237.771 C 323.976 249.782 328.365 260.759 335.609 269.204 C 333.432 275.486 329.414 280.903 324.186 284.791 C 327.503 285.927 331.059 286.553 334.759 286.553 C 341.095 286.553 347.006 284.742 352.016 281.616 C 358.141 284.443 364.951 286.032 372.137 286.032 C 398.737 286.032 420.298 264.425 420.298 237.771 C 420.298 211.117 398.736 189.51 372.136 189.51 Z " fill="url(#_lgradient_57)" vector-effect="non-scaling-stroke" stroke-width="2" stroke="rgb(29,41,47)" stroke-linejoin="round" stroke-linecap="round" stroke-miterlimit="4"/></clipPath><g clip-path="url(#_clipPath_ogQYdUVZkl5ZhjYcTi7XotNtUGQmeTIc)"><path d=" M 331.568 221.344 C 340.278 205.29 355.423 192.437 374.716 194.358" fill="none" vector-effect="non-scaling-stroke" stroke-width="2" stroke="rgb(255,255,255)" stroke-opacity="0.26" stroke-linejoin="round" stroke-linecap="round" stroke-miterlimit="3"/><path d=" M 338.753 273.633 C 336.46 277.87 334.466 280.398 333.209 281.796" fill="none" vector-effect="non-scaling-stroke" stroke-width="2" stroke="rgb(255,255,255)" stroke-opacity="0.26" stroke-linejoin="round" stroke-linecap="round" stroke-miterlimit="3"/><path d=" M 419.824 228.414 Q 401.753 287.335 353.205 288.416 Q 375.321 296.795 425.758 270.037 L 419.824 228.414 Z " fill="rgb(29,41,47)" fill-opacity="0.2"/></g><g id="Group"><defs><filter id="MvcDtlrkemJet5RCmPIq8BKrLY2IB5DB" x="-200%" y="-200%" width="400%" height="400%"><feOffset xmlns="http://www.w3.org/2000/svg" in="SourceAlpha" result="offOut" dx="0" dy="2"/><feGaussianBlur xmlns="http://www.w3.org/2000/svg" in="offOut" result="blurOut" stdDeviation="2"/><feComponentTransfer xmlns="http://www.w3.org/2000/svg" in="blurOut" result="opacOut"><feFuncA xmlns="http://www.w3.org/2000/svg" type="table" tableValues="0 0.5"/></feComponentTransfer><feBlend xmlns="http://www.w3.org/2000/svg" in="SourceGraphic" in2="opacOut" mode="normal"/></filter></defs><g filter="url(#MvcDtlrkemJet5RCmPIq8BKrLY2IB5DB)"><path d=" M 389.362 220.98 L 354.909 220.98 C 353.36 220.98 352.104 219.721 352.104 218.169 C 352.104 216.616 353.36 215.358 354.909 215.358 L 389.362 215.358 C 390.912 215.358 392.168 216.616 392.168 218.169 C 392.168 219.721 390.912 220.98 389.362 220.98 Z " fill="rgb(255,255,255)"/></g><defs><filter id="8iWW96QGHwkfzvGvMnw9cQAY3tQQF3n8" x="-200%" y="-200%" width="400%" height="400%"><feOffset xmlns="http://www.w3.org/2000/svg" in="SourceAlpha" result="offOut" dx="0" dy="2"/><feGaussianBlur xmlns="http://www.w3.org/2000/svg" in="offOut" result="blurOut" stdDeviation="2"/><feComponentTransfer xmlns="http://www.w3.org/2000/svg" in="blurOut" result="opacOut"><feFuncA xmlns="http://www.w3.org/2000/svg" type="table" tableValues="0 0.5"/></feComponentTransfer><feBlend xmlns="http://www.w3.org/2000/svg" in="SourceGraphic" in2="opacOut" mode="normal"/></filter></defs><g filter="url(#8iWW96QGHwkfzvGvMnw9cQAY3tQQF3n8)"><path d=" M 399.812 234.049 L 344.46 234.049 C 342.91 234.049 341.655 232.79 341.655 231.238 C 341.655 229.686 342.91 228.426 344.46 228.426 L 399.812 228.426 C 401.362 228.426 402.618 229.686 402.618 231.238 C 402.618 232.79 401.362 234.049 399.812 234.049 Z " fill="rgb(255,255,255)"/></g><defs><filter id="mixIpfPniwzPT4NPwgIyq17XdAbKjb5g" x="-200%" y="-200%" width="400%" height="400%"><feOffset xmlns="http://www.w3.org/2000/svg" in="SourceAlpha" result="offOut" dx="0" dy="2"/><feGaussianBlur xmlns="http://www.w3.org/2000/svg" in="offOut" result="blurOut" stdDeviation="2"/><feComponentTransfer xmlns="http://www.w3.org/2000/svg" in="blurOut" result="opacOut"><feFuncA xmlns="http://www.w3.org/2000/svg" type="table" tableValues="0 0.5"/></feComponentTransfer><feBlend xmlns="http://www.w3.org/2000/svg" in="SourceGraphic" in2="opacOut" mode="normal"/></filter></defs><g filter="url(#mixIpfPniwzPT4NPwgIyq17XdAbKjb5g)"><path d=" M 394.473 247.116 L 349.801 247.116 C 348.253 247.116 346.996 245.857 346.996 244.304 C 346.996 242.751 348.253 241.494 349.801 241.494 L 394.473 241.494 C 396.022 241.494 397.279 242.751 397.279 244.304 C 397.279 245.856 396.023 247.116 394.473 247.116 Z " fill="rgb(255,255,255)"/></g><defs><filter id="f8C2b4cj931211WnJvRJbgtgIRLTVP5P" x="-200%" y="-200%" width="400%" height="400%"><feOffset xmlns="http://www.w3.org/2000/svg" in="SourceAlpha" result="offOut" dx="0" dy="2"/><feGaussianBlur xmlns="http://www.w3.org/2000/svg" in="offOut" result="blurOut" stdDeviation="2"/><feComponentTransfer xmlns="http://www.w3.org/2000/svg" in="blurOut" result="opacOut"><feFuncA xmlns="http://www.w3.org/2000/svg" type="table" tableValues="0 0.5"/></feComponentTransfer><feBlend xmlns="http://www.w3.org/2000/svg" in="SourceGraphic" in2="opacOut" mode="normal"/></filter></defs><g filter="url(#f8C2b4cj931211WnJvRJbgtgIRLTVP5P)"><path d=" M 389.362 260.185 L 354.909 260.185 C 353.36 260.185 352.104 258.925 352.104 257.372 C 352.104 255.82 353.36 254.561 354.909 254.561 L 389.362 254.561 C 390.912 254.561 392.168 255.82 392.168 257.372 C 392.168 258.925 390.912 260.185 389.362 260.185 Z " fill="rgb(255,255,255)"/></g></g></g></g></g></g><path d=" M 252.459 161.79 C 252.459 160.134 253.804 158.79 255.459 158.79 C 257.115 158.79 258.459 160.134 258.459 161.79 C 258.459 163.446 257.115 164.79 255.459 164.79 C 253.804 164.79 252.459 163.446 252.459 161.79 Z " fill="none" vector-effect="non-scaling-stroke" stroke-width="2" stroke="rgb(77,99,218)" stroke-linejoin="round" stroke-linecap="round" stroke-miterlimit="3"/></g><path d=" M 247.459 419.276 C 247.459 414.86 251.044 411.276 255.459 411.276 C 259.875 411.276 263.459 414.86 263.459 419.276 C 263.459 423.691 259.875 427.276 255.459 427.276 C 251.044 427.276 247.459 423.691 247.459 419.276 Z " fill="rgb(29,41,47)"/><path d=" M 220.924 435.18 L 288.678 435.18 L 298.229 479.509 L 214.076 479.509 L 220.924 435.18 Z " fill="rgb(131,131,132)" vector-effect="non-scaling-stroke" stroke-width="2" stroke="rgb(29,41,47)" stroke-linejoin="miter" stroke-linecap="square" stroke-miterlimit="3"/><clipPath id="_clipPath_83BkDNGeiJCwIdeTkDZhzgE8C99hDxGq"><path d=" M 220.924 435.18 L 288.678 435.18 L 298.229 479.509 L 214.076 479.509 L 220.924 435.18 Z " fill="rgb(131,131,132)" vector-effect="non-scaling-stroke" stroke-width="2" stroke="rgb(29,41,47)" stroke-linejoin="miter" stroke-linecap="square" stroke-miterlimit="3"/></clipPath><g clip-path="url(#_clipPath_83BkDNGeiJCwIdeTkDZhzgE8C99hDxGq)"><path d=" M 286.832 435.07 L 286.832 481.149 L 311.479 481.149 L 296.119 428.641 L 286.832 435.07 Z " fill="rgb(29,41,47)" fill-opacity="0.2"/></g><path d=" M 310.764 479.363 Q 316.837 491.865 295.405 491.151 C 317.521 499.529 322.925 517.054 327.115 499.68 C 329.598 489.386 321.33 479.112 310.764 479.363 Z " fill="rgb(29,41,47)" fill-opacity="0.2"/></g><line x1="225.394" y1="437.571" x2="219.678" y2="475.077" vector-effect="non-scaling-stroke" stroke-width="2" stroke="rgb(62,64,74)" stroke-opacity="0.26" stroke-linejoin="round" stroke-linecap="round" stroke-miterlimit="3"/><path d=" M 202.684 482.66 Q 198.934 483.475 198.934 486.41" fill="none" vector-effect="non-scaling-stroke" stroke-width="1" stroke="rgb(62,64,74)" stroke-opacity="0.26" stroke-linejoin="round" stroke-linecap="round" stroke-miterlimit="3"/><path d=" M 74.899 152.116 C 67.631 152.116 52.672 158.798 52.672 173.396" fill="none" vector-effect="non-scaling-stroke" stroke-width="2" stroke="rgb(255,255,255)" stroke-opacity="0.26" stroke-linejoin="round" stroke-linecap="round" stroke-miterlimit="3"/></g></g></svg>