<?xml version="1.0" standalone="no"?><!-- Generator: Gravit.io --><svg xmlns="http://www.w3.org/2000/svg" xmlns:xlink="http://www.w3.org/1999/xlink" style="isolation:isolate" viewBox="16 16 480 480" width="480" height="480"><g style="isolation:isolate" id="voice-illustration"><rect x="16" y="16" width="480" height="480" transform="matrix(1,0,0,1,0,0)" fill="none"/><g id="Group"><g id="Group"><g id="Group"><path d=" M 342.754 294 C 332.244 255.962 297.362 228 256 228 C 214.638 228 179.756 255.962 169.246 294 L 342.754 294 Z " fill="rgb(40,52,59)"/><path d=" M 320.333 307 C 320.333 295.962 329.295 287 340.333 287 C 351.372 287 360.333 295.962 360.333 307 C 360.333 318.038 351.372 327 340.333 327 C 329.295 327 320.333 318.038 320.333 307 Z " fill="rgb(15,19,21)"/><path d=" M 153 307 C 153 295.962 161.962 287 173 287 C 184.038 287 193 295.962 193 307 C 193 318.038 184.038 327 173 327 C 161.962 327 153 318.038 153 307 Z " fill="rgb(15,19,21)"/></g><linearGradient id="_lgradient_75" x1="-3.9272112161603534%" y1="-2.6458401278176225%" x2="101.06359496101456%" y2="101.53709456319024%"><stop offset="2.1739130434782608%" stop-opacity="1" style="stop-color:rgb(92,95,106)"/><stop offset="98.69565217391305%" stop-opacity="1" style="stop-color:rgb(45,51,75)"/></linearGradient><path d=" M 385.374 495 C 377.234 447.069 343.061 407.958 297.94 392.725 C 323.689 378.064 341.073 350.326 341.073 318.552 C 341.073 271.5 302.953 233.3 256 233.3 C 209.047 233.3 170.927 271.5 170.927 318.552 C 170.927 350.326 188.311 378.064 214.06 392.725 C 168.939 407.958 134.766 447.069 126.626 495 L 385.374 495 Z " fill="url(#_lgradient_75)" vector-effect="non-scaling-stroke" stroke-width="2" stroke="rgb(29,41,47)" stroke-linejoin="round" stroke-linecap="round" stroke-miterlimit="4"/><clipPath id="_clipPath_R2mWNvUsv2vwd6RTpudoc30yaOzjg72g"><linearGradient id="_lgradient_75" x1="-3.9272112161603534%" y1="-2.6458401278176225%" x2="101.06359496101456%" y2="101.53709456319024%"><stop offset="2.1739130434782608%" stop-opacity="1" style="stop-color:rgb(92,95,106)"/><stop offset="98.69565217391305%" stop-opacity="1" style="stop-color:rgb(45,51,75)"/></linearGradient><path d=" M 385.374 495 C 377.234 447.069 343.061 407.958 297.94 392.725 C 323.689 378.064 341.073 350.326 341.073 318.552 C 341.073 271.5 302.953 233.3 256 233.3 C 209.047 233.3 170.927 271.5 170.927 318.552 C 170.927 350.326 188.311 378.064 214.06 392.725 C 168.939 407.958 134.766 447.069 126.626 495 L 385.374 495 Z " fill="url(#_lgradient_75)" vector-effect="non-scaling-stroke" stroke-width="2" stroke="rgb(29,41,47)" stroke-linejoin="round" stroke-linecap="round" stroke-miterlimit="4"/></clipPath><g clip-path="url(#_clipPath_R2mWNvUsv2vwd6RTpudoc30yaOzjg72g)"><path d=" M 340.288 304.929 C 340.88 324.955 318.163 377.021 297.918 391.452 Q 316.574 397.016 358.67 374.133 L 340.288 304.929 Z " fill="rgb(29,41,47)" fill-opacity="0.2"/><path d=" M 344.352 420.885 C 399.916 509.534 350.56 629.863 338.666 641.216 C 276.149 700.892 346.488 661.46 470.327 500.217 L 344.352 420.885 Z " fill="rgb(29,41,47)" fill-opacity="0.2"/></g><path d=" M 165 309 Q 160.059 344 196 344" fill="none" vector-effect="non-scaling-stroke" stroke-width="4" stroke="rgb(40,52,59)" stroke-linejoin="round" stroke-linecap="round" stroke-miterlimit="3"/><path d=" M 190 345.459 C 190 341.044 193.585 337.459 198 337.459 C 202.415 337.459 206 341.044 206 345.459 C 206 349.875 202.415 353.459 198 353.459 C 193.585 353.459 190 349.875 190 345.459 Z " fill="rgb(15,19,21)"/><path d=" M 185.958 284.991 C 195.285 263.609 221.367 240.916 256.22 239.991" fill="none" vector-effect="non-scaling-stroke" stroke-width="2" stroke="rgb(255,255,255)" stroke-opacity="0.26" stroke-linejoin="round" stroke-linecap="round" stroke-miterlimit="3"/><defs><filter id="h05m2eG9s5FsOr2d2LImmzTubde8k7uW" x="-200%" y="-200%" width="400%" height="400%"><feOffset xmlns="http://www.w3.org/2000/svg" in="SourceAlpha" result="offOut" dx="0" dy="2"/><feGaussianBlur xmlns="http://www.w3.org/2000/svg" in="offOut" result="blurOut" stdDeviation="2"/><feComponentTransfer xmlns="http://www.w3.org/2000/svg" in="blurOut" result="opacOut"><feFuncA xmlns="http://www.w3.org/2000/svg" type="table" tableValues="0 0.5"/></feComponentTransfer><feBlend xmlns="http://www.w3.org/2000/svg" in="SourceGraphic" in2="opacOut" mode="normal"/></filter></defs><g filter="url(#h05m2eG9s5FsOr2d2LImmzTubde8k7uW)"><path d=" M 191.533 300.835 C 191.533 295.302 196.015 290.81 201.537 290.81 C 207.058 290.81 211.54 295.302 211.54 300.835 C 211.54 306.368 207.058 310.86 201.537 310.86 C 196.015 310.86 191.533 306.368 191.533 300.835 Z " fill="rgb(255,255,255)"/></g><defs><filter id="UksSXgEHAprDE3VAlKR4S9QoKsQN5REj" x="-200%" y="-200%" width="400%" height="400%"><feOffset xmlns="http://www.w3.org/2000/svg" in="SourceAlpha" result="offOut" dx="0" dy="2"/><feGaussianBlur xmlns="http://www.w3.org/2000/svg" in="offOut" result="blurOut" stdDeviation="2"/><feComponentTransfer xmlns="http://www.w3.org/2000/svg" in="blurOut" result="opacOut"><feFuncA xmlns="http://www.w3.org/2000/svg" type="table" tableValues="0 0.5"/></feComponentTransfer><feBlend xmlns="http://www.w3.org/2000/svg" in="SourceGraphic" in2="opacOut" mode="normal"/></filter></defs><g filter="url(#UksSXgEHAprDE3VAlKR4S9QoKsQN5REj)"><path d=" M 299.893 300.487 C 299.893 294.952 304.374 290.464 309.899 290.464 C 315.422 290.464 319.901 294.952 319.901 300.487 C 319.901 306.024 315.422 310.514 309.899 310.514 C 304.374 310.513 299.893 306.024 299.893 300.487 Z " fill="rgb(255,255,255)"/></g><g id="Group"><defs><filter id="3thBRiyuvvBKfB2uv8itOMNxfWDkipKD" x="-200%" y="-200%" width="400%" height="400%"><feOffset xmlns="http://www.w3.org/2000/svg" in="SourceAlpha" result="offOut" dx="0" dy="2"/><feGaussianBlur xmlns="http://www.w3.org/2000/svg" in="offOut" result="blurOut" stdDeviation="2"/><feComponentTransfer xmlns="http://www.w3.org/2000/svg" in="blurOut" result="opacOut"><feFuncA xmlns="http://www.w3.org/2000/svg" type="table" tableValues="0 0.5"/></feComponentTransfer><feBlend xmlns="http://www.w3.org/2000/svg" in="SourceGraphic" in2="opacOut" mode="normal"/></filter></defs><g filter="url(#3thBRiyuvvBKfB2uv8itOMNxfWDkipKD)"><path d=" M 302.556 318.553 C 302.556 344.572 281.509 365.666 255.542 365.666 C 229.579 365.666 208.528 344.572 208.528 318.553 L 302.556 318.553 Z " fill="rgb(255,255,255)"/></g></g></g></g><g id="Ground"><line x1="117.682" y1="494.504" x2="391.434" y2="494.504" vector-effect="non-scaling-stroke" stroke-width="2.985" stroke="rgb(29,41,47)" stroke-linejoin="round" stroke-linecap="round" stroke-miterlimit="3"/><line x1="401.792" y1="494.504" x2="427.318" y2="494.504" vector-effect="non-scaling-stroke" stroke-width="2.985" stroke="rgb(29,41,47)" stroke-linejoin="round" stroke-linecap="round" stroke-miterlimit="3"/><line x1="106.682" y1="494.504" x2="110.682" y2="494.504" vector-effect="non-scaling-stroke" stroke-width="3" stroke="rgb(29,41,47)" stroke-linejoin="round" stroke-linecap="round" stroke-miterlimit="3"/></g><path d=" M 168 293 C 164.777 293 159 299.065 159 302" fill="none" vector-effect="non-scaling-stroke" stroke-width="2" stroke="rgb(255,255,255)" stroke-opacity="0.26" stroke-linejoin="round" stroke-linecap="round" stroke-miterlimit="3"/><path d=" M 247.079 218.965 C 276.936 214.531 329.389 234.546 341.153 269.246" fill="none" vector-effect="non-scaling-stroke" stroke-width="4" stroke="rgb(209,209,209)" stroke-linejoin="round" stroke-linecap="round" stroke-miterlimit="3"/><path d=" M 269.787 208.152 C 307.844 211.977 321.643 223.812 338.45 244.376" fill="none" vector-effect="non-scaling-stroke" stroke-width="4" stroke="rgb(209,209,209)" stroke-linejoin="round" stroke-linecap="round" stroke-miterlimit="3"/></g></svg>